<?xml version="1.0" encoding="utf-8" standalone="no"?>
<!DOCTYPE svg PUBLIC "-//W3C//DTD SVG 1.1//EN"
  "http://www.w3.org/Graphics/SVG/1.1/DTD/svg11.dtd">
<svg xmlns:xlink="http://www.w3.org/1999/xlink" width="460.8pt" height="345.6pt" viewBox="0 0 460.8 345.6" xmlns="http://www.w3.org/2000/svg" version="1.1">
 <metadata>
  <rdf:RDF xmlns:dc="http://purl.org/dc/elements/1.1/" xmlns:cc="http://creativecommons.org/ns#" xmlns:rdf="http://www.w3.org/1999/02/22-rdf-syntax-ns#">
   <cc:Work>
    <dc:type rdf:resource="http://purl.org/dc/dcmitype/StillImage"/>
    <dc:date>2024-02-06T17:58:11.965612</dc:date>
    <dc:format>image/svg+xml</dc:format>
    <dc:creator>
     <cc:Agent>
      <dc:title>Matplotlib v3.7.1, https://matplotlib.org/</dc:title>
     </cc:Agent>
    </dc:creator>
   </cc:Work>
  </rdf:RDF>
 </metadata>
 <defs>
  <style type="text/css">*{stroke-linejoin: round; stroke-linecap: butt}</style>
 </defs>
 <g id="figure_1">
  <g id="patch_1">
   <path d="M 0 345.6 
L 460.8 345.6 
L 460.8 0 
L 0 0 
z
" style="fill: #ffffff"/>
  </g>
  <g id="axes_1">
   <g id="patch_2">
    <path d="M 71.91 289.26 
L 451.8 289.26 
L 451.8 9 
L 71.91 9 
z
" style="fill: #eaeaf2"/>
   </g>
   <g id="matplotlib.axis_1">
    <g id="xtick_1">
     <g id="line2d_1">
      <path d="M 85.67159 289.26 
L 85.67159 9 
" clip-path="url(#p69bdfd3f85)" style="fill: none; stroke: #ffffff; stroke-linecap: round"/>
     </g>
     <g id="text_1">
      <!-- 0 -->
      <g style="fill: #262626" transform="translate(80.422527 311.297422) scale(0.165 -0.165)">
       <defs>
        <path id="DejaVuSans-30" d="M 2034 4250 
Q 1547 4250 1301 3770 
Q 1056 3291 1056 2328 
Q 1056 1369 1301 889 
Q 1547 409 2034 409 
Q 2525 409 2770 889 
Q 3016 1369 3016 2328 
Q 3016 3291 2770 3770 
Q 2525 4250 2034 4250 
z
M 2034 4750 
Q 2819 4750 3233 4129 
Q 3647 3509 3647 2328 
Q 3647 1150 3233 529 
Q 2819 -91 2034 -91 
Q 1250 -91 836 529 
Q 422 1150 422 2328 
Q 422 3509 836 4129 
Q 1250 4750 2034 4750 
z
" transform="scale(0.015625)"/>
       </defs>
       <use xlink:href="#DejaVuSans-30"/>
      </g>
     </g>
    </g>
    <g id="xtick_2">
     <g id="line2d_2">
      <path d="M 140.454988 289.26 
L 140.454988 9 
" clip-path="url(#p69bdfd3f85)" style="fill: none; stroke: #ffffff; stroke-linecap: round"/>
     </g>
     <g id="text_2">
      <!-- 250 -->
      <g style="fill: #262626" transform="translate(124.707801 311.297422) scale(0.165 -0.165)">
       <defs>
        <path id="DejaVuSans-32" d="M 1228 531 
L 3431 531 
L 3431 0 
L 469 0 
L 469 531 
Q 828 903 1448 1529 
Q 2069 2156 2228 2338 
Q 2531 2678 2651 2914 
Q 2772 3150 2772 3378 
Q 2772 3750 2511 3984 
Q 2250 4219 1831 4219 
Q 1534 4219 1204 4116 
Q 875 4013 500 3803 
L 500 4441 
Q 881 4594 1212 4672 
Q 1544 4750 1819 4750 
Q 2544 4750 2975 4387 
Q 3406 4025 3406 3419 
Q 3406 3131 3298 2873 
Q 3191 2616 2906 2266 
Q 2828 2175 2409 1742 
Q 1991 1309 1228 531 
z
" transform="scale(0.015625)"/>
        <path id="DejaVuSans-35" d="M 691 4666 
L 3169 4666 
L 3169 4134 
L 1269 4134 
L 1269 2991 
Q 1406 3038 1543 3061 
Q 1681 3084 1819 3084 
Q 2600 3084 3056 2656 
Q 3513 2228 3513 1497 
Q 3513 744 3044 326 
Q 2575 -91 1722 -91 
Q 1428 -91 1123 -41 
Q 819 9 494 109 
L 494 744 
Q 775 591 1075 516 
Q 1375 441 1709 441 
Q 2250 441 2565 725 
Q 2881 1009 2881 1497 
Q 2881 1984 2565 2268 
Q 2250 2553 1709 2553 
Q 1456 2553 1204 2497 
Q 953 2441 691 2322 
L 691 4666 
z
" transform="scale(0.015625)"/>
       </defs>
       <use xlink:href="#DejaVuSans-32"/>
       <use xlink:href="#DejaVuSans-35" x="63.623047"/>
       <use xlink:href="#DejaVuSans-30" x="127.246094"/>
      </g>
     </g>
    </g>
    <g id="xtick_3">
     <g id="line2d_3">
      <path d="M 195.238387 289.26 
L 195.238387 9 
" clip-path="url(#p69bdfd3f85)" style="fill: none; stroke: #ffffff; stroke-linecap: round"/>
     </g>
     <g id="text_3">
      <!-- 500 -->
      <g style="fill: #262626" transform="translate(179.4912 311.297422) scale(0.165 -0.165)">
       <use xlink:href="#DejaVuSans-35"/>
       <use xlink:href="#DejaVuSans-30" x="63.623047"/>
       <use xlink:href="#DejaVuSans-30" x="127.246094"/>
      </g>
     </g>
    </g>
    <g id="xtick_4">
     <g id="line2d_4">
      <path d="M 250.021786 289.26 
L 250.021786 9 
" clip-path="url(#p69bdfd3f85)" style="fill: none; stroke: #ffffff; stroke-linecap: round"/>
     </g>
     <g id="text_4">
      <!-- 750 -->
      <g style="fill: #262626" transform="translate(234.274598 311.297422) scale(0.165 -0.165)">
       <defs>
        <path id="DejaVuSans-37" d="M 525 4666 
L 3525 4666 
L 3525 4397 
L 1831 0 
L 1172 0 
L 2766 4134 
L 525 4134 
L 525 4666 
z
" transform="scale(0.015625)"/>
       </defs>
       <use xlink:href="#DejaVuSans-37"/>
       <use xlink:href="#DejaVuSans-35" x="63.623047"/>
       <use xlink:href="#DejaVuSans-30" x="127.246094"/>
      </g>
     </g>
    </g>
    <g id="xtick_5">
     <g id="line2d_5">
      <path d="M 304.805185 289.26 
L 304.805185 9 
" clip-path="url(#p69bdfd3f85)" style="fill: none; stroke: #ffffff; stroke-linecap: round"/>
     </g>
     <g id="text_5">
      <!-- 1000 -->
      <g style="fill: #262626" transform="translate(283.808935 311.297422) scale(0.165 -0.165)">
       <defs>
        <path id="DejaVuSans-31" d="M 794 531 
L 1825 531 
L 1825 4091 
L 703 3866 
L 703 4441 
L 1819 4666 
L 2450 4666 
L 2450 531 
L 3481 531 
L 3481 0 
L 794 0 
L 794 531 
z
" transform="scale(0.015625)"/>
       </defs>
       <use xlink:href="#DejaVuSans-31"/>
       <use xlink:href="#DejaVuSans-30" x="63.623047"/>
       <use xlink:href="#DejaVuSans-30" x="127.246094"/>
       <use xlink:href="#DejaVuSans-30" x="190.869141"/>
      </g>
     </g>
    </g>
    <g id="xtick_6">
     <g id="line2d_6">
      <path d="M 359.588583 289.26 
L 359.588583 9 
" clip-path="url(#p69bdfd3f85)" style="fill: none; stroke: #ffffff; stroke-linecap: round"/>
     </g>
     <g id="text_6">
      <!-- 1250 -->
      <g style="fill: #262626" transform="translate(338.592333 311.297422) scale(0.165 -0.165)">
       <use xlink:href="#DejaVuSans-31"/>
       <use xlink:href="#DejaVuSans-32" x="63.623047"/>
       <use xlink:href="#DejaVuSans-35" x="127.246094"/>
       <use xlink:href="#DejaVuSans-30" x="190.869141"/>
      </g>
     </g>
    </g>
    <g id="xtick_7">
     <g id="line2d_7">
      <path d="M 414.371982 289.26 
L 414.371982 9 
" clip-path="url(#p69bdfd3f85)" style="fill: none; stroke: #ffffff; stroke-linecap: round"/>
     </g>
     <g id="text_7">
      <!-- 1500 -->
      <g style="fill: #262626" transform="translate(393.375732 311.297422) scale(0.165 -0.165)">
       <use xlink:href="#DejaVuSans-31"/>
       <use xlink:href="#DejaVuSans-35" x="63.623047"/>
       <use xlink:href="#DejaVuSans-30" x="127.246094"/>
       <use xlink:href="#DejaVuSans-30" x="190.869141"/>
      </g>
     </g>
    </g>
    <g id="text_8">
     <!-- Steps -->
     <g style="fill: #262626" transform="translate(236.673281 332.406094) scale(0.18 -0.18)">
      <defs>
       <path id="DejaVuSans-53" d="M 3425 4513 
L 3425 3897 
Q 3066 4069 2747 4153 
Q 2428 4238 2131 4238 
Q 1616 4238 1336 4038 
Q 1056 3838 1056 3469 
Q 1056 3159 1242 3001 
Q 1428 2844 1947 2747 
L 2328 2669 
Q 3034 2534 3370 2195 
Q 3706 1856 3706 1288 
Q 3706 609 3251 259 
Q 2797 -91 1919 -91 
Q 1588 -91 1214 -16 
Q 841 59 441 206 
L 441 856 
Q 825 641 1194 531 
Q 1563 422 1919 422 
Q 2459 422 2753 634 
Q 3047 847 3047 1241 
Q 3047 1584 2836 1778 
Q 2625 1972 2144 2069 
L 1759 2144 
Q 1053 2284 737 2584 
Q 422 2884 422 3419 
Q 422 4038 858 4394 
Q 1294 4750 2059 4750 
Q 2388 4750 2728 4690 
Q 3069 4631 3425 4513 
z
" transform="scale(0.015625)"/>
       <path id="DejaVuSans-74" d="M 1172 4494 
L 1172 3500 
L 2356 3500 
L 2356 3053 
L 1172 3053 
L 1172 1153 
Q 1172 725 1289 603 
Q 1406 481 1766 481 
L 2356 481 
L 2356 0 
L 1766 0 
Q 1100 0 847 248 
Q 594 497 594 1153 
L 594 3053 
L 172 3053 
L 172 3500 
L 594 3500 
L 594 4494 
L 1172 4494 
z
" transform="scale(0.015625)"/>
       <path id="DejaVuSans-65" d="M 3597 1894 
L 3597 1613 
L 953 1613 
Q 991 1019 1311 708 
Q 1631 397 2203 397 
Q 2534 397 2845 478 
Q 3156 559 3463 722 
L 3463 178 
Q 3153 47 2828 -22 
Q 2503 -91 2169 -91 
Q 1331 -91 842 396 
Q 353 884 353 1716 
Q 353 2575 817 3079 
Q 1281 3584 2069 3584 
Q 2775 3584 3186 3129 
Q 3597 2675 3597 1894 
z
M 3022 2063 
Q 3016 2534 2758 2815 
Q 2500 3097 2075 3097 
Q 1594 3097 1305 2825 
Q 1016 2553 972 2059 
L 3022 2063 
z
" transform="scale(0.015625)"/>
       <path id="DejaVuSans-70" d="M 1159 525 
L 1159 -1331 
L 581 -1331 
L 581 3500 
L 1159 3500 
L 1159 2969 
Q 1341 3281 1617 3432 
Q 1894 3584 2278 3584 
Q 2916 3584 3314 3078 
Q 3713 2572 3713 1747 
Q 3713 922 3314 415 
Q 2916 -91 2278 -91 
Q 1894 -91 1617 61 
Q 1341 213 1159 525 
z
M 3116 1747 
Q 3116 2381 2855 2742 
Q 2594 3103 2138 3103 
Q 1681 3103 1420 2742 
Q 1159 2381 1159 1747 
Q 1159 1113 1420 752 
Q 1681 391 2138 391 
Q 2594 391 2855 752 
Q 3116 1113 3116 1747 
z
" transform="scale(0.015625)"/>
       <path id="DejaVuSans-73" d="M 2834 3397 
L 2834 2853 
Q 2591 2978 2328 3040 
Q 2066 3103 1784 3103 
Q 1356 3103 1142 2972 
Q 928 2841 928 2578 
Q 928 2378 1081 2264 
Q 1234 2150 1697 2047 
L 1894 2003 
Q 2506 1872 2764 1633 
Q 3022 1394 3022 966 
Q 3022 478 2636 193 
Q 2250 -91 1575 -91 
Q 1294 -91 989 -36 
Q 684 19 347 128 
L 347 722 
Q 666 556 975 473 
Q 1284 391 1588 391 
Q 1994 391 2212 530 
Q 2431 669 2431 922 
Q 2431 1156 2273 1281 
Q 2116 1406 1581 1522 
L 1381 1569 
Q 847 1681 609 1914 
Q 372 2147 372 2553 
Q 372 3047 722 3315 
Q 1072 3584 1716 3584 
Q 2034 3584 2315 3537 
Q 2597 3491 2834 3397 
z
" transform="scale(0.015625)"/>
      </defs>
      <use xlink:href="#DejaVuSans-53"/>
      <use xlink:href="#DejaVuSans-74" x="63.476562"/>
      <use xlink:href="#DejaVuSans-65" x="102.685547"/>
      <use xlink:href="#DejaVuSans-70" x="164.208984"/>
      <use xlink:href="#DejaVuSans-73" x="227.685547"/>
     </g>
    </g>
   </g>
   <g id="matplotlib.axis_2">
    <g id="ytick_1">
     <g id="line2d_8">
      <path d="M 71.91 273.895785 
L 451.8 273.895785 
" clip-path="url(#p69bdfd3f85)" style="fill: none; stroke: #ffffff; stroke-linecap: round"/>
     </g>
     <g id="text_9">
      <!-- 0 -->
      <g style="fill: #262626" transform="translate(51.911875 280.164496) scale(0.165 -0.165)">
       <use xlink:href="#DejaVuSans-30"/>
      </g>
     </g>
    </g>
    <g id="ytick_2">
     <g id="line2d_9">
      <path d="M 71.91 223.226964 
L 451.8 223.226964 
" clip-path="url(#p69bdfd3f85)" style="fill: none; stroke: #ffffff; stroke-linecap: round"/>
     </g>
     <g id="text_10">
      <!-- 100 -->
      <g style="fill: #262626" transform="translate(30.915625 229.495675) scale(0.165 -0.165)">
       <use xlink:href="#DejaVuSans-31"/>
       <use xlink:href="#DejaVuSans-30" x="63.623047"/>
       <use xlink:href="#DejaVuSans-30" x="127.246094"/>
      </g>
     </g>
    </g>
    <g id="ytick_3">
     <g id="line2d_10">
      <path d="M 71.91 172.558143 
L 451.8 172.558143 
" clip-path="url(#p69bdfd3f85)" style="fill: none; stroke: #ffffff; stroke-linecap: round"/>
     </g>
     <g id="text_11">
      <!-- 200 -->
      <g style="fill: #262626" transform="translate(30.915625 178.826854) scale(0.165 -0.165)">
       <use xlink:href="#DejaVuSans-32"/>
       <use xlink:href="#DejaVuSans-30" x="63.623047"/>
       <use xlink:href="#DejaVuSans-30" x="127.246094"/>
      </g>
     </g>
    </g>
    <g id="ytick_4">
     <g id="line2d_11">
      <path d="M 71.91 121.889322 
L 451.8 121.889322 
" clip-path="url(#p69bdfd3f85)" style="fill: none; stroke: #ffffff; stroke-linecap: round"/>
     </g>
     <g id="text_12">
      <!-- 300 -->
      <g style="fill: #262626" transform="translate(30.915625 128.158033) scale(0.165 -0.165)">
       <defs>
        <path id="DejaVuSans-33" d="M 2597 2516 
Q 3050 2419 3304 2112 
Q 3559 1806 3559 1356 
Q 3559 666 3084 287 
Q 2609 -91 1734 -91 
Q 1441 -91 1130 -33 
Q 819 25 488 141 
L 488 750 
Q 750 597 1062 519 
Q 1375 441 1716 441 
Q 2309 441 2620 675 
Q 2931 909 2931 1356 
Q 2931 1769 2642 2001 
Q 2353 2234 1838 2234 
L 1294 2234 
L 1294 2753 
L 1863 2753 
Q 2328 2753 2575 2939 
Q 2822 3125 2822 3475 
Q 2822 3834 2567 4026 
Q 2313 4219 1838 4219 
Q 1578 4219 1281 4162 
Q 984 4106 628 3988 
L 628 4550 
Q 988 4650 1302 4700 
Q 1616 4750 1894 4750 
Q 2613 4750 3031 4423 
Q 3450 4097 3450 3541 
Q 3450 3153 3228 2886 
Q 3006 2619 2597 2516 
z
" transform="scale(0.015625)"/>
       </defs>
       <use xlink:href="#DejaVuSans-33"/>
       <use xlink:href="#DejaVuSans-30" x="63.623047"/>
       <use xlink:href="#DejaVuSans-30" x="127.246094"/>
      </g>
     </g>
    </g>
    <g id="ytick_5">
     <g id="line2d_12">
      <path d="M 71.91 71.220501 
L 451.8 71.220501 
" clip-path="url(#p69bdfd3f85)" style="fill: none; stroke: #ffffff; stroke-linecap: round"/>
     </g>
     <g id="text_13">
      <!-- 400 -->
      <g style="fill: #262626" transform="translate(30.915625 77.489212) scale(0.165 -0.165)">
       <defs>
        <path id="DejaVuSans-34" d="M 2419 4116 
L 825 1625 
L 2419 1625 
L 2419 4116 
z
M 2253 4666 
L 3047 4666 
L 3047 1625 
L 3713 1625 
L 3713 1100 
L 3047 1100 
L 3047 0 
L 2419 0 
L 2419 1100 
L 313 1100 
L 313 1709 
L 2253 4666 
z
" transform="scale(0.015625)"/>
       </defs>
       <use xlink:href="#DejaVuSans-34"/>
       <use xlink:href="#DejaVuSans-30" x="63.623047"/>
       <use xlink:href="#DejaVuSans-30" x="127.246094"/>
      </g>
     </g>
    </g>
    <g id="ytick_6">
     <g id="line2d_13">
      <path d="M 71.91 20.55168 
L 451.8 20.55168 
" clip-path="url(#p69bdfd3f85)" style="fill: none; stroke: #ffffff; stroke-linecap: round"/>
     </g>
     <g id="text_14">
      <!-- 500 -->
      <g style="fill: #262626" transform="translate(30.915625 26.820391) scale(0.165 -0.165)">
       <use xlink:href="#DejaVuSans-35"/>
       <use xlink:href="#DejaVuSans-30" x="63.623047"/>
       <use xlink:href="#DejaVuSans-30" x="127.246094"/>
      </g>
     </g>
    </g>
    <g id="text_15">
     <!-- Total rewards -->
     <g style="fill: #262626" transform="translate(23.172188 208.863281) rotate(-90) scale(0.18 -0.18)">
      <defs>
       <path id="DejaVuSans-54" d="M -19 4666 
L 3928 4666 
L 3928 4134 
L 2272 4134 
L 2272 0 
L 1638 0 
L 1638 4134 
L -19 4134 
L -19 4666 
z
" transform="scale(0.015625)"/>
       <path id="DejaVuSans-6f" d="M 1959 3097 
Q 1497 3097 1228 2736 
Q 959 2375 959 1747 
Q 959 1119 1226 758 
Q 1494 397 1959 397 
Q 2419 397 2687 759 
Q 2956 1122 2956 1747 
Q 2956 2369 2687 2733 
Q 2419 3097 1959 3097 
z
M 1959 3584 
Q 2709 3584 3137 3096 
Q 3566 2609 3566 1747 
Q 3566 888 3137 398 
Q 2709 -91 1959 -91 
Q 1206 -91 779 398 
Q 353 888 353 1747 
Q 353 2609 779 3096 
Q 1206 3584 1959 3584 
z
" transform="scale(0.015625)"/>
       <path id="DejaVuSans-61" d="M 2194 1759 
Q 1497 1759 1228 1600 
Q 959 1441 959 1056 
Q 959 750 1161 570 
Q 1363 391 1709 391 
Q 2188 391 2477 730 
Q 2766 1069 2766 1631 
L 2766 1759 
L 2194 1759 
z
M 3341 1997 
L 3341 0 
L 2766 0 
L 2766 531 
Q 2569 213 2275 61 
Q 1981 -91 1556 -91 
Q 1019 -91 701 211 
Q 384 513 384 1019 
Q 384 1609 779 1909 
Q 1175 2209 1959 2209 
L 2766 2209 
L 2766 2266 
Q 2766 2663 2505 2880 
Q 2244 3097 1772 3097 
Q 1472 3097 1187 3025 
Q 903 2953 641 2809 
L 641 3341 
Q 956 3463 1253 3523 
Q 1550 3584 1831 3584 
Q 2591 3584 2966 3190 
Q 3341 2797 3341 1997 
z
" transform="scale(0.015625)"/>
       <path id="DejaVuSans-6c" d="M 603 4863 
L 1178 4863 
L 1178 0 
L 603 0 
L 603 4863 
z
" transform="scale(0.015625)"/>
       <path id="DejaVuSans-20" transform="scale(0.015625)"/>
       <path id="DejaVuSans-72" d="M 2631 2963 
Q 2534 3019 2420 3045 
Q 2306 3072 2169 3072 
Q 1681 3072 1420 2755 
Q 1159 2438 1159 1844 
L 1159 0 
L 581 0 
L 581 3500 
L 1159 3500 
L 1159 2956 
Q 1341 3275 1631 3429 
Q 1922 3584 2338 3584 
Q 2397 3584 2469 3576 
Q 2541 3569 2628 3553 
L 2631 2963 
z
" transform="scale(0.015625)"/>
       <path id="DejaVuSans-77" d="M 269 3500 
L 844 3500 
L 1563 769 
L 2278 3500 
L 2956 3500 
L 3675 769 
L 4391 3500 
L 4966 3500 
L 4050 0 
L 3372 0 
L 2619 2869 
L 1863 0 
L 1184 0 
L 269 3500 
z
" transform="scale(0.015625)"/>
       <path id="DejaVuSans-64" d="M 2906 2969 
L 2906 4863 
L 3481 4863 
L 3481 0 
L 2906 0 
L 2906 525 
Q 2725 213 2448 61 
Q 2172 -91 1784 -91 
Q 1150 -91 751 415 
Q 353 922 353 1747 
Q 353 2572 751 3078 
Q 1150 3584 1784 3584 
Q 2172 3584 2448 3432 
Q 2725 3281 2906 2969 
z
M 947 1747 
Q 947 1113 1208 752 
Q 1469 391 1925 391 
Q 2381 391 2643 752 
Q 2906 1113 2906 1747 
Q 2906 2381 2643 2742 
Q 2381 3103 1925 3103 
Q 1469 3103 1208 2742 
Q 947 2381 947 1747 
z
" transform="scale(0.015625)"/>
      </defs>
      <use xlink:href="#DejaVuSans-54"/>
      <use xlink:href="#DejaVuSans-6f" x="44.083984"/>
      <use xlink:href="#DejaVuSans-74" x="105.265625"/>
      <use xlink:href="#DejaVuSans-61" x="144.474609"/>
      <use xlink:href="#DejaVuSans-6c" x="205.753906"/>
      <use xlink:href="#DejaVuSans-20" x="233.537109"/>
      <use xlink:href="#DejaVuSans-72" x="265.324219"/>
      <use xlink:href="#DejaVuSans-65" x="304.1875"/>
      <use xlink:href="#DejaVuSans-77" x="365.710938"/>
      <use xlink:href="#DejaVuSans-61" x="447.498047"/>
      <use xlink:href="#DejaVuSans-72" x="508.777344"/>
      <use xlink:href="#DejaVuSans-64" x="548.140625"/>
      <use xlink:href="#DejaVuSans-73" x="611.617188"/>
     </g>
    </g>
   </g>
   <g id="PolyCollection_1"/>
   <g id="PolyCollection_2">
    <defs>
     <path id="me26b7296ac" d="M 89.177727 -73.880648 
L 89.177727 -71.604822 
L 90.930796 -71.045732 
L 94.436934 -69.473302 
L 97.943071 -69.216312 
L 101.449209 -70.511008 
L 104.955346 -70.686225 
L 108.461484 -69.087372 
L 111.967621 -69.079091 
L 115.473759 -70.02342 
L 118.979896 -70.635425 
L 122.486034 -70.436916 
L 125.992171 -69.700832 
L 129.498309 -75.107246 
L 133.004446 -80.115064 
L 136.510584 -81.798276 
L 140.016721 -79.189122 
L 143.522859 -79.000136 
L 147.028996 -77.820897 
L 150.535134 -82.232653 
L 154.041271 -96.27902 
L 157.547409 -99.764398 
L 161.053546 -102.41152 
L 164.559684 -108.660585 
L 168.065821 -114.560444 
L 171.571959 -115.984759 
L 175.078096 -120.470994 
L 178.584234 -129.179488 
L 182.090371 -129.51088 
L 185.596509 -128.23746 
L 189.102647 -147.549607 
L 192.608784 -182.03066 
L 196.114922 -208.240583 
L 199.621059 -203.384155 
L 203.127197 -214.839348 
L 206.633334 -223.553428 
L 211.89254 -215.758319 
L 217.151747 -265.662956 
L 220.657884 -304.240263 
L 224.164022 -290.764727 
L 227.670159 -278.95603 
L 231.176297 -287.303837 
L 234.682434 -288.682532 
L 238.188572 -280.441697 
L 241.694709 -282.964987 
L 245.200847 -291.01893 
L 248.706984 -300.766268 
L 252.213122 -307.320666 
L 255.719259 -310.713882 
L 259.225397 -313.912522 
L 262.731534 -315.630102 
L 266.237672 -317.258051 
L 269.743809 -317.262172 
L 273.249947 -317.824627 
L 276.756084 -319.3601 
L 280.262222 -319.553549 
L 283.768359 -318.256599 
L 287.274497 -318.054676 
L 290.780635 -319.417135 
L 294.286772 -320.379206 
L 297.79291 -320.615626 
L 301.299047 -321.734413 
L 304.805185 -323.19929 
L 308.311322 -322.088351 
L 311.81746 -322.095178 
L 315.323597 -322.327485 
L 320.582803 -322.176443 
L 325.84201 -322.023036 
L 329.348147 -320.653116 
L 332.854285 -320.742244 
L 336.360422 -321.032908 
L 339.86656 -319.965852 
L 343.372697 -318.823747 
L 346.878835 -319.629 
L 350.384972 -320.59949 
L 353.89111 -321.034686 
L 357.397247 -320.872882 
L 360.903385 -320.470568 
L 364.409522 -321.157925 
L 367.91566 -321.665294 
L 371.421797 -321.144279 
L 374.927935 -320.847678 
L 378.434072 -321.562759 
L 381.94021 -321.630185 
L 385.446347 -321.855116 
L 388.952485 -321.718099 
L 392.458623 -321.297045 
L 395.96476 -321.582536 
L 399.470898 -321.836228 
L 402.977035 -322.164977 
L 406.483173 -322.406005 
L 409.98931 -322.940689 
L 413.495448 -323.408349 
L 417.001585 -322.941779 
L 422.260791 -322.43874 
L 427.519998 -322.538244 
L 431.026135 -322.487703 
L 434.532273 -322.983761 
L 434.532273 -322.983761 
L 434.532273 -322.983761 
L 431.026135 -322.686317 
L 427.519998 -322.954173 
L 422.260791 -322.693816 
L 417.001585 -322.979539 
L 413.495448 -323.436414 
L 409.98931 -323.566658 
L 406.483173 -323.818695 
L 402.977035 -323.770351 
L 399.470898 -323.659296 
L 395.96476 -323.705731 
L 392.458623 -323.507157 
L 388.952485 -323.465793 
L 385.446347 -323.802181 
L 381.94021 -323.860909 
L 378.434072 -323.691018 
L 374.927935 -323.629298 
L 371.421797 -323.68672 
L 367.91566 -323.723251 
L 364.409522 -323.757903 
L 360.903385 -323.742912 
L 357.397247 -323.735606 
L 353.89111 -323.748849 
L 350.384972 -323.799297 
L 346.878835 -323.773505 
L 343.372697 -323.787569 
L 339.86656 -323.834228 
L 336.360422 -323.782412 
L 332.854285 -323.593973 
L 329.348147 -323.470927 
L 325.84201 -323.284731 
L 320.582803 -323.266368 
L 315.323597 -323.41741 
L 311.81746 -323.042543 
L 308.311322 -323.035716 
L 304.805185 -323.19929 
L 301.299047 -323.004187 
L 297.79291 -323.172949 
L 294.286772 -323.254106 
L 290.780635 -323.167244 
L 287.274497 -323.159056 
L 283.768359 -323.036064 
L 280.262222 -323.098078 
L 276.756084 -322.963868 
L 273.249947 -322.829371 
L 269.743809 -322.76844 
L 266.237672 -322.226844 
L 262.731534 -322.344911 
L 259.225397 -322.623004 
L 255.719259 -322.655453 
L 252.213122 -322.460465 
L 248.706984 -322.117375 
L 245.200847 -321.954318 
L 241.694709 -321.471938 
L 238.188572 -321.365352 
L 234.682434 -321.261202 
L 231.176297 -320.571 
L 227.670159 -320.997675 
L 224.164022 -319.870593 
L 220.657884 -319.19965 
L 217.151747 -273.104553 
L 211.89254 -225.49219 
L 206.633334 -233.287299 
L 203.127197 -214.839348 
L 199.621059 -208.761718 
L 196.114922 -213.618146 
L 192.608784 -206.496044 
L 189.102647 -210.544377 
L 185.596509 -207.728785 
L 182.090371 -201.521757 
L 178.584234 -199.227264 
L 175.078096 -197.858678 
L 171.571959 -190.553089 
L 168.065821 -181.196088 
L 164.559684 -172.287979 
L 161.053546 -164.700707 
L 157.547409 -155.090914 
L 154.041271 -153.162076 
L 150.535134 -155.841336 
L 147.028996 -145.080652 
L 143.522859 -130.03713 
L 140.016721 -129.912165 
L 136.510584 -130.427315 
L 133.004446 -131.38488 
L 129.498309 -128.628785 
L 125.992171 -120.889427 
L 122.486034 -111.40656 
L 118.979896 -108.191951 
L 115.473759 -111.423268 
L 111.967621 -107.729199 
L 108.461484 -104.273033 
L 104.955346 -101.117792 
L 101.449209 -96.703477 
L 97.943071 -92.002468 
L 94.436934 -84.630536 
L 90.930796 -77.344695 
L 89.177727 -73.880648 
z
" style="stroke: #ff0000; stroke-opacity: 0.2"/>
    </defs>
    <g clip-path="url(#p69bdfd3f85)">
     <use xlink:href="#me26b7296ac" x="0" y="345.6" style="fill: #ff0000; fill-opacity: 0.2; stroke: #ff0000; stroke-opacity: 0.2"/>
    </g>
   </g>
   <g id="line2d_14">
    <path d="M 89.177727 273.551362 
L 90.930796 272.29184 
L 94.436934 268.827681 
L 97.943071 266.728547 
L 101.449209 267.103291 
L 104.955346 267.407665 
L 108.461484 266.334556 
L 111.967621 265.418806 
L 115.473759 264.635475 
L 118.979896 262.428096 
L 122.486034 259.636277 
L 125.992171 256.93359 
L 129.498309 252.022943 
L 133.004446 247.974036 
L 136.510584 244.24517 
L 140.016721 242.484924 
L 143.522859 242.081904 
L 147.028996 238.761398 
L 150.535134 232.083178 
L 154.041271 221.348724 
L 157.547409 212.287635 
L 161.053546 207.574217 
L 164.559684 210.570952 
L 168.065821 208.533866 
L 171.571959 197.455626 
L 175.078096 185.71304 
L 178.584234 182.83599 
L 182.090371 176.978962 
L 185.596509 162.735001 
L 189.102647 157.848393 
L 192.608784 152.535817 
L 196.114922 136.821664 
L 199.621059 141.678092 
L 203.127197 130.760652 
L 206.633334 114.586621 
L 211.89254 122.38173 
L 217.151747 74.807267 
L 220.657884 31.522334 
L 224.164022 33.599326 
L 227.670159 33.935095 
L 231.176297 32.390978 
L 234.682434 30.546123 
L 238.188572 32.475367 
L 241.694709 33.864932 
L 245.200847 30.810546 
L 248.706984 27.522632 
L 252.213122 25.926722 
L 255.719259 25.689181 
L 259.225397 25.995075 
L 262.731534 25.583415 
L 266.237672 24.961288 
L 269.743809 24.927996 
L 273.249947 24.642273 
L 276.756084 24.03837 
L 280.262222 24.100422 
L 283.768359 24.08959 
L 287.274497 23.6721 
L 290.780635 23.242633 
L 294.286772 23.193245 
L 297.79291 23.328136 
L 301.299047 22.951668 
L 304.805185 22.40071 
L 308.311322 22.902628 
L 311.81746 22.895801 
L 315.323597 22.807198 
L 320.582803 22.95824 
L 325.84201 23.471824 
L 329.348147 24.178231 
L 332.854285 23.502642 
L 336.360422 22.912377 
L 339.86656 22.884629 
L 343.372697 23.005069 
L 346.878835 22.926317 
L 350.384972 23.044368 
L 353.89111 22.967804 
L 357.397247 22.801322 
L 360.903385 22.734646 
L 364.409522 22.630504 
L 367.91566 22.706852 
L 371.421797 22.702089 
L 374.927935 22.82839 
L 378.434072 22.745192 
L 381.94021 22.594576 
L 385.446347 22.558091 
L 388.952485 22.840057 
L 392.458623 22.7787 
L 395.96476 22.397834 
L 399.470898 22.509561 
L 402.977035 22.495103 
L 406.483173 22.35838 
L 409.98931 22.275545 
L 413.495448 22.167328 
L 417.001585 22.646894 
L 422.260791 23.116503 
L 427.519998 22.929015 
L 431.026135 23.012986 
L 434.532273 22.616239 
" clip-path="url(#p69bdfd3f85)" style="fill: none; stroke: #ff0000; stroke-width: 1.5; stroke-linecap: round"/>
   </g>
   <g id="patch_3">
    <path d="M 71.91 289.26 
L 71.91 9 
" style="fill: none; stroke: #ffffff; stroke-width: 1.25; stroke-linejoin: miter; stroke-linecap: square"/>
   </g>
   <g id="patch_4">
    <path d="M 451.8 289.26 
L 451.8 9 
" style="fill: none; stroke: #ffffff; stroke-width: 1.25; stroke-linejoin: miter; stroke-linecap: square"/>
   </g>
   <g id="patch_5">
    <path d="M 71.91 289.26 
L 451.8 289.26 
" style="fill: none; stroke: #ffffff; stroke-width: 1.25; stroke-linejoin: miter; stroke-linecap: square"/>
   </g>
   <g id="patch_6">
    <path d="M 71.91 9 
L 451.8 9 
" style="fill: none; stroke: #ffffff; stroke-width: 1.25; stroke-linejoin: miter; stroke-linecap: square"/>
   </g>
  </g>
 </g>
 <defs>
  <clipPath id="p69bdfd3f85">
   <rect x="71.91" y="9" width="379.89" height="280.26"/>
  </clipPath>
 </defs>
</svg>
