<?xml version="1.0" encoding="utf-8" standalone="no"?>
<!DOCTYPE svg PUBLIC "-//W3C//DTD SVG 1.1//EN"
  "http://www.w3.org/Graphics/SVG/1.1/DTD/svg11.dtd">
<svg xmlns:xlink="http://www.w3.org/1999/xlink" width="460.8pt" height="345.6pt" viewBox="0 0 460.8 345.6" xmlns="http://www.w3.org/2000/svg" version="1.1">
 <metadata>
  <rdf:RDF xmlns:dc="http://purl.org/dc/elements/1.1/" xmlns:cc="http://creativecommons.org/ns#" xmlns:rdf="http://www.w3.org/1999/02/22-rdf-syntax-ns#">
   <cc:Work>
    <dc:type rdf:resource="http://purl.org/dc/dcmitype/StillImage"/>
    <dc:date>2024-02-06T17:58:12.125093</dc:date>
    <dc:format>image/svg+xml</dc:format>
    <dc:creator>
     <cc:Agent>
      <dc:title>Matplotlib v3.7.1, https://matplotlib.org/</dc:title>
     </cc:Agent>
    </dc:creator>
   </cc:Work>
  </rdf:RDF>
 </metadata>
 <defs>
  <style type="text/css">*{stroke-linejoin: round; stroke-linecap: butt}</style>
 </defs>
 <g id="figure_1">
  <g id="patch_1">
   <path d="M 0 345.6 
L 460.8 345.6 
L 460.8 0 
L 0 0 
z
" style="fill: #ffffff"/>
  </g>
  <g id="axes_1">
   <g id="patch_2">
    <path d="M 71.91 288.54 
L 451.8 288.54 
L 451.8 9 
L 71.91 9 
z
" style="fill: #eaeaf2"/>
   </g>
   <g id="matplotlib.axis_1">
    <g id="xtick_1">
     <g id="line2d_1">
      <path d="M 89.177727 288.54 
L 89.177727 9 
" clip-path="url(#p7f133947d8)" style="fill: none; stroke: #ffffff; stroke-linecap: round"/>
     </g>
     <g id="text_1">
      <!-- 0 -->
      <g style="fill: #262626" transform="translate(83.928665 310.577422) scale(0.165 -0.165)">
       <defs>
        <path id="DejaVuSans-30" d="M 2034 4250 
Q 1547 4250 1301 3770 
Q 1056 3291 1056 2328 
Q 1056 1369 1301 889 
Q 1547 409 2034 409 
Q 2525 409 2770 889 
Q 3016 1369 3016 2328 
Q 3016 3291 2770 3770 
Q 2525 4250 2034 4250 
z
M 2034 4750 
Q 2819 4750 3233 4129 
Q 3647 3509 3647 2328 
Q 3647 1150 3233 529 
Q 2819 -91 2034 -91 
Q 1250 -91 836 529 
Q 422 1150 422 2328 
Q 422 3509 836 4129 
Q 1250 4750 2034 4750 
z
" transform="scale(0.015625)"/>
       </defs>
       <use xlink:href="#DejaVuSans-30"/>
      </g>
     </g>
    </g>
    <g id="xtick_2">
     <g id="line2d_2">
      <path d="M 153.709853 288.54 
L 153.709853 9 
" clip-path="url(#p7f133947d8)" style="fill: none; stroke: #ffffff; stroke-linecap: round"/>
     </g>
     <g id="text_2">
      <!-- 2 -->
      <g style="fill: #262626" transform="translate(148.460791 310.577422) scale(0.165 -0.165)">
       <defs>
        <path id="DejaVuSans-32" d="M 1228 531 
L 3431 531 
L 3431 0 
L 469 0 
L 469 531 
Q 828 903 1448 1529 
Q 2069 2156 2228 2338 
Q 2531 2678 2651 2914 
Q 2772 3150 2772 3378 
Q 2772 3750 2511 3984 
Q 2250 4219 1831 4219 
Q 1534 4219 1204 4116 
Q 875 4013 500 3803 
L 500 4441 
Q 881 4594 1212 4672 
Q 1544 4750 1819 4750 
Q 2544 4750 2975 4387 
Q 3406 4025 3406 3419 
Q 3406 3131 3298 2873 
Q 3191 2616 2906 2266 
Q 2828 2175 2409 1742 
Q 1991 1309 1228 531 
z
" transform="scale(0.015625)"/>
       </defs>
       <use xlink:href="#DejaVuSans-32"/>
      </g>
     </g>
    </g>
    <g id="xtick_3">
     <g id="line2d_3">
      <path d="M 218.24198 288.54 
L 218.24198 9 
" clip-path="url(#p7f133947d8)" style="fill: none; stroke: #ffffff; stroke-linecap: round"/>
     </g>
     <g id="text_3">
      <!-- 4 -->
      <g style="fill: #262626" transform="translate(212.992917 310.577422) scale(0.165 -0.165)">
       <defs>
        <path id="DejaVuSans-34" d="M 2419 4116 
L 825 1625 
L 2419 1625 
L 2419 4116 
z
M 2253 4666 
L 3047 4666 
L 3047 1625 
L 3713 1625 
L 3713 1100 
L 3047 1100 
L 3047 0 
L 2419 0 
L 2419 1100 
L 313 1100 
L 313 1709 
L 2253 4666 
z
" transform="scale(0.015625)"/>
       </defs>
       <use xlink:href="#DejaVuSans-34"/>
      </g>
     </g>
    </g>
    <g id="xtick_4">
     <g id="line2d_4">
      <path d="M 282.774106 288.54 
L 282.774106 9 
" clip-path="url(#p7f133947d8)" style="fill: none; stroke: #ffffff; stroke-linecap: round"/>
     </g>
     <g id="text_4">
      <!-- 6 -->
      <g style="fill: #262626" transform="translate(277.525043 310.577422) scale(0.165 -0.165)">
       <defs>
        <path id="DejaVuSans-36" d="M 2113 2584 
Q 1688 2584 1439 2293 
Q 1191 2003 1191 1497 
Q 1191 994 1439 701 
Q 1688 409 2113 409 
Q 2538 409 2786 701 
Q 3034 994 3034 1497 
Q 3034 2003 2786 2293 
Q 2538 2584 2113 2584 
z
M 3366 4563 
L 3366 3988 
Q 3128 4100 2886 4159 
Q 2644 4219 2406 4219 
Q 1781 4219 1451 3797 
Q 1122 3375 1075 2522 
Q 1259 2794 1537 2939 
Q 1816 3084 2150 3084 
Q 2853 3084 3261 2657 
Q 3669 2231 3669 1497 
Q 3669 778 3244 343 
Q 2819 -91 2113 -91 
Q 1303 -91 875 529 
Q 447 1150 447 2328 
Q 447 3434 972 4092 
Q 1497 4750 2381 4750 
Q 2619 4750 2861 4703 
Q 3103 4656 3366 4563 
z
" transform="scale(0.015625)"/>
       </defs>
       <use xlink:href="#DejaVuSans-36"/>
      </g>
     </g>
    </g>
    <g id="xtick_5">
     <g id="line2d_5">
      <path d="M 347.306232 288.54 
L 347.306232 9 
" clip-path="url(#p7f133947d8)" style="fill: none; stroke: #ffffff; stroke-linecap: round"/>
     </g>
     <g id="text_5">
      <!-- 8 -->
      <g style="fill: #262626" transform="translate(342.05717 310.577422) scale(0.165 -0.165)">
       <defs>
        <path id="DejaVuSans-38" d="M 2034 2216 
Q 1584 2216 1326 1975 
Q 1069 1734 1069 1313 
Q 1069 891 1326 650 
Q 1584 409 2034 409 
Q 2484 409 2743 651 
Q 3003 894 3003 1313 
Q 3003 1734 2745 1975 
Q 2488 2216 2034 2216 
z
M 1403 2484 
Q 997 2584 770 2862 
Q 544 3141 544 3541 
Q 544 4100 942 4425 
Q 1341 4750 2034 4750 
Q 2731 4750 3128 4425 
Q 3525 4100 3525 3541 
Q 3525 3141 3298 2862 
Q 3072 2584 2669 2484 
Q 3125 2378 3379 2068 
Q 3634 1759 3634 1313 
Q 3634 634 3220 271 
Q 2806 -91 2034 -91 
Q 1263 -91 848 271 
Q 434 634 434 1313 
Q 434 1759 690 2068 
Q 947 2378 1403 2484 
z
M 1172 3481 
Q 1172 3119 1398 2916 
Q 1625 2713 2034 2713 
Q 2441 2713 2670 2916 
Q 2900 3119 2900 3481 
Q 2900 3844 2670 4047 
Q 2441 4250 2034 4250 
Q 1625 4250 1398 4047 
Q 1172 3844 1172 3481 
z
" transform="scale(0.015625)"/>
       </defs>
       <use xlink:href="#DejaVuSans-38"/>
      </g>
     </g>
    </g>
    <g id="xtick_6">
     <g id="line2d_6">
      <path d="M 411.838358 288.54 
L 411.838358 9 
" clip-path="url(#p7f133947d8)" style="fill: none; stroke: #ffffff; stroke-linecap: round"/>
     </g>
     <g id="text_6">
      <!-- 10 -->
      <g style="fill: #262626" transform="translate(401.340233 310.577422) scale(0.165 -0.165)">
       <defs>
        <path id="DejaVuSans-31" d="M 794 531 
L 1825 531 
L 1825 4091 
L 703 3866 
L 703 4441 
L 1819 4666 
L 2450 4666 
L 2450 531 
L 3481 531 
L 3481 0 
L 794 0 
L 794 531 
z
" transform="scale(0.015625)"/>
       </defs>
       <use xlink:href="#DejaVuSans-31"/>
       <use xlink:href="#DejaVuSans-30" x="63.623047"/>
      </g>
     </g>
    </g>
    <g id="text_7">
     <!-- Time (s) -->
     <g style="fill: #262626" transform="translate(225.262969 331.686094) scale(0.18 -0.18)">
      <defs>
       <path id="DejaVuSans-54" d="M -19 4666 
L 3928 4666 
L 3928 4134 
L 2272 4134 
L 2272 0 
L 1638 0 
L 1638 4134 
L -19 4134 
L -19 4666 
z
" transform="scale(0.015625)"/>
       <path id="DejaVuSans-69" d="M 603 3500 
L 1178 3500 
L 1178 0 
L 603 0 
L 603 3500 
z
M 603 4863 
L 1178 4863 
L 1178 4134 
L 603 4134 
L 603 4863 
z
" transform="scale(0.015625)"/>
       <path id="DejaVuSans-6d" d="M 3328 2828 
Q 3544 3216 3844 3400 
Q 4144 3584 4550 3584 
Q 5097 3584 5394 3201 
Q 5691 2819 5691 2113 
L 5691 0 
L 5113 0 
L 5113 2094 
Q 5113 2597 4934 2840 
Q 4756 3084 4391 3084 
Q 3944 3084 3684 2787 
Q 3425 2491 3425 1978 
L 3425 0 
L 2847 0 
L 2847 2094 
Q 2847 2600 2669 2842 
Q 2491 3084 2119 3084 
Q 1678 3084 1418 2786 
Q 1159 2488 1159 1978 
L 1159 0 
L 581 0 
L 581 3500 
L 1159 3500 
L 1159 2956 
Q 1356 3278 1631 3431 
Q 1906 3584 2284 3584 
Q 2666 3584 2933 3390 
Q 3200 3197 3328 2828 
z
" transform="scale(0.015625)"/>
       <path id="DejaVuSans-65" d="M 3597 1894 
L 3597 1613 
L 953 1613 
Q 991 1019 1311 708 
Q 1631 397 2203 397 
Q 2534 397 2845 478 
Q 3156 559 3463 722 
L 3463 178 
Q 3153 47 2828 -22 
Q 2503 -91 2169 -91 
Q 1331 -91 842 396 
Q 353 884 353 1716 
Q 353 2575 817 3079 
Q 1281 3584 2069 3584 
Q 2775 3584 3186 3129 
Q 3597 2675 3597 1894 
z
M 3022 2063 
Q 3016 2534 2758 2815 
Q 2500 3097 2075 3097 
Q 1594 3097 1305 2825 
Q 1016 2553 972 2059 
L 3022 2063 
z
" transform="scale(0.015625)"/>
       <path id="DejaVuSans-20" transform="scale(0.015625)"/>
       <path id="DejaVuSans-28" d="M 1984 4856 
Q 1566 4138 1362 3434 
Q 1159 2731 1159 2009 
Q 1159 1288 1364 580 
Q 1569 -128 1984 -844 
L 1484 -844 
Q 1016 -109 783 600 
Q 550 1309 550 2009 
Q 550 2706 781 3412 
Q 1013 4119 1484 4856 
L 1984 4856 
z
" transform="scale(0.015625)"/>
       <path id="DejaVuSans-73" d="M 2834 3397 
L 2834 2853 
Q 2591 2978 2328 3040 
Q 2066 3103 1784 3103 
Q 1356 3103 1142 2972 
Q 928 2841 928 2578 
Q 928 2378 1081 2264 
Q 1234 2150 1697 2047 
L 1894 2003 
Q 2506 1872 2764 1633 
Q 3022 1394 3022 966 
Q 3022 478 2636 193 
Q 2250 -91 1575 -91 
Q 1294 -91 989 -36 
Q 684 19 347 128 
L 347 722 
Q 666 556 975 473 
Q 1284 391 1588 391 
Q 1994 391 2212 530 
Q 2431 669 2431 922 
Q 2431 1156 2273 1281 
Q 2116 1406 1581 1522 
L 1381 1569 
Q 847 1681 609 1914 
Q 372 2147 372 2553 
Q 372 3047 722 3315 
Q 1072 3584 1716 3584 
Q 2034 3584 2315 3537 
Q 2597 3491 2834 3397 
z
" transform="scale(0.015625)"/>
       <path id="DejaVuSans-29" d="M 513 4856 
L 1013 4856 
Q 1481 4119 1714 3412 
Q 1947 2706 1947 2009 
Q 1947 1309 1714 600 
Q 1481 -109 1013 -844 
L 513 -844 
Q 928 -128 1133 580 
Q 1338 1288 1338 2009 
Q 1338 2731 1133 3434 
Q 928 4138 513 4856 
z
" transform="scale(0.015625)"/>
      </defs>
      <use xlink:href="#DejaVuSans-54"/>
      <use xlink:href="#DejaVuSans-69" x="57.958984"/>
      <use xlink:href="#DejaVuSans-6d" x="85.742188"/>
      <use xlink:href="#DejaVuSans-65" x="183.154297"/>
      <use xlink:href="#DejaVuSans-20" x="244.677734"/>
      <use xlink:href="#DejaVuSans-28" x="276.464844"/>
      <use xlink:href="#DejaVuSans-73" x="315.478516"/>
      <use xlink:href="#DejaVuSans-29" x="367.578125"/>
     </g>
    </g>
   </g>
   <g id="matplotlib.axis_2">
    <g id="ytick_1">
     <g id="line2d_7">
      <path d="M 71.91 273.215256 
L 451.8 273.215256 
" clip-path="url(#p7f133947d8)" style="fill: none; stroke: #ffffff; stroke-linecap: round"/>
     </g>
     <g id="text_8">
      <!-- 0 -->
      <g style="fill: #262626" transform="translate(51.911875 279.483967) scale(0.165 -0.165)">
       <use xlink:href="#DejaVuSans-30"/>
      </g>
     </g>
    </g>
    <g id="ytick_2">
     <g id="line2d_8">
      <path d="M 71.91 222.676606 
L 451.8 222.676606 
" clip-path="url(#p7f133947d8)" style="fill: none; stroke: #ffffff; stroke-linecap: round"/>
     </g>
     <g id="text_9">
      <!-- 100 -->
      <g style="fill: #262626" transform="translate(30.915625 228.945316) scale(0.165 -0.165)">
       <use xlink:href="#DejaVuSans-31"/>
       <use xlink:href="#DejaVuSans-30" x="63.623047"/>
       <use xlink:href="#DejaVuSans-30" x="127.246094"/>
      </g>
     </g>
    </g>
    <g id="ytick_3">
     <g id="line2d_9">
      <path d="M 71.91 172.137955 
L 451.8 172.137955 
" clip-path="url(#p7f133947d8)" style="fill: none; stroke: #ffffff; stroke-linecap: round"/>
     </g>
     <g id="text_10">
      <!-- 200 -->
      <g style="fill: #262626" transform="translate(30.915625 178.406666) scale(0.165 -0.165)">
       <use xlink:href="#DejaVuSans-32"/>
       <use xlink:href="#DejaVuSans-30" x="63.623047"/>
       <use xlink:href="#DejaVuSans-30" x="127.246094"/>
      </g>
     </g>
    </g>
    <g id="ytick_4">
     <g id="line2d_10">
      <path d="M 71.91 121.599304 
L 451.8 121.599304 
" clip-path="url(#p7f133947d8)" style="fill: none; stroke: #ffffff; stroke-linecap: round"/>
     </g>
     <g id="text_11">
      <!-- 300 -->
      <g style="fill: #262626" transform="translate(30.915625 127.868015) scale(0.165 -0.165)">
       <defs>
        <path id="DejaVuSans-33" d="M 2597 2516 
Q 3050 2419 3304 2112 
Q 3559 1806 3559 1356 
Q 3559 666 3084 287 
Q 2609 -91 1734 -91 
Q 1441 -91 1130 -33 
Q 819 25 488 141 
L 488 750 
Q 750 597 1062 519 
Q 1375 441 1716 441 
Q 2309 441 2620 675 
Q 2931 909 2931 1356 
Q 2931 1769 2642 2001 
Q 2353 2234 1838 2234 
L 1294 2234 
L 1294 2753 
L 1863 2753 
Q 2328 2753 2575 2939 
Q 2822 3125 2822 3475 
Q 2822 3834 2567 4026 
Q 2313 4219 1838 4219 
Q 1578 4219 1281 4162 
Q 984 4106 628 3988 
L 628 4550 
Q 988 4650 1302 4700 
Q 1616 4750 1894 4750 
Q 2613 4750 3031 4423 
Q 3450 4097 3450 3541 
Q 3450 3153 3228 2886 
Q 3006 2619 2597 2516 
z
" transform="scale(0.015625)"/>
       </defs>
       <use xlink:href="#DejaVuSans-33"/>
       <use xlink:href="#DejaVuSans-30" x="63.623047"/>
       <use xlink:href="#DejaVuSans-30" x="127.246094"/>
      </g>
     </g>
    </g>
    <g id="ytick_5">
     <g id="line2d_11">
      <path d="M 71.91 71.060654 
L 451.8 71.060654 
" clip-path="url(#p7f133947d8)" style="fill: none; stroke: #ffffff; stroke-linecap: round"/>
     </g>
     <g id="text_12">
      <!-- 400 -->
      <g style="fill: #262626" transform="translate(30.915625 77.329364) scale(0.165 -0.165)">
       <use xlink:href="#DejaVuSans-34"/>
       <use xlink:href="#DejaVuSans-30" x="63.623047"/>
       <use xlink:href="#DejaVuSans-30" x="127.246094"/>
      </g>
     </g>
    </g>
    <g id="ytick_6">
     <g id="line2d_12">
      <path d="M 71.91 20.522003 
L 451.8 20.522003 
" clip-path="url(#p7f133947d8)" style="fill: none; stroke: #ffffff; stroke-linecap: round"/>
     </g>
     <g id="text_13">
      <!-- 500 -->
      <g style="fill: #262626" transform="translate(30.915625 26.790714) scale(0.165 -0.165)">
       <defs>
        <path id="DejaVuSans-35" d="M 691 4666 
L 3169 4666 
L 3169 4134 
L 1269 4134 
L 1269 2991 
Q 1406 3038 1543 3061 
Q 1681 3084 1819 3084 
Q 2600 3084 3056 2656 
Q 3513 2228 3513 1497 
Q 3513 744 3044 326 
Q 2575 -91 1722 -91 
Q 1428 -91 1123 -41 
Q 819 9 494 109 
L 494 744 
Q 775 591 1075 516 
Q 1375 441 1709 441 
Q 2250 441 2565 725 
Q 2881 1009 2881 1497 
Q 2881 1984 2565 2268 
Q 2250 2553 1709 2553 
Q 1456 2553 1204 2497 
Q 953 2441 691 2322 
L 691 4666 
z
" transform="scale(0.015625)"/>
       </defs>
       <use xlink:href="#DejaVuSans-35"/>
       <use xlink:href="#DejaVuSans-30" x="63.623047"/>
       <use xlink:href="#DejaVuSans-30" x="127.246094"/>
      </g>
     </g>
    </g>
    <g id="text_14">
     <!-- Total rewards -->
     <g style="fill: #262626" transform="translate(23.172188 208.503281) rotate(-90) scale(0.18 -0.18)">
      <defs>
       <path id="DejaVuSans-6f" d="M 1959 3097 
Q 1497 3097 1228 2736 
Q 959 2375 959 1747 
Q 959 1119 1226 758 
Q 1494 397 1959 397 
Q 2419 397 2687 759 
Q 2956 1122 2956 1747 
Q 2956 2369 2687 2733 
Q 2419 3097 1959 3097 
z
M 1959 3584 
Q 2709 3584 3137 3096 
Q 3566 2609 3566 1747 
Q 3566 888 3137 398 
Q 2709 -91 1959 -91 
Q 1206 -91 779 398 
Q 353 888 353 1747 
Q 353 2609 779 3096 
Q 1206 3584 1959 3584 
z
" transform="scale(0.015625)"/>
       <path id="DejaVuSans-74" d="M 1172 4494 
L 1172 3500 
L 2356 3500 
L 2356 3053 
L 1172 3053 
L 1172 1153 
Q 1172 725 1289 603 
Q 1406 481 1766 481 
L 2356 481 
L 2356 0 
L 1766 0 
Q 1100 0 847 248 
Q 594 497 594 1153 
L 594 3053 
L 172 3053 
L 172 3500 
L 594 3500 
L 594 4494 
L 1172 4494 
z
" transform="scale(0.015625)"/>
       <path id="DejaVuSans-61" d="M 2194 1759 
Q 1497 1759 1228 1600 
Q 959 1441 959 1056 
Q 959 750 1161 570 
Q 1363 391 1709 391 
Q 2188 391 2477 730 
Q 2766 1069 2766 1631 
L 2766 1759 
L 2194 1759 
z
M 3341 1997 
L 3341 0 
L 2766 0 
L 2766 531 
Q 2569 213 2275 61 
Q 1981 -91 1556 -91 
Q 1019 -91 701 211 
Q 384 513 384 1019 
Q 384 1609 779 1909 
Q 1175 2209 1959 2209 
L 2766 2209 
L 2766 2266 
Q 2766 2663 2505 2880 
Q 2244 3097 1772 3097 
Q 1472 3097 1187 3025 
Q 903 2953 641 2809 
L 641 3341 
Q 956 3463 1253 3523 
Q 1550 3584 1831 3584 
Q 2591 3584 2966 3190 
Q 3341 2797 3341 1997 
z
" transform="scale(0.015625)"/>
       <path id="DejaVuSans-6c" d="M 603 4863 
L 1178 4863 
L 1178 0 
L 603 0 
L 603 4863 
z
" transform="scale(0.015625)"/>
       <path id="DejaVuSans-72" d="M 2631 2963 
Q 2534 3019 2420 3045 
Q 2306 3072 2169 3072 
Q 1681 3072 1420 2755 
Q 1159 2438 1159 1844 
L 1159 0 
L 581 0 
L 581 3500 
L 1159 3500 
L 1159 2956 
Q 1341 3275 1631 3429 
Q 1922 3584 2338 3584 
Q 2397 3584 2469 3576 
Q 2541 3569 2628 3553 
L 2631 2963 
z
" transform="scale(0.015625)"/>
       <path id="DejaVuSans-77" d="M 269 3500 
L 844 3500 
L 1563 769 
L 2278 3500 
L 2956 3500 
L 3675 769 
L 4391 3500 
L 4966 3500 
L 4050 0 
L 3372 0 
L 2619 2869 
L 1863 0 
L 1184 0 
L 269 3500 
z
" transform="scale(0.015625)"/>
       <path id="DejaVuSans-64" d="M 2906 2969 
L 2906 4863 
L 3481 4863 
L 3481 0 
L 2906 0 
L 2906 525 
Q 2725 213 2448 61 
Q 2172 -91 1784 -91 
Q 1150 -91 751 415 
Q 353 922 353 1747 
Q 353 2572 751 3078 
Q 1150 3584 1784 3584 
Q 2172 3584 2448 3432 
Q 2725 3281 2906 2969 
z
M 947 1747 
Q 947 1113 1208 752 
Q 1469 391 1925 391 
Q 2381 391 2643 752 
Q 2906 1113 2906 1747 
Q 2906 2381 2643 2742 
Q 2381 3103 1925 3103 
Q 1469 3103 1208 2742 
Q 947 2381 947 1747 
z
" transform="scale(0.015625)"/>
      </defs>
      <use xlink:href="#DejaVuSans-54"/>
      <use xlink:href="#DejaVuSans-6f" x="44.083984"/>
      <use xlink:href="#DejaVuSans-74" x="105.265625"/>
      <use xlink:href="#DejaVuSans-61" x="144.474609"/>
      <use xlink:href="#DejaVuSans-6c" x="205.753906"/>
      <use xlink:href="#DejaVuSans-20" x="233.537109"/>
      <use xlink:href="#DejaVuSans-72" x="265.324219"/>
      <use xlink:href="#DejaVuSans-65" x="304.1875"/>
      <use xlink:href="#DejaVuSans-77" x="365.710938"/>
      <use xlink:href="#DejaVuSans-61" x="447.498047"/>
      <use xlink:href="#DejaVuSans-72" x="508.777344"/>
      <use xlink:href="#DejaVuSans-64" x="548.140625"/>
      <use xlink:href="#DejaVuSans-73" x="611.617188"/>
     </g>
    </g>
   </g>
   <g id="PolyCollection_1"/>
   <g id="PolyCollection_2">
    <defs>
     <path id="m81970ce27d" d="M 89.177727 -74.555585 
L 89.177727 -72.285606 
L 90.992012 -71.727952 
L 94.618396 -70.159562 
L 98.255458 -69.903233 
L 102.01842 -71.194602 
L 105.715136 -71.369369 
L 109.35276 -69.774624 
L 113.075273 -69.766364 
L 116.794748 -70.708266 
L 120.588979 -71.318699 
L 124.364896 -71.1207 
L 128.094776 -70.386507 
L 131.860319 -75.779032 
L 135.627967 -80.773985 
L 139.410027 -82.452873 
L 143.237548 -79.850422 
L 147.089736 -79.661922 
L 150.90591 -78.485711 
L 154.747201 -82.886133 
L 158.514652 -96.896414 
L 162.184862 -100.372839 
L 165.85745 -103.013161 
L 169.42768 -109.246172 
L 172.920978 -115.130873 
L 176.411788 -116.551529 
L 179.945746 -121.026238 
L 183.344846 -129.712361 
L 186.62451 -130.0429 
L 189.974499 -128.772752 
L 193.355782 -148.035286 
L 196.616361 -182.427755 
L 199.840102 -208.570344 
L 203.126282 -203.726392 
L 206.415594 -215.152156 
L 209.756209 -223.84385 
L 214.601418 -216.068767 
L 219.485768 -265.845196 
L 222.977035 -304.323397 
L 226.607004 -290.88248 
L 230.275403 -279.10412 
L 233.935793 -287.430481 
L 237.654664 -288.805634 
L 241.2999 -280.58597 
L 244.933227 -283.102778 
L 248.649221 -291.136029 
L 252.353264 -300.858327 
L 256.016177 -307.395885 
L 259.666175 -310.780385 
L 263.292005 -313.970807 
L 266.86007 -315.683974 
L 270.45419 -317.307741 
L 274.077282 -317.311852 
L 277.626699 -317.872862 
L 281.134468 -319.40439 
L 284.831972 -319.597342 
L 288.389359 -318.303724 
L 291.745787 -318.10232 
L 295.199498 -319.461279 
L 298.687611 -320.420878 
L 302.097165 -320.65669 
L 305.353747 -321.772603 
L 308.613914 -323.233717 
L 311.90281 -322.125632 
L 315.203342 -322.132441 
L 318.396846 -322.364151 
L 323.051358 -322.213498 
L 327.741472 -322.060484 
L 331.008008 -320.694084 
L 334.47112 -320.782983 
L 337.965341 -321.0729 
L 341.489749 -320.008586 
L 345.058407 -318.869415 
L 348.670701 -319.672599 
L 352.399577 -320.640596 
L 356.073749 -321.074674 
L 359.807017 -320.913286 
L 363.488625 -320.512006 
L 367.041542 -321.197596 
L 370.62827 -321.703662 
L 374.183134 -321.183986 
L 377.753757 -320.888146 
L 381.352797 -321.601391 
L 384.935985 -321.668643 
L 388.440388 -321.892996 
L 391.897949 -321.756332 
L 395.301507 -321.336359 
L 398.709599 -321.621117 
L 402.159968 -321.874157 
L 405.553155 -322.202061 
L 408.935011 -322.44247 
L 412.355116 -322.97578 
L 415.560741 -323.442239 
L 418.801222 -322.976868 
L 423.583858 -322.475121 
L 428.204286 -322.574369 
L 431.361112 -322.523958 
L 434.532273 -323.018741 
L 434.532273 -323.018741 
L 434.532273 -323.018741 
L 431.361112 -322.722061 
L 428.204286 -322.989229 
L 423.583858 -322.729542 
L 418.801222 -323.014531 
L 415.560741 -323.470232 
L 412.355116 -323.600141 
L 408.935011 -323.851531 
L 405.553155 -323.803311 
L 402.159968 -323.692541 
L 398.709599 -323.738857 
L 395.301507 -323.540793 
L 391.897949 -323.499536 
L 388.440388 -323.835059 
L 384.935985 -323.893636 
L 381.352797 -323.724182 
L 377.753757 -323.66262 
L 374.183134 -323.719894 
L 370.62827 -323.756332 
L 367.041542 -323.790895 
L 363.488625 -323.775942 
L 359.807017 -323.768655 
L 356.073749 -323.781865 
L 352.399577 -323.832183 
L 348.670701 -323.806457 
L 345.058407 -323.820484 
L 341.489749 -323.867024 
L 337.965341 -323.815341 
L 334.47112 -323.627386 
L 331.008008 -323.504656 
L 327.741472 -323.318938 
L 323.051358 -323.300623 
L 318.396846 -323.451277 
L 315.203342 -323.077373 
L 311.90281 -323.070563 
L 308.613914 -323.233717 
L 305.353747 -323.039116 
L 302.097165 -323.207444 
L 298.687611 -323.288393 
L 295.199498 -323.201753 
L 291.745787 -323.193586 
L 288.389359 -323.07091 
L 284.831972 -323.132765 
L 281.134468 -322.9989 
L 277.626699 -322.864749 
L 274.077282 -322.803974 
L 270.45419 -322.26377 
L 266.86007 -322.381533 
L 263.292005 -322.658911 
L 259.666175 -322.691277 
L 256.016177 -322.496791 
L 252.353264 -322.154581 
L 248.649221 -321.991944 
L 244.933227 -321.510803 
L 241.2999 -321.404491 
L 237.654664 -321.300608 
L 233.935793 -320.612179 
L 230.275403 -321.037758 
L 226.607004 -319.913571 
L 222.977035 -319.244352 
L 219.485768 -273.267675 
L 214.601418 -225.77763 
L 209.756209 -233.552714 
L 206.415594 -215.152156 
L 203.126282 -209.09014 
L 199.840102 -213.934092 
L 196.616361 -206.830286 
L 193.355782 -210.868219 
L 189.974499 -208.05986 
L 186.62451 -201.868779 
L 183.344846 -199.580181 
L 179.945746 -198.215111 
L 176.411788 -190.92829 
L 172.920978 -181.595328 
L 169.42768 -172.710104 
L 165.85745 -165.142323 
L 162.184862 -155.557219 
L 158.514652 -153.633336 
L 154.747201 -156.305713 
L 150.90591 -145.572674 
L 147.089736 -130.567799 
L 143.237548 -130.443155 
L 139.410027 -130.956982 
L 135.627967 -131.912087 
L 131.860319 -129.163072 
L 128.094776 -121.443597 
L 124.364896 -111.985092 
L 120.588979 -108.778742 
L 116.794748 -112.001757 
L 113.075273 -108.317178 
L 109.35276 -104.869891 
L 105.715136 -101.722756 
L 102.01842 -97.319781 
L 98.255458 -92.63085 
L 94.618396 -85.277856 
L 90.992012 -78.010733 
L 89.177727 -74.555585 
z
" style="stroke: #ff0000; stroke-opacity: 0.2"/>
    </defs>
    <g clip-path="url(#p7f133947d8)">
     <use xlink:href="#m81970ce27d" x="0" y="345.6" style="fill: #ff0000; fill-opacity: 0.2; stroke: #ff0000; stroke-opacity: 0.2"/>
    </g>
   </g>
   <g id="line2d_13">
    <path d="M 89.177727 272.871718 
L 90.992012 271.615431 
L 94.618396 268.160173 
L 98.255458 266.066432 
L 102.01842 266.440213 
L 105.715136 266.743804 
L 109.35276 265.673453 
L 113.075273 264.760055 
L 116.794748 263.978736 
L 120.588979 261.777028 
L 124.364896 258.992381 
L 128.094776 256.296638 
L 131.860319 251.398607 
L 135.627967 247.360101 
L 139.410027 243.640815 
L 143.237548 241.885091 
L 147.089736 241.483107 
L 150.90591 238.171131 
L 154.747201 231.510067 
L 158.514652 220.803191 
L 162.184862 211.76538 
L 165.85745 207.064071 
L 169.42768 210.053107 
L 172.920978 208.021255 
L 176.411788 196.971475 
L 179.945746 185.259057 
L 183.344846 182.389398 
L 186.62451 176.547417 
L 189.974499 162.340049 
L 193.355782 157.465995 
L 196.616361 152.167068 
L 199.840102 136.493284 
L 203.126282 141.337236 
L 206.415594 130.447844 
L 209.756209 114.315364 
L 214.601418 122.090447 
L 219.485768 74.638205 
L 222.977035 31.464474 
L 226.607004 33.53613 
L 230.275403 33.871036 
L 233.935793 32.330886 
L 237.654664 30.49077 
L 241.2999 32.415058 
L 244.933227 33.801053 
L 248.649221 30.754514 
L 252.353264 27.475046 
L 256.016177 25.883236 
L 259.666175 25.646306 
L 263.292005 25.951414 
L 266.86007 25.540811 
L 270.45419 24.920283 
L 274.077282 24.887077 
L 277.626699 24.602087 
L 281.134468 23.999735 
L 284.831972 24.061629 
L 288.389359 24.050825 
L 291.745787 23.634407 
L 295.199498 23.206043 
L 298.687611 23.156782 
L 302.097165 23.291326 
L 305.353747 22.915826 
L 308.613914 22.366283 
L 311.90281 22.866911 
L 315.203342 22.860102 
L 318.396846 22.771727 
L 323.051358 22.922381 
L 327.741472 23.434646 
L 331.008008 24.139238 
L 334.47112 23.465384 
L 337.965341 22.876635 
L 341.489749 22.848959 
L 345.058407 22.96909 
L 348.670701 22.890539 
L 352.399577 23.008288 
L 356.073749 22.93192 
L 359.807017 22.765866 
L 363.488625 22.699361 
L 367.041542 22.595486 
L 370.62827 22.671638 
L 374.183134 22.666888 
L 377.753757 22.792864 
L 381.352797 22.70988 
L 384.935985 22.559651 
L 388.440388 22.52326 
L 391.897949 22.804501 
L 395.301507 22.743302 
L 398.709599 22.363414 
L 402.159968 22.474854 
L 405.553155 22.460433 
L 408.935011 22.324062 
L 412.355116 22.24144 
L 415.560741 22.133501 
L 418.801222 22.611835 
L 423.583858 23.080237 
L 428.204286 22.893231 
L 431.361112 22.976986 
L 434.532273 22.581259 
" clip-path="url(#p7f133947d8)" style="fill: none; stroke: #ff0000; stroke-width: 1.5; stroke-linecap: round"/>
   </g>
   <g id="patch_3">
    <path d="M 71.91 288.54 
L 71.91 9 
" style="fill: none; stroke: #ffffff; stroke-width: 1.25; stroke-linejoin: miter; stroke-linecap: square"/>
   </g>
   <g id="patch_4">
    <path d="M 451.8 288.54 
L 451.8 9 
" style="fill: none; stroke: #ffffff; stroke-width: 1.25; stroke-linejoin: miter; stroke-linecap: square"/>
   </g>
   <g id="patch_5">
    <path d="M 71.91 288.54 
L 451.8 288.54 
" style="fill: none; stroke: #ffffff; stroke-width: 1.25; stroke-linejoin: miter; stroke-linecap: square"/>
   </g>
   <g id="patch_6">
    <path d="M 71.91 9 
L 451.8 9 
" style="fill: none; stroke: #ffffff; stroke-width: 1.25; stroke-linejoin: miter; stroke-linecap: square"/>
   </g>
  </g>
 </g>
 <defs>
  <clipPath id="p7f133947d8">
   <rect x="71.91" y="9" width="379.89" height="279.54"/>
  </clipPath>
 </defs>
</svg>
