<?xml version="1.0" encoding="utf-8" standalone="no"?>
<!DOCTYPE svg PUBLIC "-//W3C//DTD SVG 1.1//EN"
  "http://www.w3.org/Graphics/SVG/1.1/DTD/svg11.dtd">
<svg xmlns:xlink="http://www.w3.org/1999/xlink" width="460.8pt" height="345.6pt" viewBox="0 0 460.8 345.6" xmlns="http://www.w3.org/2000/svg" version="1.1">
 <metadata>
  <rdf:RDF xmlns:dc="http://purl.org/dc/elements/1.1/" xmlns:cc="http://creativecommons.org/ns#" xmlns:rdf="http://www.w3.org/1999/02/22-rdf-syntax-ns#">
   <cc:Work>
    <dc:type rdf:resource="http://purl.org/dc/dcmitype/StillImage"/>
    <dc:date>2024-02-06T17:55:12.286625</dc:date>
    <dc:format>image/svg+xml</dc:format>
    <dc:creator>
     <cc:Agent>
      <dc:title>Matplotlib v3.7.1, https://matplotlib.org/</dc:title>
     </cc:Agent>
    </dc:creator>
   </cc:Work>
  </rdf:RDF>
 </metadata>
 <defs>
  <style type="text/css">*{stroke-linejoin: round; stroke-linecap: butt}</style>
 </defs>
 <g id="figure_1">
  <g id="patch_1">
   <path d="M 0 345.6 
L 460.8 345.6 
L 460.8 0 
L 0 0 
z
" style="fill: #ffffff"/>
  </g>
  <g id="axes_1">
   <g id="patch_2">
    <path d="M 71.91 288.54 
L 451.8 288.54 
L 451.8 9 
L 71.91 9 
z
" style="fill: #eaeaf2"/>
   </g>
   <g id="matplotlib.axis_1">
    <g id="xtick_1">
     <g id="line2d_1">
      <path d="M 89.177727 288.54 
L 89.177727 9 
" clip-path="url(#pd018d3f0c8)" style="fill: none; stroke: #ffffff; stroke-linecap: round"/>
     </g>
     <g id="text_1">
      <!-- 0 -->
      <g style="fill: #262626" transform="translate(83.928665 310.577422) scale(0.165 -0.165)">
       <defs>
        <path id="DejaVuSans-30" d="M 2034 4250 
Q 1547 4250 1301 3770 
Q 1056 3291 1056 2328 
Q 1056 1369 1301 889 
Q 1547 409 2034 409 
Q 2525 409 2770 889 
Q 3016 1369 3016 2328 
Q 3016 3291 2770 3770 
Q 2525 4250 2034 4250 
z
M 2034 4750 
Q 2819 4750 3233 4129 
Q 3647 3509 3647 2328 
Q 3647 1150 3233 529 
Q 2819 -91 2034 -91 
Q 1250 -91 836 529 
Q 422 1150 422 2328 
Q 422 3509 836 4129 
Q 1250 4750 2034 4750 
z
" transform="scale(0.015625)"/>
       </defs>
       <use xlink:href="#DejaVuSans-30"/>
      </g>
     </g>
    </g>
    <g id="xtick_2">
     <g id="line2d_2">
      <path d="M 153.709853 288.54 
L 153.709853 9 
" clip-path="url(#pd018d3f0c8)" style="fill: none; stroke: #ffffff; stroke-linecap: round"/>
     </g>
     <g id="text_2">
      <!-- 2 -->
      <g style="fill: #262626" transform="translate(148.460791 310.577422) scale(0.165 -0.165)">
       <defs>
        <path id="DejaVuSans-32" d="M 1228 531 
L 3431 531 
L 3431 0 
L 469 0 
L 469 531 
Q 828 903 1448 1529 
Q 2069 2156 2228 2338 
Q 2531 2678 2651 2914 
Q 2772 3150 2772 3378 
Q 2772 3750 2511 3984 
Q 2250 4219 1831 4219 
Q 1534 4219 1204 4116 
Q 875 4013 500 3803 
L 500 4441 
Q 881 4594 1212 4672 
Q 1544 4750 1819 4750 
Q 2544 4750 2975 4387 
Q 3406 4025 3406 3419 
Q 3406 3131 3298 2873 
Q 3191 2616 2906 2266 
Q 2828 2175 2409 1742 
Q 1991 1309 1228 531 
z
" transform="scale(0.015625)"/>
       </defs>
       <use xlink:href="#DejaVuSans-32"/>
      </g>
     </g>
    </g>
    <g id="xtick_3">
     <g id="line2d_3">
      <path d="M 218.24198 288.54 
L 218.24198 9 
" clip-path="url(#pd018d3f0c8)" style="fill: none; stroke: #ffffff; stroke-linecap: round"/>
     </g>
     <g id="text_3">
      <!-- 4 -->
      <g style="fill: #262626" transform="translate(212.992917 310.577422) scale(0.165 -0.165)">
       <defs>
        <path id="DejaVuSans-34" d="M 2419 4116 
L 825 1625 
L 2419 1625 
L 2419 4116 
z
M 2253 4666 
L 3047 4666 
L 3047 1625 
L 3713 1625 
L 3713 1100 
L 3047 1100 
L 3047 0 
L 2419 0 
L 2419 1100 
L 313 1100 
L 313 1709 
L 2253 4666 
z
" transform="scale(0.015625)"/>
       </defs>
       <use xlink:href="#DejaVuSans-34"/>
      </g>
     </g>
    </g>
    <g id="xtick_4">
     <g id="line2d_4">
      <path d="M 282.774106 288.54 
L 282.774106 9 
" clip-path="url(#pd018d3f0c8)" style="fill: none; stroke: #ffffff; stroke-linecap: round"/>
     </g>
     <g id="text_4">
      <!-- 6 -->
      <g style="fill: #262626" transform="translate(277.525043 310.577422) scale(0.165 -0.165)">
       <defs>
        <path id="DejaVuSans-36" d="M 2113 2584 
Q 1688 2584 1439 2293 
Q 1191 2003 1191 1497 
Q 1191 994 1439 701 
Q 1688 409 2113 409 
Q 2538 409 2786 701 
Q 3034 994 3034 1497 
Q 3034 2003 2786 2293 
Q 2538 2584 2113 2584 
z
M 3366 4563 
L 3366 3988 
Q 3128 4100 2886 4159 
Q 2644 4219 2406 4219 
Q 1781 4219 1451 3797 
Q 1122 3375 1075 2522 
Q 1259 2794 1537 2939 
Q 1816 3084 2150 3084 
Q 2853 3084 3261 2657 
Q 3669 2231 3669 1497 
Q 3669 778 3244 343 
Q 2819 -91 2113 -91 
Q 1303 -91 875 529 
Q 447 1150 447 2328 
Q 447 3434 972 4092 
Q 1497 4750 2381 4750 
Q 2619 4750 2861 4703 
Q 3103 4656 3366 4563 
z
" transform="scale(0.015625)"/>
       </defs>
       <use xlink:href="#DejaVuSans-36"/>
      </g>
     </g>
    </g>
    <g id="xtick_5">
     <g id="line2d_5">
      <path d="M 347.306232 288.54 
L 347.306232 9 
" clip-path="url(#pd018d3f0c8)" style="fill: none; stroke: #ffffff; stroke-linecap: round"/>
     </g>
     <g id="text_5">
      <!-- 8 -->
      <g style="fill: #262626" transform="translate(342.05717 310.577422) scale(0.165 -0.165)">
       <defs>
        <path id="DejaVuSans-38" d="M 2034 2216 
Q 1584 2216 1326 1975 
Q 1069 1734 1069 1313 
Q 1069 891 1326 650 
Q 1584 409 2034 409 
Q 2484 409 2743 651 
Q 3003 894 3003 1313 
Q 3003 1734 2745 1975 
Q 2488 2216 2034 2216 
z
M 1403 2484 
Q 997 2584 770 2862 
Q 544 3141 544 3541 
Q 544 4100 942 4425 
Q 1341 4750 2034 4750 
Q 2731 4750 3128 4425 
Q 3525 4100 3525 3541 
Q 3525 3141 3298 2862 
Q 3072 2584 2669 2484 
Q 3125 2378 3379 2068 
Q 3634 1759 3634 1313 
Q 3634 634 3220 271 
Q 2806 -91 2034 -91 
Q 1263 -91 848 271 
Q 434 634 434 1313 
Q 434 1759 690 2068 
Q 947 2378 1403 2484 
z
M 1172 3481 
Q 1172 3119 1398 2916 
Q 1625 2713 2034 2713 
Q 2441 2713 2670 2916 
Q 2900 3119 2900 3481 
Q 2900 3844 2670 4047 
Q 2441 4250 2034 4250 
Q 1625 4250 1398 4047 
Q 1172 3844 1172 3481 
z
" transform="scale(0.015625)"/>
       </defs>
       <use xlink:href="#DejaVuSans-38"/>
      </g>
     </g>
    </g>
    <g id="xtick_6">
     <g id="line2d_6">
      <path d="M 411.838358 288.54 
L 411.838358 9 
" clip-path="url(#pd018d3f0c8)" style="fill: none; stroke: #ffffff; stroke-linecap: round"/>
     </g>
     <g id="text_6">
      <!-- 10 -->
      <g style="fill: #262626" transform="translate(401.340233 310.577422) scale(0.165 -0.165)">
       <defs>
        <path id="DejaVuSans-31" d="M 794 531 
L 1825 531 
L 1825 4091 
L 703 3866 
L 703 4441 
L 1819 4666 
L 2450 4666 
L 2450 531 
L 3481 531 
L 3481 0 
L 794 0 
L 794 531 
z
" transform="scale(0.015625)"/>
       </defs>
       <use xlink:href="#DejaVuSans-31"/>
       <use xlink:href="#DejaVuSans-30" x="63.623047"/>
      </g>
     </g>
    </g>
    <g id="text_7">
     <!-- Time (s) -->
     <g style="fill: #262626" transform="translate(225.262969 331.686094) scale(0.18 -0.18)">
      <defs>
       <path id="DejaVuSans-54" d="M -19 4666 
L 3928 4666 
L 3928 4134 
L 2272 4134 
L 2272 0 
L 1638 0 
L 1638 4134 
L -19 4134 
L -19 4666 
z
" transform="scale(0.015625)"/>
       <path id="DejaVuSans-69" d="M 603 3500 
L 1178 3500 
L 1178 0 
L 603 0 
L 603 3500 
z
M 603 4863 
L 1178 4863 
L 1178 4134 
L 603 4134 
L 603 4863 
z
" transform="scale(0.015625)"/>
       <path id="DejaVuSans-6d" d="M 3328 2828 
Q 3544 3216 3844 3400 
Q 4144 3584 4550 3584 
Q 5097 3584 5394 3201 
Q 5691 2819 5691 2113 
L 5691 0 
L 5113 0 
L 5113 2094 
Q 5113 2597 4934 2840 
Q 4756 3084 4391 3084 
Q 3944 3084 3684 2787 
Q 3425 2491 3425 1978 
L 3425 0 
L 2847 0 
L 2847 2094 
Q 2847 2600 2669 2842 
Q 2491 3084 2119 3084 
Q 1678 3084 1418 2786 
Q 1159 2488 1159 1978 
L 1159 0 
L 581 0 
L 581 3500 
L 1159 3500 
L 1159 2956 
Q 1356 3278 1631 3431 
Q 1906 3584 2284 3584 
Q 2666 3584 2933 3390 
Q 3200 3197 3328 2828 
z
" transform="scale(0.015625)"/>
       <path id="DejaVuSans-65" d="M 3597 1894 
L 3597 1613 
L 953 1613 
Q 991 1019 1311 708 
Q 1631 397 2203 397 
Q 2534 397 2845 478 
Q 3156 559 3463 722 
L 3463 178 
Q 3153 47 2828 -22 
Q 2503 -91 2169 -91 
Q 1331 -91 842 396 
Q 353 884 353 1716 
Q 353 2575 817 3079 
Q 1281 3584 2069 3584 
Q 2775 3584 3186 3129 
Q 3597 2675 3597 1894 
z
M 3022 2063 
Q 3016 2534 2758 2815 
Q 2500 3097 2075 3097 
Q 1594 3097 1305 2825 
Q 1016 2553 972 2059 
L 3022 2063 
z
" transform="scale(0.015625)"/>
       <path id="DejaVuSans-20" transform="scale(0.015625)"/>
       <path id="DejaVuSans-28" d="M 1984 4856 
Q 1566 4138 1362 3434 
Q 1159 2731 1159 2009 
Q 1159 1288 1364 580 
Q 1569 -128 1984 -844 
L 1484 -844 
Q 1016 -109 783 600 
Q 550 1309 550 2009 
Q 550 2706 781 3412 
Q 1013 4119 1484 4856 
L 1984 4856 
z
" transform="scale(0.015625)"/>
       <path id="DejaVuSans-73" d="M 2834 3397 
L 2834 2853 
Q 2591 2978 2328 3040 
Q 2066 3103 1784 3103 
Q 1356 3103 1142 2972 
Q 928 2841 928 2578 
Q 928 2378 1081 2264 
Q 1234 2150 1697 2047 
L 1894 2003 
Q 2506 1872 2764 1633 
Q 3022 1394 3022 966 
Q 3022 478 2636 193 
Q 2250 -91 1575 -91 
Q 1294 -91 989 -36 
Q 684 19 347 128 
L 347 722 
Q 666 556 975 473 
Q 1284 391 1588 391 
Q 1994 391 2212 530 
Q 2431 669 2431 922 
Q 2431 1156 2273 1281 
Q 2116 1406 1581 1522 
L 1381 1569 
Q 847 1681 609 1914 
Q 372 2147 372 2553 
Q 372 3047 722 3315 
Q 1072 3584 1716 3584 
Q 2034 3584 2315 3537 
Q 2597 3491 2834 3397 
z
" transform="scale(0.015625)"/>
       <path id="DejaVuSans-29" d="M 513 4856 
L 1013 4856 
Q 1481 4119 1714 3412 
Q 1947 2706 1947 2009 
Q 1947 1309 1714 600 
Q 1481 -109 1013 -844 
L 513 -844 
Q 928 -128 1133 580 
Q 1338 1288 1338 2009 
Q 1338 2731 1133 3434 
Q 928 4138 513 4856 
z
" transform="scale(0.015625)"/>
      </defs>
      <use xlink:href="#DejaVuSans-54"/>
      <use xlink:href="#DejaVuSans-69" x="57.958984"/>
      <use xlink:href="#DejaVuSans-6d" x="85.742188"/>
      <use xlink:href="#DejaVuSans-65" x="183.154297"/>
      <use xlink:href="#DejaVuSans-20" x="244.677734"/>
      <use xlink:href="#DejaVuSans-28" x="276.464844"/>
      <use xlink:href="#DejaVuSans-73" x="315.478516"/>
      <use xlink:href="#DejaVuSans-29" x="367.578125"/>
     </g>
    </g>
   </g>
   <g id="matplotlib.axis_2">
    <g id="ytick_1">
     <g id="line2d_7">
      <path d="M 71.91 279.965787 
L 451.8 279.965787 
" clip-path="url(#pd018d3f0c8)" style="fill: none; stroke: #ffffff; stroke-linecap: round"/>
     </g>
     <g id="text_8">
      <!-- 0 -->
      <g style="fill: #262626" transform="translate(51.911875 286.234498) scale(0.165 -0.165)">
       <use xlink:href="#DejaVuSans-30"/>
      </g>
     </g>
    </g>
    <g id="ytick_2">
     <g id="line2d_8">
      <path d="M 71.91 228.313902 
L 451.8 228.313902 
" clip-path="url(#pd018d3f0c8)" style="fill: none; stroke: #ffffff; stroke-linecap: round"/>
     </g>
     <g id="text_9">
      <!-- 100 -->
      <g style="fill: #262626" transform="translate(30.915625 234.582613) scale(0.165 -0.165)">
       <use xlink:href="#DejaVuSans-31"/>
       <use xlink:href="#DejaVuSans-30" x="63.623047"/>
       <use xlink:href="#DejaVuSans-30" x="127.246094"/>
      </g>
     </g>
    </g>
    <g id="ytick_3">
     <g id="line2d_9">
      <path d="M 71.91 176.662018 
L 451.8 176.662018 
" clip-path="url(#pd018d3f0c8)" style="fill: none; stroke: #ffffff; stroke-linecap: round"/>
     </g>
     <g id="text_10">
      <!-- 200 -->
      <g style="fill: #262626" transform="translate(30.915625 182.930729) scale(0.165 -0.165)">
       <use xlink:href="#DejaVuSans-32"/>
       <use xlink:href="#DejaVuSans-30" x="63.623047"/>
       <use xlink:href="#DejaVuSans-30" x="127.246094"/>
      </g>
     </g>
    </g>
    <g id="ytick_4">
     <g id="line2d_10">
      <path d="M 71.91 125.010133 
L 451.8 125.010133 
" clip-path="url(#pd018d3f0c8)" style="fill: none; stroke: #ffffff; stroke-linecap: round"/>
     </g>
     <g id="text_11">
      <!-- 300 -->
      <g style="fill: #262626" transform="translate(30.915625 131.278844) scale(0.165 -0.165)">
       <defs>
        <path id="DejaVuSans-33" d="M 2597 2516 
Q 3050 2419 3304 2112 
Q 3559 1806 3559 1356 
Q 3559 666 3084 287 
Q 2609 -91 1734 -91 
Q 1441 -91 1130 -33 
Q 819 25 488 141 
L 488 750 
Q 750 597 1062 519 
Q 1375 441 1716 441 
Q 2309 441 2620 675 
Q 2931 909 2931 1356 
Q 2931 1769 2642 2001 
Q 2353 2234 1838 2234 
L 1294 2234 
L 1294 2753 
L 1863 2753 
Q 2328 2753 2575 2939 
Q 2822 3125 2822 3475 
Q 2822 3834 2567 4026 
Q 2313 4219 1838 4219 
Q 1578 4219 1281 4162 
Q 984 4106 628 3988 
L 628 4550 
Q 988 4650 1302 4700 
Q 1616 4750 1894 4750 
Q 2613 4750 3031 4423 
Q 3450 4097 3450 3541 
Q 3450 3153 3228 2886 
Q 3006 2619 2597 2516 
z
" transform="scale(0.015625)"/>
       </defs>
       <use xlink:href="#DejaVuSans-33"/>
       <use xlink:href="#DejaVuSans-30" x="63.623047"/>
       <use xlink:href="#DejaVuSans-30" x="127.246094"/>
      </g>
     </g>
    </g>
    <g id="ytick_5">
     <g id="line2d_11">
      <path d="M 71.91 73.358248 
L 451.8 73.358248 
" clip-path="url(#pd018d3f0c8)" style="fill: none; stroke: #ffffff; stroke-linecap: round"/>
     </g>
     <g id="text_12">
      <!-- 400 -->
      <g style="fill: #262626" transform="translate(30.915625 79.626959) scale(0.165 -0.165)">
       <use xlink:href="#DejaVuSans-34"/>
       <use xlink:href="#DejaVuSans-30" x="63.623047"/>
       <use xlink:href="#DejaVuSans-30" x="127.246094"/>
      </g>
     </g>
    </g>
    <g id="ytick_6">
     <g id="line2d_12">
      <path d="M 71.91 21.706364 
L 451.8 21.706364 
" clip-path="url(#pd018d3f0c8)" style="fill: none; stroke: #ffffff; stroke-linecap: round"/>
     </g>
     <g id="text_13">
      <!-- 500 -->
      <g style="fill: #262626" transform="translate(30.915625 27.975075) scale(0.165 -0.165)">
       <defs>
        <path id="DejaVuSans-35" d="M 691 4666 
L 3169 4666 
L 3169 4134 
L 1269 4134 
L 1269 2991 
Q 1406 3038 1543 3061 
Q 1681 3084 1819 3084 
Q 2600 3084 3056 2656 
Q 3513 2228 3513 1497 
Q 3513 744 3044 326 
Q 2575 -91 1722 -91 
Q 1428 -91 1123 -41 
Q 819 9 494 109 
L 494 744 
Q 775 591 1075 516 
Q 1375 441 1709 441 
Q 2250 441 2565 725 
Q 2881 1009 2881 1497 
Q 2881 1984 2565 2268 
Q 2250 2553 1709 2553 
Q 1456 2553 1204 2497 
Q 953 2441 691 2322 
L 691 4666 
z
" transform="scale(0.015625)"/>
       </defs>
       <use xlink:href="#DejaVuSans-35"/>
       <use xlink:href="#DejaVuSans-30" x="63.623047"/>
       <use xlink:href="#DejaVuSans-30" x="127.246094"/>
      </g>
     </g>
    </g>
    <g id="text_14">
     <!-- Total timesteps -->
     <g style="fill: #262626" transform="translate(23.172188 217.137656) rotate(-90) scale(0.18 -0.18)">
      <defs>
       <path id="DejaVuSans-6f" d="M 1959 3097 
Q 1497 3097 1228 2736 
Q 959 2375 959 1747 
Q 959 1119 1226 758 
Q 1494 397 1959 397 
Q 2419 397 2687 759 
Q 2956 1122 2956 1747 
Q 2956 2369 2687 2733 
Q 2419 3097 1959 3097 
z
M 1959 3584 
Q 2709 3584 3137 3096 
Q 3566 2609 3566 1747 
Q 3566 888 3137 398 
Q 2709 -91 1959 -91 
Q 1206 -91 779 398 
Q 353 888 353 1747 
Q 353 2609 779 3096 
Q 1206 3584 1959 3584 
z
" transform="scale(0.015625)"/>
       <path id="DejaVuSans-74" d="M 1172 4494 
L 1172 3500 
L 2356 3500 
L 2356 3053 
L 1172 3053 
L 1172 1153 
Q 1172 725 1289 603 
Q 1406 481 1766 481 
L 2356 481 
L 2356 0 
L 1766 0 
Q 1100 0 847 248 
Q 594 497 594 1153 
L 594 3053 
L 172 3053 
L 172 3500 
L 594 3500 
L 594 4494 
L 1172 4494 
z
" transform="scale(0.015625)"/>
       <path id="DejaVuSans-61" d="M 2194 1759 
Q 1497 1759 1228 1600 
Q 959 1441 959 1056 
Q 959 750 1161 570 
Q 1363 391 1709 391 
Q 2188 391 2477 730 
Q 2766 1069 2766 1631 
L 2766 1759 
L 2194 1759 
z
M 3341 1997 
L 3341 0 
L 2766 0 
L 2766 531 
Q 2569 213 2275 61 
Q 1981 -91 1556 -91 
Q 1019 -91 701 211 
Q 384 513 384 1019 
Q 384 1609 779 1909 
Q 1175 2209 1959 2209 
L 2766 2209 
L 2766 2266 
Q 2766 2663 2505 2880 
Q 2244 3097 1772 3097 
Q 1472 3097 1187 3025 
Q 903 2953 641 2809 
L 641 3341 
Q 956 3463 1253 3523 
Q 1550 3584 1831 3584 
Q 2591 3584 2966 3190 
Q 3341 2797 3341 1997 
z
" transform="scale(0.015625)"/>
       <path id="DejaVuSans-6c" d="M 603 4863 
L 1178 4863 
L 1178 0 
L 603 0 
L 603 4863 
z
" transform="scale(0.015625)"/>
       <path id="DejaVuSans-70" d="M 1159 525 
L 1159 -1331 
L 581 -1331 
L 581 3500 
L 1159 3500 
L 1159 2969 
Q 1341 3281 1617 3432 
Q 1894 3584 2278 3584 
Q 2916 3584 3314 3078 
Q 3713 2572 3713 1747 
Q 3713 922 3314 415 
Q 2916 -91 2278 -91 
Q 1894 -91 1617 61 
Q 1341 213 1159 525 
z
M 3116 1747 
Q 3116 2381 2855 2742 
Q 2594 3103 2138 3103 
Q 1681 3103 1420 2742 
Q 1159 2381 1159 1747 
Q 1159 1113 1420 752 
Q 1681 391 2138 391 
Q 2594 391 2855 752 
Q 3116 1113 3116 1747 
z
" transform="scale(0.015625)"/>
      </defs>
      <use xlink:href="#DejaVuSans-54"/>
      <use xlink:href="#DejaVuSans-6f" x="44.083984"/>
      <use xlink:href="#DejaVuSans-74" x="105.265625"/>
      <use xlink:href="#DejaVuSans-61" x="144.474609"/>
      <use xlink:href="#DejaVuSans-6c" x="205.753906"/>
      <use xlink:href="#DejaVuSans-20" x="233.537109"/>
      <use xlink:href="#DejaVuSans-74" x="265.324219"/>
      <use xlink:href="#DejaVuSans-69" x="304.533203"/>
      <use xlink:href="#DejaVuSans-6d" x="332.316406"/>
      <use xlink:href="#DejaVuSans-65" x="429.728516"/>
      <use xlink:href="#DejaVuSans-73" x="491.251953"/>
      <use xlink:href="#DejaVuSans-74" x="543.351562"/>
      <use xlink:href="#DejaVuSans-65" x="582.560547"/>
      <use xlink:href="#DejaVuSans-70" x="644.083984"/>
      <use xlink:href="#DejaVuSans-73" x="707.560547"/>
     </g>
    </g>
   </g>
   <g id="PolyCollection_1"/>
   <g id="PolyCollection_2"/>
   <g id="PolyCollection_3">
    <defs>
     <path id="m69f2cef7f5" d="M 89.177727 -73.898514 
L 89.177727 -73.381996 
L 90.992012 -73.898514 
L 94.618396 -73.898514 
L 98.255458 -73.123736 
L 102.01842 -72.865477 
L 105.715136 -73.381996 
L 109.35276 -74.156774 
L 113.075273 -74.415033 
L 116.794748 -74.931552 
L 120.588979 -78.288925 
L 124.364896 -81.388038 
L 128.094776 -81.388038 
L 131.860319 -87.328004 
L 135.627967 -93.009712 
L 139.410027 -95.075787 
L 143.237548 -97.400122 
L 147.089736 -101.532273 
L 150.90591 -103.081829 
L 154.747201 -100.240976 
L 158.514652 -108.247018 
L 162.184862 -112.637428 
L 165.85745 -120.385211 
L 169.42768 -126.066918 
L 172.920978 -122.709545 
L 176.411788 -125.03388 
L 179.945746 -130.973847 
L 183.344846 -138.46337 
L 186.62451 -138.46337 
L 189.974499 -137.688592 
L 193.355782 -157.574568 
L 196.616361 -193.472627 
L 199.840102 -226.271574 
L 203.126282 -221.364645 
L 206.415594 -228.33765 
L 209.756209 -236.343692 
L 214.601418 -228.07939 
L 219.485768 -281.79735 
L 222.977035 -323.893636 
L 226.607004 -323.893636 
L 230.275403 -323.893636 
L 233.935793 -323.893636 
L 237.654664 -323.893636 
L 241.2999 -323.893636 
L 244.933227 -323.893636 
L 248.649221 -323.893636 
L 252.353264 -323.893636 
L 256.016177 -323.893636 
L 259.666175 -323.893636 
L 263.292005 -323.893636 
L 266.86007 -323.893636 
L 270.45419 -323.893636 
L 274.077282 -323.893636 
L 277.626699 -323.893636 
L 281.134468 -323.893636 
L 284.831972 -323.893636 
L 288.389359 -323.893636 
L 291.745787 -323.893636 
L 295.199498 -323.893636 
L 298.687611 -323.893636 
L 302.097165 -323.893636 
L 305.353747 -323.893636 
L 308.613914 -323.893636 
L 311.90281 -323.893636 
L 315.203342 -323.893636 
L 318.396846 -323.893636 
L 323.051358 -323.893636 
L 327.741472 -323.893636 
L 331.008008 -323.893636 
L 334.47112 -323.893636 
L 337.965341 -323.893636 
L 341.489749 -323.893636 
L 345.058407 -323.893636 
L 348.670701 -323.893636 
L 352.399577 -323.893636 
L 356.073749 -323.893636 
L 359.807017 -323.893636 
L 363.488625 -323.893636 
L 367.041542 -323.893636 
L 370.62827 -323.893636 
L 374.183134 -323.893636 
L 377.753757 -323.893636 
L 381.352797 -323.893636 
L 384.935985 -323.893636 
L 388.440388 -323.893636 
L 391.897949 -323.893636 
L 395.301507 -323.893636 
L 398.709599 -323.893636 
L 402.159968 -323.893636 
L 405.553155 -323.893636 
L 408.935011 -323.893636 
L 412.355116 -323.893636 
L 415.560741 -323.893636 
L 418.801222 -323.893636 
L 423.583858 -323.893636 
L 428.204286 -323.893636 
L 431.361112 -323.893636 
L 434.532273 -323.893636 
L 434.532273 -323.893636 
L 434.532273 -323.893636 
L 431.361112 -323.893636 
L 428.204286 -323.893636 
L 423.583858 -323.893636 
L 418.801222 -323.893636 
L 415.560741 -323.893636 
L 412.355116 -323.893636 
L 408.935011 -323.893636 
L 405.553155 -323.893636 
L 402.159968 -323.893636 
L 398.709599 -323.893636 
L 395.301507 -323.893636 
L 391.897949 -323.893636 
L 388.440388 -323.893636 
L 384.935985 -323.893636 
L 381.352797 -323.893636 
L 377.753757 -323.893636 
L 374.183134 -323.893636 
L 370.62827 -323.893636 
L 367.041542 -323.893636 
L 363.488625 -323.893636 
L 359.807017 -323.893636 
L 356.073749 -323.893636 
L 352.399577 -323.893636 
L 348.670701 -323.893636 
L 345.058407 -323.893636 
L 341.489749 -323.893636 
L 337.965341 -323.893636 
L 334.47112 -323.893636 
L 331.008008 -323.893636 
L 327.741472 -323.893636 
L 323.051358 -323.893636 
L 318.396846 -323.893636 
L 315.203342 -323.893636 
L 311.90281 -323.893636 
L 308.613914 -323.893636 
L 305.353747 -323.893636 
L 302.097165 -323.893636 
L 298.687611 -323.893636 
L 295.199498 -323.893636 
L 291.745787 -323.893636 
L 288.389359 -323.893636 
L 284.831972 -323.893636 
L 281.134468 -323.893636 
L 277.626699 -323.893636 
L 274.077282 -323.893636 
L 270.45419 -323.893636 
L 266.86007 -323.893636 
L 263.292005 -323.893636 
L 259.666175 -323.893636 
L 256.016177 -323.893636 
L 252.353264 -323.893636 
L 248.649221 -323.893636 
L 244.933227 -323.893636 
L 241.2999 -323.893636 
L 237.654664 -323.893636 
L 233.935793 -323.893636 
L 230.275403 -323.893636 
L 226.607004 -323.893636 
L 222.977035 -323.893636 
L 219.485768 -281.79735 
L 214.601418 -239.442805 
L 209.756209 -247.707106 
L 206.415594 -228.33765 
L 203.126282 -223.172461 
L 199.840102 -228.07939 
L 196.616361 -222.397683 
L 193.355782 -227.562871 
L 189.974499 -240.475843 
L 186.62451 -233.761098 
L 183.344846 -212.067306 
L 179.945746 -213.100344 
L 176.411788 -205.61082 
L 172.920978 -193.730887 
L 169.42768 -188.307439 
L 165.85745 -182.109213 
L 162.184862 -174.36143 
L 158.514652 -173.844911 
L 154.747201 -169.196242 
L 150.90591 -160.157162 
L 147.089736 -150.859823 
L 143.237548 -148.793747 
L 139.410027 -150.859823 
L 135.627967 -148.277228 
L 131.860319 -144.661596 
L 128.094776 -137.172073 
L 124.364896 -123.742583 
L 120.588979 -120.64347 
L 116.794748 -125.29214 
L 113.075273 -123.742583 
L 109.35276 -117.802616 
L 105.715136 -110.313093 
L 102.01842 -102.048792 
L 98.255458 -94.559268 
L 94.618396 -86.294967 
L 90.992012 -78.030665 
L 89.177727 -73.898514 
z
" style="stroke: #ff0000; stroke-opacity: 0.2"/>
    </defs>
    <g clip-path="url(#pd018d3f0c8)">
     <use xlink:href="#m69f2cef7f5" x="0" y="345.6" style="fill: #ff0000; fill-opacity: 0.2; stroke: #ff0000; stroke-opacity: 0.2"/>
    </g>
   </g>
   <g id="PolyCollection_4">
    <defs>
     <path id="m992ba296f4" d="M 89.177727 -73.898514 
L 89.177727 -73.381996 
L 90.947132 -69.766364 
L 94.514212 -70.024623 
L 98.082542 -70.024623 
L 101.763761 -69.766364 
L 105.462573 -69.766364 
L 109.022083 -70.024623 
L 112.558842 -70.024623 
L 116.188396 -69.766364 
L 120.044007 -69.766364 
L 123.847826 -70.541142 
L 127.526606 -70.541142 
L 131.174827 -71.31592 
L 134.764089 -77.255887 
L 138.484537 -72.090698 
L 142.204555 -72.607217 
L 145.857814 -77.772406 
L 149.629896 -80.613259 
L 153.349406 -85.261929 
L 157.067662 -83.970632 
L 160.79521 -87.586264 
L 164.40609 -97.400122 
L 167.996156 -100.240976 
L 171.592434 -102.56531 
L 175.296201 -86.294967 
L 178.993547 -80.871519 
L 182.57739 -104.631386 
L 186.127985 -114.703503 
L 189.65055 -120.901729 
L 193.234281 -120.126951 
L 196.696104 -122.967805 
L 199.957429 -134.589479 
L 203.24606 -138.72163 
L 206.60468 -140.012927 
L 209.989167 -185.208326 
L 213.2666 -206.385599 
L 218.002236 -185.208326 
L 225.889375 -255.971408 
L 232.241505 -323.893636 
L 236.990623 -323.893636 
L 241.945793 -323.893636 
L 245.566819 -323.893636 
L 249.139404 -323.893636 
L 252.703411 -323.893636 
L 256.291381 -323.893636 
L 259.978381 -323.893636 
L 263.656953 -323.893636 
L 267.226664 -323.893636 
L 270.78759 -323.893636 
L 274.346619 -323.893636 
L 278.033623 -323.893636 
L 281.746971 -195.022184 
L 285.374874 -195.022184 
L 288.969503 -323.893636 
L 292.545756 -323.893636 
L 296.245192 -323.893636 
L 299.866633 -323.893636 
L 303.217202 -323.893636 
L 306.462969 -323.893636 
L 309.706711 -323.893636 
L 313.131682 -323.893636 
L 316.4712 -323.893636 
L 319.598235 -323.893636 
L 324.291907 -323.893636 
L 332.055791 -323.893636 
L 338.215128 -323.893636 
L 342.859931 -323.893636 
L 347.654394 -323.893636 
L 351.11254 -323.893636 
L 354.716065 -323.893636 
L 358.31879 -323.893636 
L 361.928188 -323.893636 
L 365.46527 -323.893636 
L 368.970088 -323.893636 
L 372.559801 -323.893636 
L 376.170065 -323.893636 
L 379.803345 -323.893636 
L 383.422121 -323.893636 
L 387.041024 -195.022184 
L 390.680405 -195.022184 
L 394.286996 -323.893636 
L 397.937278 -323.893636 
L 401.571763 -323.893636 
L 405.185777 -323.893636 
L 408.839578 -323.893636 
L 412.259883 -323.893636 
L 415.65089 -323.893636 
L 419.070871 -323.893636 
L 422.322522 -323.893636 
L 425.569389 -323.893636 
L 430.375064 -323.893636 
L 430.375064 -323.893636 
L 430.375064 -323.893636 
L 425.569389 -323.893636 
L 422.322522 -323.893636 
L 419.070871 -323.893636 
L 415.65089 -323.893636 
L 412.259883 -323.893636 
L 408.839578 -323.893636 
L 405.185777 -323.893636 
L 401.571763 -323.893636 
L 397.937278 -323.893636 
L 394.286996 -323.893636 
L 390.680405 -323.893636 
L 387.041024 -323.893636 
L 383.422121 -323.893636 
L 379.803345 -323.893636 
L 376.170065 -323.893636 
L 372.559801 -323.893636 
L 368.970088 -323.893636 
L 365.46527 -323.893636 
L 361.928188 -323.893636 
L 358.31879 -323.893636 
L 354.716065 -323.893636 
L 351.11254 -323.893636 
L 347.654394 -323.893636 
L 342.859931 -323.893636 
L 338.215128 -323.893636 
L 332.055791 -323.893636 
L 324.291907 -323.893636 
L 319.598235 -323.893636 
L 316.4712 -323.893636 
L 313.131682 -323.893636 
L 309.706711 -323.893636 
L 306.462969 -323.893636 
L 303.217202 -323.893636 
L 299.866633 -323.893636 
L 296.245192 -323.893636 
L 292.545756 -323.893636 
L 288.969503 -323.893636 
L 285.374874 -323.893636 
L 281.746971 -323.893636 
L 278.033623 -323.893636 
L 274.346619 -323.893636 
L 270.78759 -323.893636 
L 267.226664 -323.893636 
L 263.656953 -323.893636 
L 259.978381 -323.893636 
L 256.291381 -323.893636 
L 252.703411 -323.893636 
L 249.139404 -323.893636 
L 245.566819 -323.893636 
L 241.945793 -323.893636 
L 236.990623 -323.893636 
L 232.241505 -323.893636 
L 225.889375 -255.971408 
L 218.002236 -185.208326 
L 213.2666 -206.385599 
L 209.989167 -227.562871 
L 206.60468 -215.166419 
L 203.24606 -203.544745 
L 199.957429 -199.412594 
L 196.696104 -199.154335 
L 193.234281 -191.148293 
L 189.65055 -179.0101 
L 186.127985 -177.718803 
L 182.57739 -173.328392 
L 178.993547 -174.877949 
L 175.296201 -166.613647 
L 171.592434 -162.998016 
L 167.996156 -161.1902 
L 164.40609 -142.85378 
L 160.79521 -136.139035 
L 157.067662 -138.46337 
L 153.349406 -145.694634 
L 149.629896 -138.205111 
L 145.857814 -128.649512 
L 142.204555 -124.517361 
L 138.484537 -116.769579 
L 134.764089 -112.120909 
L 131.174827 -118.060876 
L 127.526606 -113.153947 
L 123.847826 -113.412206 
L 120.044007 -123.742583 
L 116.188396 -126.066918 
L 112.558842 -125.550399 
L 109.022083 -115.9948 
L 105.462573 -109.538315 
L 101.763761 -102.56531 
L 98.082542 -94.301009 
L 94.514212 -86.294967 
L 90.947132 -78.030665 
L 89.177727 -73.898514 
z
" style="stroke: #008000; stroke-opacity: 0.2"/>
    </defs>
    <g clip-path="url(#pd018d3f0c8)">
     <use xlink:href="#m992ba296f4" x="0" y="345.6" style="fill: #008000; fill-opacity: 0.2; stroke: #008000; stroke-opacity: 0.2"/>
    </g>
   </g>
   <g id="line2d_13">
    <path d="M 89.177727 272.011397 
L 90.992012 270.065817 
L 94.618396 265.19246 
L 98.255458 262.735441 
L 102.01842 263.261866 
L 105.715136 262.817329 
L 109.35276 260.941235 
L 113.075273 259.069588 
L 116.794748 255.548714 
L 120.588979 251.557667 
L 124.364896 248.907498 
L 128.094776 245.600569 
L 131.860319 239.903103 
L 135.627967 235.253521 
L 139.410027 230.902485 
L 143.237548 228.290697 
L 147.089736 225.743989 
L 150.90591 218.807918 
L 154.747201 212.212976 
L 158.514652 203.463101 
L 162.184862 195.830501 
L 165.85745 192.871607 
L 169.42768 196.884208 
L 172.920978 196.306754 
L 176.411788 186.660164 
L 179.945746 175.086748 
L 183.344846 171.128293 
L 186.62451 162.704864 
L 189.974499 145.973629 
L 193.355782 141.853316 
L 196.616361 139.058372 
L 199.840102 119.147641 
L 203.126282 124.05457 
L 206.415594 117.26235 
L 209.756209 100.547225 
L 214.601418 108.811526 
L 219.485768 63.80265 
L 222.977035 21.706364 
L 226.607004 21.706364 
L 230.275403 21.706364 
L 233.935793 21.706364 
L 237.654664 21.706364 
L 241.2999 21.706364 
L 244.933227 21.706364 
L 248.649221 21.706364 
L 252.353264 21.706364 
L 256.016177 21.706364 
L 259.666175 21.706364 
L 263.292005 21.706364 
L 266.86007 21.706364 
L 270.45419 21.706364 
L 274.077282 21.706364 
L 277.626699 21.706364 
L 281.134468 21.706364 
L 284.831972 21.706364 
L 288.389359 21.706364 
L 291.745787 21.706364 
L 295.199498 21.706364 
L 298.687611 21.706364 
L 302.097165 21.706364 
L 305.353747 21.706364 
L 308.613914 21.706364 
L 311.90281 21.706364 
L 315.203342 21.706364 
L 318.396846 21.706364 
L 323.051358 21.706364 
L 327.741472 21.706364 
L 331.008008 21.706364 
L 334.47112 21.706364 
L 337.965341 21.706364 
L 341.489749 21.706364 
L 345.058407 21.706364 
L 348.670701 21.706364 
L 352.399577 21.706364 
L 356.073749 21.706364 
L 359.807017 21.706364 
L 363.488625 21.706364 
L 367.041542 21.706364 
L 370.62827 21.706364 
L 374.183134 21.706364 
L 377.753757 21.706364 
L 381.352797 21.706364 
L 384.935985 21.706364 
L 388.440388 21.706364 
L 391.897949 21.706364 
L 395.301507 21.706364 
L 398.709599 21.706364 
L 402.159968 21.706364 
L 405.553155 21.706364 
L 408.935011 21.706364 
L 412.355116 21.706364 
L 415.560741 21.706364 
L 418.801222 21.706364 
L 423.583858 21.706364 
L 428.204286 21.706364 
L 431.361112 21.706364 
L 434.532273 21.706364 
" clip-path="url(#pd018d3f0c8)" style="fill: none; stroke: #ff0000; stroke-width: 1.5; stroke-linecap: round"/>
   </g>
   <g id="line2d_14">
    <path d="M 89.177727 272.011397 
L 90.947132 270.085477 
L 94.514212 265.133824 
L 98.082542 262.472506 
L 101.763761 262.215967 
L 105.462573 260.895688 
L 109.022083 260.045813 
L 112.558842 259.485021 
L 116.188396 260.522673 
L 120.044007 262.137231 
L 123.847826 262.408018 
L 127.526606 260.813725 
L 131.174827 257.142799 
L 134.764089 253.252998 
L 138.484537 250.637663 
L 142.204555 246.897288 
L 145.857814 243.978966 
L 149.629896 243.192453 
L 153.349406 243.815627 
L 157.067662 241.391769 
L 160.79521 235.936833 
L 164.40609 229.79662 
L 167.996156 223.492871 
L 171.592434 221.975647 
L 175.296201 219.429622 
L 178.993547 213.51277 
L 182.57739 205.382782 
L 186.127985 199.241184 
L 189.65055 193.599408 
L 193.234281 192.112229 
L 196.696104 179.110217 
L 199.957429 159.080291 
L 203.24606 166.351439 
L 206.60468 176.730023 
L 209.989167 145.460834 
L 213.2666 139.214401 
L 218.002236 160.391674 
L 225.889375 89.628592 
L 232.241505 21.706364 
L 236.990623 21.706364 
L 241.945793 21.706364 
L 245.566819 21.706364 
L 249.139404 21.706364 
L 252.703411 21.706364 
L 256.291381 21.706364 
L 259.978381 21.706364 
L 263.656953 21.706364 
L 267.226664 21.706364 
L 270.78759 21.706364 
L 274.346619 21.706364 
L 278.033623 21.706364 
L 281.746971 25.699044 
L 285.374874 25.699044 
L 288.969503 21.706364 
L 292.545756 21.706364 
L 296.245192 21.706364 
L 299.866633 21.706364 
L 303.217202 21.706364 
L 306.462969 21.706364 
L 309.706711 21.706364 
L 313.131682 21.706364 
L 316.4712 21.706364 
L 319.598235 21.706364 
L 324.291907 21.706364 
L 332.055791 21.706364 
L 338.215128 21.706364 
L 342.859931 21.706364 
L 347.654394 21.706364 
L 351.11254 21.706364 
L 354.716065 21.706364 
L 358.31879 21.706364 
L 361.928188 21.706364 
L 365.46527 21.706364 
L 368.970088 21.706364 
L 372.559801 21.706364 
L 376.170065 21.706364 
L 379.803345 21.706364 
L 383.422121 21.706364 
L 387.041024 23.799244 
L 390.680405 23.799244 
L 394.286996 21.706364 
L 397.937278 21.706364 
L 401.571763 21.706364 
L 405.185777 21.706364 
L 408.839578 21.706364 
L 412.259883 21.706364 
L 415.65089 21.706364 
L 419.070871 21.706364 
L 422.322522 21.706364 
L 425.569389 21.706364 
L 430.375064 21.706364 
" clip-path="url(#pd018d3f0c8)" style="fill: none; stroke: #008000; stroke-width: 1.5; stroke-linecap: round"/>
   </g>
   <g id="patch_3">
    <path d="M 71.91 288.54 
L 71.91 9 
" style="fill: none; stroke: #ffffff; stroke-width: 1.25; stroke-linejoin: miter; stroke-linecap: square"/>
   </g>
   <g id="patch_4">
    <path d="M 451.8 288.54 
L 451.8 9 
" style="fill: none; stroke: #ffffff; stroke-width: 1.25; stroke-linejoin: miter; stroke-linecap: square"/>
   </g>
   <g id="patch_5">
    <path d="M 71.91 288.54 
L 451.8 288.54 
" style="fill: none; stroke: #ffffff; stroke-width: 1.25; stroke-linejoin: miter; stroke-linecap: square"/>
   </g>
   <g id="patch_6">
    <path d="M 71.91 9 
L 451.8 9 
" style="fill: none; stroke: #ffffff; stroke-width: 1.25; stroke-linejoin: miter; stroke-linecap: square"/>
   </g>
   <g id="legend_1">
    <g id="patch_7">
     <path d="M 83.46 46.418906 
L 165.776953 46.418906 
Q 169.076953 46.418906 169.076953 43.118906 
L 169.076953 20.55 
Q 169.076953 17.25 165.776953 17.25 
L 83.46 17.25 
Q 80.16 17.25 80.16 20.55 
L 80.16 43.118906 
Q 80.16 46.418906 83.46 46.418906 
z
" style="fill: #eaeaf2; opacity: 0.8; stroke: #cccccc; stroke-linejoin: miter"/>
    </g>
    <g id="line2d_15">
     <path d="M 86.76 30.612422 
L 103.26 30.612422 
L 119.76 30.612422 
" style="fill: none; stroke: #008000; stroke-width: 1.5; stroke-linecap: round"/>
    </g>
    <g id="text_15">
     <!-- skrl -->
     <g style="fill: #262626" transform="translate(132.96 36.387422) scale(0.165 -0.165)">
      <defs>
       <path id="DejaVuSans-6b" d="M 581 4863 
L 1159 4863 
L 1159 1991 
L 2875 3500 
L 3609 3500 
L 1753 1863 
L 3688 0 
L 2938 0 
L 1159 1709 
L 1159 0 
L 581 0 
L 581 4863 
z
" transform="scale(0.015625)"/>
       <path id="DejaVuSans-72" d="M 2631 2963 
Q 2534 3019 2420 3045 
Q 2306 3072 2169 3072 
Q 1681 3072 1420 2755 
Q 1159 2438 1159 1844 
L 1159 0 
L 581 0 
L 581 3500 
L 1159 3500 
L 1159 2956 
Q 1341 3275 1631 3429 
Q 1922 3584 2338 3584 
Q 2397 3584 2469 3576 
Q 2541 3569 2628 3553 
L 2631 2963 
z
" transform="scale(0.015625)"/>
      </defs>
      <use xlink:href="#DejaVuSans-73"/>
      <use xlink:href="#DejaVuSans-6b" x="52.099609"/>
      <use xlink:href="#DejaVuSans-72" x="110.009766"/>
      <use xlink:href="#DejaVuSans-6c" x="151.123047"/>
     </g>
    </g>
   </g>
  </g>
 </g>
 <defs>
  <clipPath id="pd018d3f0c8">
   <rect x="71.91" y="9" width="379.89" height="279.54"/>
  </clipPath>
 </defs>
</svg>
