<?xml version="1.0" encoding="utf-8" standalone="no"?>
<!DOCTYPE svg PUBLIC "-//W3C//DTD SVG 1.1//EN"
  "http://www.w3.org/Graphics/SVG/1.1/DTD/svg11.dtd">
<svg xmlns:xlink="http://www.w3.org/1999/xlink" width="460.8pt" height="345.6pt" viewBox="0 0 460.8 345.6" xmlns="http://www.w3.org/2000/svg" version="1.1">
 <metadata>
  <rdf:RDF xmlns:dc="http://purl.org/dc/elements/1.1/" xmlns:cc="http://creativecommons.org/ns#" xmlns:rdf="http://www.w3.org/1999/02/22-rdf-syntax-ns#">
   <cc:Work>
    <dc:type rdf:resource="http://purl.org/dc/dcmitype/StillImage"/>
    <dc:date>2024-02-06T17:55:12.106442</dc:date>
    <dc:format>image/svg+xml</dc:format>
    <dc:creator>
     <cc:Agent>
      <dc:title>Matplotlib v3.7.1, https://matplotlib.org/</dc:title>
     </cc:Agent>
    </dc:creator>
   </cc:Work>
  </rdf:RDF>
 </metadata>
 <defs>
  <style type="text/css">*{stroke-linejoin: round; stroke-linecap: butt}</style>
 </defs>
 <g id="figure_1">
  <g id="patch_1">
   <path d="M 0 345.6 
L 460.8 345.6 
L 460.8 0 
L 0 0 
z
" style="fill: #ffffff"/>
  </g>
  <g id="axes_1">
   <g id="patch_2">
    <path d="M 71.91 289.26 
L 451.8 289.26 
L 451.8 9 
L 71.91 9 
z
" style="fill: #eaeaf2"/>
   </g>
   <g id="matplotlib.axis_1">
    <g id="xtick_1">
     <g id="line2d_1">
      <path d="M 85.67159 289.26 
L 85.67159 9 
" clip-path="url(#p285484fe9f)" style="fill: none; stroke: #ffffff; stroke-linecap: round"/>
     </g>
     <g id="text_1">
      <!-- 0 -->
      <g style="fill: #262626" transform="translate(80.422527 311.297422) scale(0.165 -0.165)">
       <defs>
        <path id="DejaVuSans-30" d="M 2034 4250 
Q 1547 4250 1301 3770 
Q 1056 3291 1056 2328 
Q 1056 1369 1301 889 
Q 1547 409 2034 409 
Q 2525 409 2770 889 
Q 3016 1369 3016 2328 
Q 3016 3291 2770 3770 
Q 2525 4250 2034 4250 
z
M 2034 4750 
Q 2819 4750 3233 4129 
Q 3647 3509 3647 2328 
Q 3647 1150 3233 529 
Q 2819 -91 2034 -91 
Q 1250 -91 836 529 
Q 422 1150 422 2328 
Q 422 3509 836 4129 
Q 1250 4750 2034 4750 
z
" transform="scale(0.015625)"/>
       </defs>
       <use xlink:href="#DejaVuSans-30"/>
      </g>
     </g>
    </g>
    <g id="xtick_2">
     <g id="line2d_2">
      <path d="M 140.454988 289.26 
L 140.454988 9 
" clip-path="url(#p285484fe9f)" style="fill: none; stroke: #ffffff; stroke-linecap: round"/>
     </g>
     <g id="text_2">
      <!-- 250 -->
      <g style="fill: #262626" transform="translate(124.707801 311.297422) scale(0.165 -0.165)">
       <defs>
        <path id="DejaVuSans-32" d="M 1228 531 
L 3431 531 
L 3431 0 
L 469 0 
L 469 531 
Q 828 903 1448 1529 
Q 2069 2156 2228 2338 
Q 2531 2678 2651 2914 
Q 2772 3150 2772 3378 
Q 2772 3750 2511 3984 
Q 2250 4219 1831 4219 
Q 1534 4219 1204 4116 
Q 875 4013 500 3803 
L 500 4441 
Q 881 4594 1212 4672 
Q 1544 4750 1819 4750 
Q 2544 4750 2975 4387 
Q 3406 4025 3406 3419 
Q 3406 3131 3298 2873 
Q 3191 2616 2906 2266 
Q 2828 2175 2409 1742 
Q 1991 1309 1228 531 
z
" transform="scale(0.015625)"/>
        <path id="DejaVuSans-35" d="M 691 4666 
L 3169 4666 
L 3169 4134 
L 1269 4134 
L 1269 2991 
Q 1406 3038 1543 3061 
Q 1681 3084 1819 3084 
Q 2600 3084 3056 2656 
Q 3513 2228 3513 1497 
Q 3513 744 3044 326 
Q 2575 -91 1722 -91 
Q 1428 -91 1123 -41 
Q 819 9 494 109 
L 494 744 
Q 775 591 1075 516 
Q 1375 441 1709 441 
Q 2250 441 2565 725 
Q 2881 1009 2881 1497 
Q 2881 1984 2565 2268 
Q 2250 2553 1709 2553 
Q 1456 2553 1204 2497 
Q 953 2441 691 2322 
L 691 4666 
z
" transform="scale(0.015625)"/>
       </defs>
       <use xlink:href="#DejaVuSans-32"/>
       <use xlink:href="#DejaVuSans-35" x="63.623047"/>
       <use xlink:href="#DejaVuSans-30" x="127.246094"/>
      </g>
     </g>
    </g>
    <g id="xtick_3">
     <g id="line2d_3">
      <path d="M 195.238387 289.26 
L 195.238387 9 
" clip-path="url(#p285484fe9f)" style="fill: none; stroke: #ffffff; stroke-linecap: round"/>
     </g>
     <g id="text_3">
      <!-- 500 -->
      <g style="fill: #262626" transform="translate(179.4912 311.297422) scale(0.165 -0.165)">
       <use xlink:href="#DejaVuSans-35"/>
       <use xlink:href="#DejaVuSans-30" x="63.623047"/>
       <use xlink:href="#DejaVuSans-30" x="127.246094"/>
      </g>
     </g>
    </g>
    <g id="xtick_4">
     <g id="line2d_4">
      <path d="M 250.021786 289.26 
L 250.021786 9 
" clip-path="url(#p285484fe9f)" style="fill: none; stroke: #ffffff; stroke-linecap: round"/>
     </g>
     <g id="text_4">
      <!-- 750 -->
      <g style="fill: #262626" transform="translate(234.274598 311.297422) scale(0.165 -0.165)">
       <defs>
        <path id="DejaVuSans-37" d="M 525 4666 
L 3525 4666 
L 3525 4397 
L 1831 0 
L 1172 0 
L 2766 4134 
L 525 4134 
L 525 4666 
z
" transform="scale(0.015625)"/>
       </defs>
       <use xlink:href="#DejaVuSans-37"/>
       <use xlink:href="#DejaVuSans-35" x="63.623047"/>
       <use xlink:href="#DejaVuSans-30" x="127.246094"/>
      </g>
     </g>
    </g>
    <g id="xtick_5">
     <g id="line2d_5">
      <path d="M 304.805185 289.26 
L 304.805185 9 
" clip-path="url(#p285484fe9f)" style="fill: none; stroke: #ffffff; stroke-linecap: round"/>
     </g>
     <g id="text_5">
      <!-- 1000 -->
      <g style="fill: #262626" transform="translate(283.808935 311.297422) scale(0.165 -0.165)">
       <defs>
        <path id="DejaVuSans-31" d="M 794 531 
L 1825 531 
L 1825 4091 
L 703 3866 
L 703 4441 
L 1819 4666 
L 2450 4666 
L 2450 531 
L 3481 531 
L 3481 0 
L 794 0 
L 794 531 
z
" transform="scale(0.015625)"/>
       </defs>
       <use xlink:href="#DejaVuSans-31"/>
       <use xlink:href="#DejaVuSans-30" x="63.623047"/>
       <use xlink:href="#DejaVuSans-30" x="127.246094"/>
       <use xlink:href="#DejaVuSans-30" x="190.869141"/>
      </g>
     </g>
    </g>
    <g id="xtick_6">
     <g id="line2d_6">
      <path d="M 359.588583 289.26 
L 359.588583 9 
" clip-path="url(#p285484fe9f)" style="fill: none; stroke: #ffffff; stroke-linecap: round"/>
     </g>
     <g id="text_6">
      <!-- 1250 -->
      <g style="fill: #262626" transform="translate(338.592333 311.297422) scale(0.165 -0.165)">
       <use xlink:href="#DejaVuSans-31"/>
       <use xlink:href="#DejaVuSans-32" x="63.623047"/>
       <use xlink:href="#DejaVuSans-35" x="127.246094"/>
       <use xlink:href="#DejaVuSans-30" x="190.869141"/>
      </g>
     </g>
    </g>
    <g id="xtick_7">
     <g id="line2d_7">
      <path d="M 414.371982 289.26 
L 414.371982 9 
" clip-path="url(#p285484fe9f)" style="fill: none; stroke: #ffffff; stroke-linecap: round"/>
     </g>
     <g id="text_7">
      <!-- 1500 -->
      <g style="fill: #262626" transform="translate(393.375732 311.297422) scale(0.165 -0.165)">
       <use xlink:href="#DejaVuSans-31"/>
       <use xlink:href="#DejaVuSans-35" x="63.623047"/>
       <use xlink:href="#DejaVuSans-30" x="127.246094"/>
       <use xlink:href="#DejaVuSans-30" x="190.869141"/>
      </g>
     </g>
    </g>
    <g id="text_8">
     <!-- Steps -->
     <g style="fill: #262626" transform="translate(236.673281 332.406094) scale(0.18 -0.18)">
      <defs>
       <path id="DejaVuSans-53" d="M 3425 4513 
L 3425 3897 
Q 3066 4069 2747 4153 
Q 2428 4238 2131 4238 
Q 1616 4238 1336 4038 
Q 1056 3838 1056 3469 
Q 1056 3159 1242 3001 
Q 1428 2844 1947 2747 
L 2328 2669 
Q 3034 2534 3370 2195 
Q 3706 1856 3706 1288 
Q 3706 609 3251 259 
Q 2797 -91 1919 -91 
Q 1588 -91 1214 -16 
Q 841 59 441 206 
L 441 856 
Q 825 641 1194 531 
Q 1563 422 1919 422 
Q 2459 422 2753 634 
Q 3047 847 3047 1241 
Q 3047 1584 2836 1778 
Q 2625 1972 2144 2069 
L 1759 2144 
Q 1053 2284 737 2584 
Q 422 2884 422 3419 
Q 422 4038 858 4394 
Q 1294 4750 2059 4750 
Q 2388 4750 2728 4690 
Q 3069 4631 3425 4513 
z
" transform="scale(0.015625)"/>
       <path id="DejaVuSans-74" d="M 1172 4494 
L 1172 3500 
L 2356 3500 
L 2356 3053 
L 1172 3053 
L 1172 1153 
Q 1172 725 1289 603 
Q 1406 481 1766 481 
L 2356 481 
L 2356 0 
L 1766 0 
Q 1100 0 847 248 
Q 594 497 594 1153 
L 594 3053 
L 172 3053 
L 172 3500 
L 594 3500 
L 594 4494 
L 1172 4494 
z
" transform="scale(0.015625)"/>
       <path id="DejaVuSans-65" d="M 3597 1894 
L 3597 1613 
L 953 1613 
Q 991 1019 1311 708 
Q 1631 397 2203 397 
Q 2534 397 2845 478 
Q 3156 559 3463 722 
L 3463 178 
Q 3153 47 2828 -22 
Q 2503 -91 2169 -91 
Q 1331 -91 842 396 
Q 353 884 353 1716 
Q 353 2575 817 3079 
Q 1281 3584 2069 3584 
Q 2775 3584 3186 3129 
Q 3597 2675 3597 1894 
z
M 3022 2063 
Q 3016 2534 2758 2815 
Q 2500 3097 2075 3097 
Q 1594 3097 1305 2825 
Q 1016 2553 972 2059 
L 3022 2063 
z
" transform="scale(0.015625)"/>
       <path id="DejaVuSans-70" d="M 1159 525 
L 1159 -1331 
L 581 -1331 
L 581 3500 
L 1159 3500 
L 1159 2969 
Q 1341 3281 1617 3432 
Q 1894 3584 2278 3584 
Q 2916 3584 3314 3078 
Q 3713 2572 3713 1747 
Q 3713 922 3314 415 
Q 2916 -91 2278 -91 
Q 1894 -91 1617 61 
Q 1341 213 1159 525 
z
M 3116 1747 
Q 3116 2381 2855 2742 
Q 2594 3103 2138 3103 
Q 1681 3103 1420 2742 
Q 1159 2381 1159 1747 
Q 1159 1113 1420 752 
Q 1681 391 2138 391 
Q 2594 391 2855 752 
Q 3116 1113 3116 1747 
z
" transform="scale(0.015625)"/>
       <path id="DejaVuSans-73" d="M 2834 3397 
L 2834 2853 
Q 2591 2978 2328 3040 
Q 2066 3103 1784 3103 
Q 1356 3103 1142 2972 
Q 928 2841 928 2578 
Q 928 2378 1081 2264 
Q 1234 2150 1697 2047 
L 1894 2003 
Q 2506 1872 2764 1633 
Q 3022 1394 3022 966 
Q 3022 478 2636 193 
Q 2250 -91 1575 -91 
Q 1294 -91 989 -36 
Q 684 19 347 128 
L 347 722 
Q 666 556 975 473 
Q 1284 391 1588 391 
Q 1994 391 2212 530 
Q 2431 669 2431 922 
Q 2431 1156 2273 1281 
Q 2116 1406 1581 1522 
L 1381 1569 
Q 847 1681 609 1914 
Q 372 2147 372 2553 
Q 372 3047 722 3315 
Q 1072 3584 1716 3584 
Q 2034 3584 2315 3537 
Q 2597 3491 2834 3397 
z
" transform="scale(0.015625)"/>
      </defs>
      <use xlink:href="#DejaVuSans-53"/>
      <use xlink:href="#DejaVuSans-74" x="63.476562"/>
      <use xlink:href="#DejaVuSans-65" x="102.685547"/>
      <use xlink:href="#DejaVuSans-70" x="164.208984"/>
      <use xlink:href="#DejaVuSans-73" x="227.685547"/>
     </g>
    </g>
   </g>
   <g id="matplotlib.axis_2">
    <g id="ytick_1">
     <g id="line2d_8">
      <path d="M 71.91 280.663703 
L 451.8 280.663703 
" clip-path="url(#p285484fe9f)" style="fill: none; stroke: #ffffff; stroke-linecap: round"/>
     </g>
     <g id="text_9">
      <!-- 0 -->
      <g style="fill: #262626" transform="translate(51.911875 286.932414) scale(0.165 -0.165)">
       <use xlink:href="#DejaVuSans-30"/>
      </g>
     </g>
    </g>
    <g id="ytick_2">
     <g id="line2d_9">
      <path d="M 71.91 228.87878 
L 451.8 228.87878 
" clip-path="url(#p285484fe9f)" style="fill: none; stroke: #ffffff; stroke-linecap: round"/>
     </g>
     <g id="text_10">
      <!-- 100 -->
      <g style="fill: #262626" transform="translate(30.915625 235.147491) scale(0.165 -0.165)">
       <use xlink:href="#DejaVuSans-31"/>
       <use xlink:href="#DejaVuSans-30" x="63.623047"/>
       <use xlink:href="#DejaVuSans-30" x="127.246094"/>
      </g>
     </g>
    </g>
    <g id="ytick_3">
     <g id="line2d_10">
      <path d="M 71.91 177.093858 
L 451.8 177.093858 
" clip-path="url(#p285484fe9f)" style="fill: none; stroke: #ffffff; stroke-linecap: round"/>
     </g>
     <g id="text_11">
      <!-- 200 -->
      <g style="fill: #262626" transform="translate(30.915625 183.362569) scale(0.165 -0.165)">
       <use xlink:href="#DejaVuSans-32"/>
       <use xlink:href="#DejaVuSans-30" x="63.623047"/>
       <use xlink:href="#DejaVuSans-30" x="127.246094"/>
      </g>
     </g>
    </g>
    <g id="ytick_4">
     <g id="line2d_11">
      <path d="M 71.91 125.308936 
L 451.8 125.308936 
" clip-path="url(#p285484fe9f)" style="fill: none; stroke: #ffffff; stroke-linecap: round"/>
     </g>
     <g id="text_12">
      <!-- 300 -->
      <g style="fill: #262626" transform="translate(30.915625 131.577647) scale(0.165 -0.165)">
       <defs>
        <path id="DejaVuSans-33" d="M 2597 2516 
Q 3050 2419 3304 2112 
Q 3559 1806 3559 1356 
Q 3559 666 3084 287 
Q 2609 -91 1734 -91 
Q 1441 -91 1130 -33 
Q 819 25 488 141 
L 488 750 
Q 750 597 1062 519 
Q 1375 441 1716 441 
Q 2309 441 2620 675 
Q 2931 909 2931 1356 
Q 2931 1769 2642 2001 
Q 2353 2234 1838 2234 
L 1294 2234 
L 1294 2753 
L 1863 2753 
Q 2328 2753 2575 2939 
Q 2822 3125 2822 3475 
Q 2822 3834 2567 4026 
Q 2313 4219 1838 4219 
Q 1578 4219 1281 4162 
Q 984 4106 628 3988 
L 628 4550 
Q 988 4650 1302 4700 
Q 1616 4750 1894 4750 
Q 2613 4750 3031 4423 
Q 3450 4097 3450 3541 
Q 3450 3153 3228 2886 
Q 3006 2619 2597 2516 
z
" transform="scale(0.015625)"/>
       </defs>
       <use xlink:href="#DejaVuSans-33"/>
       <use xlink:href="#DejaVuSans-30" x="63.623047"/>
       <use xlink:href="#DejaVuSans-30" x="127.246094"/>
      </g>
     </g>
    </g>
    <g id="ytick_5">
     <g id="line2d_12">
      <path d="M 71.91 73.524013 
L 451.8 73.524013 
" clip-path="url(#p285484fe9f)" style="fill: none; stroke: #ffffff; stroke-linecap: round"/>
     </g>
     <g id="text_13">
      <!-- 400 -->
      <g style="fill: #262626" transform="translate(30.915625 79.792724) scale(0.165 -0.165)">
       <defs>
        <path id="DejaVuSans-34" d="M 2419 4116 
L 825 1625 
L 2419 1625 
L 2419 4116 
z
M 2253 4666 
L 3047 4666 
L 3047 1625 
L 3713 1625 
L 3713 1100 
L 3047 1100 
L 3047 0 
L 2419 0 
L 2419 1100 
L 313 1100 
L 313 1709 
L 2253 4666 
z
" transform="scale(0.015625)"/>
       </defs>
       <use xlink:href="#DejaVuSans-34"/>
       <use xlink:href="#DejaVuSans-30" x="63.623047"/>
       <use xlink:href="#DejaVuSans-30" x="127.246094"/>
      </g>
     </g>
    </g>
    <g id="ytick_6">
     <g id="line2d_13">
      <path d="M 71.91 21.739091 
L 451.8 21.739091 
" clip-path="url(#p285484fe9f)" style="fill: none; stroke: #ffffff; stroke-linecap: round"/>
     </g>
     <g id="text_14">
      <!-- 500 -->
      <g style="fill: #262626" transform="translate(30.915625 28.007802) scale(0.165 -0.165)">
       <use xlink:href="#DejaVuSans-35"/>
       <use xlink:href="#DejaVuSans-30" x="63.623047"/>
       <use xlink:href="#DejaVuSans-30" x="127.246094"/>
      </g>
     </g>
    </g>
    <g id="text_15">
     <!-- Total timesteps -->
     <g style="fill: #262626" transform="translate(23.172188 217.497656) rotate(-90) scale(0.18 -0.18)">
      <defs>
       <path id="DejaVuSans-54" d="M -19 4666 
L 3928 4666 
L 3928 4134 
L 2272 4134 
L 2272 0 
L 1638 0 
L 1638 4134 
L -19 4134 
L -19 4666 
z
" transform="scale(0.015625)"/>
       <path id="DejaVuSans-6f" d="M 1959 3097 
Q 1497 3097 1228 2736 
Q 959 2375 959 1747 
Q 959 1119 1226 758 
Q 1494 397 1959 397 
Q 2419 397 2687 759 
Q 2956 1122 2956 1747 
Q 2956 2369 2687 2733 
Q 2419 3097 1959 3097 
z
M 1959 3584 
Q 2709 3584 3137 3096 
Q 3566 2609 3566 1747 
Q 3566 888 3137 398 
Q 2709 -91 1959 -91 
Q 1206 -91 779 398 
Q 353 888 353 1747 
Q 353 2609 779 3096 
Q 1206 3584 1959 3584 
z
" transform="scale(0.015625)"/>
       <path id="DejaVuSans-61" d="M 2194 1759 
Q 1497 1759 1228 1600 
Q 959 1441 959 1056 
Q 959 750 1161 570 
Q 1363 391 1709 391 
Q 2188 391 2477 730 
Q 2766 1069 2766 1631 
L 2766 1759 
L 2194 1759 
z
M 3341 1997 
L 3341 0 
L 2766 0 
L 2766 531 
Q 2569 213 2275 61 
Q 1981 -91 1556 -91 
Q 1019 -91 701 211 
Q 384 513 384 1019 
Q 384 1609 779 1909 
Q 1175 2209 1959 2209 
L 2766 2209 
L 2766 2266 
Q 2766 2663 2505 2880 
Q 2244 3097 1772 3097 
Q 1472 3097 1187 3025 
Q 903 2953 641 2809 
L 641 3341 
Q 956 3463 1253 3523 
Q 1550 3584 1831 3584 
Q 2591 3584 2966 3190 
Q 3341 2797 3341 1997 
z
" transform="scale(0.015625)"/>
       <path id="DejaVuSans-6c" d="M 603 4863 
L 1178 4863 
L 1178 0 
L 603 0 
L 603 4863 
z
" transform="scale(0.015625)"/>
       <path id="DejaVuSans-20" transform="scale(0.015625)"/>
       <path id="DejaVuSans-69" d="M 603 3500 
L 1178 3500 
L 1178 0 
L 603 0 
L 603 3500 
z
M 603 4863 
L 1178 4863 
L 1178 4134 
L 603 4134 
L 603 4863 
z
" transform="scale(0.015625)"/>
       <path id="DejaVuSans-6d" d="M 3328 2828 
Q 3544 3216 3844 3400 
Q 4144 3584 4550 3584 
Q 5097 3584 5394 3201 
Q 5691 2819 5691 2113 
L 5691 0 
L 5113 0 
L 5113 2094 
Q 5113 2597 4934 2840 
Q 4756 3084 4391 3084 
Q 3944 3084 3684 2787 
Q 3425 2491 3425 1978 
L 3425 0 
L 2847 0 
L 2847 2094 
Q 2847 2600 2669 2842 
Q 2491 3084 2119 3084 
Q 1678 3084 1418 2786 
Q 1159 2488 1159 1978 
L 1159 0 
L 581 0 
L 581 3500 
L 1159 3500 
L 1159 2956 
Q 1356 3278 1631 3431 
Q 1906 3584 2284 3584 
Q 2666 3584 2933 3390 
Q 3200 3197 3328 2828 
z
" transform="scale(0.015625)"/>
      </defs>
      <use xlink:href="#DejaVuSans-54"/>
      <use xlink:href="#DejaVuSans-6f" x="44.083984"/>
      <use xlink:href="#DejaVuSans-74" x="105.265625"/>
      <use xlink:href="#DejaVuSans-61" x="144.474609"/>
      <use xlink:href="#DejaVuSans-6c" x="205.753906"/>
      <use xlink:href="#DejaVuSans-20" x="233.537109"/>
      <use xlink:href="#DejaVuSans-74" x="265.324219"/>
      <use xlink:href="#DejaVuSans-69" x="304.533203"/>
      <use xlink:href="#DejaVuSans-6d" x="332.316406"/>
      <use xlink:href="#DejaVuSans-65" x="429.728516"/>
      <use xlink:href="#DejaVuSans-73" x="491.251953"/>
      <use xlink:href="#DejaVuSans-74" x="543.351562"/>
      <use xlink:href="#DejaVuSans-65" x="582.560547"/>
      <use xlink:href="#DejaVuSans-70" x="644.083984"/>
      <use xlink:href="#DejaVuSans-73" x="707.560547"/>
     </g>
    </g>
   </g>
   <g id="PolyCollection_1"/>
   <g id="PolyCollection_2"/>
   <g id="PolyCollection_3">
    <defs>
     <path id="m4fa1ace75e" d="M 89.177727 -73.221885 
L 89.177727 -72.704035 
L 90.930796 -73.221885 
L 94.436934 -73.221885 
L 97.943071 -72.445111 
L 101.449209 -72.186186 
L 104.955346 -72.704035 
L 108.461484 -73.480809 
L 111.967621 -73.739734 
L 115.473759 -74.257583 
L 118.979896 -77.623603 
L 122.486034 -80.730698 
L 125.992171 -80.730698 
L 129.498309 -86.685965 
L 133.004446 -92.382306 
L 136.510584 -94.453703 
L 140.016721 -96.784024 
L 143.522859 -100.926818 
L 147.028996 -102.480366 
L 150.535134 -99.632195 
L 154.041271 -107.658858 
L 157.547409 -112.060576 
L 161.053546 -119.828315 
L 164.559684 -125.524656 
L 168.065821 -122.158636 
L 171.571959 -124.488958 
L 175.078096 -130.444224 
L 178.584234 -137.953038 
L 182.090371 -137.953038 
L 185.596509 -137.176264 
L 189.102647 -157.113459 
L 192.608784 -193.10398 
L 196.114922 -225.987406 
L 199.621059 -221.067838 
L 203.127197 -228.058803 
L 206.633334 -236.085466 
L 211.89254 -227.799878 
L 217.151747 -281.656197 
L 220.657884 -323.860909 
L 224.164022 -323.860909 
L 227.670159 -323.860909 
L 231.176297 -323.860909 
L 234.682434 -323.860909 
L 238.188572 -323.860909 
L 241.694709 -323.860909 
L 245.200847 -323.860909 
L 248.706984 -323.860909 
L 252.213122 -323.860909 
L 255.719259 -323.860909 
L 259.225397 -323.860909 
L 262.731534 -323.860909 
L 266.237672 -323.860909 
L 269.743809 -323.860909 
L 273.249947 -323.860909 
L 276.756084 -323.860909 
L 280.262222 -323.860909 
L 283.768359 -323.860909 
L 287.274497 -323.860909 
L 290.780635 -323.860909 
L 294.286772 -323.860909 
L 297.79291 -323.860909 
L 301.299047 -323.860909 
L 304.805185 -323.860909 
L 308.311322 -323.860909 
L 311.81746 -323.860909 
L 315.323597 -323.860909 
L 320.582803 -323.860909 
L 325.84201 -323.860909 
L 329.348147 -323.860909 
L 332.854285 -323.860909 
L 336.360422 -323.860909 
L 339.86656 -323.860909 
L 343.372697 -323.860909 
L 346.878835 -323.860909 
L 350.384972 -323.860909 
L 353.89111 -323.860909 
L 357.397247 -323.860909 
L 360.903385 -323.860909 
L 364.409522 -323.860909 
L 367.91566 -323.860909 
L 371.421797 -323.860909 
L 374.927935 -323.860909 
L 378.434072 -323.860909 
L 381.94021 -323.860909 
L 385.446347 -323.860909 
L 388.952485 -323.860909 
L 392.458623 -323.860909 
L 395.96476 -323.860909 
L 399.470898 -323.860909 
L 402.977035 -323.860909 
L 406.483173 -323.860909 
L 409.98931 -323.860909 
L 413.495448 -323.860909 
L 417.001585 -323.860909 
L 422.260791 -323.860909 
L 427.519998 -323.860909 
L 431.026135 -323.860909 
L 434.532273 -323.860909 
L 434.532273 -323.860909 
L 434.532273 -323.860909 
L 431.026135 -323.860909 
L 427.519998 -323.860909 
L 422.260791 -323.860909 
L 417.001585 -323.860909 
L 413.495448 -323.860909 
L 409.98931 -323.860909 
L 406.483173 -323.860909 
L 402.977035 -323.860909 
L 399.470898 -323.860909 
L 395.96476 -323.860909 
L 392.458623 -323.860909 
L 388.952485 -323.860909 
L 385.446347 -323.860909 
L 381.94021 -323.860909 
L 378.434072 -323.860909 
L 374.927935 -323.860909 
L 371.421797 -323.860909 
L 367.91566 -323.860909 
L 364.409522 -323.860909 
L 360.903385 -323.860909 
L 357.397247 -323.860909 
L 353.89111 -323.860909 
L 350.384972 -323.860909 
L 346.878835 -323.860909 
L 343.372697 -323.860909 
L 339.86656 -323.860909 
L 336.360422 -323.860909 
L 332.854285 -323.860909 
L 329.348147 -323.860909 
L 325.84201 -323.860909 
L 320.582803 -323.860909 
L 315.323597 -323.860909 
L 311.81746 -323.860909 
L 308.311322 -323.860909 
L 304.805185 -323.860909 
L 301.299047 -323.860909 
L 297.79291 -323.860909 
L 294.286772 -323.860909 
L 290.780635 -323.860909 
L 287.274497 -323.860909 
L 283.768359 -323.860909 
L 280.262222 -323.860909 
L 276.756084 -323.860909 
L 273.249947 -323.860909 
L 269.743809 -323.860909 
L 266.237672 -323.860909 
L 262.731534 -323.860909 
L 259.225397 -323.860909 
L 255.719259 -323.860909 
L 252.213122 -323.860909 
L 248.706984 -323.860909 
L 245.200847 -323.860909 
L 241.694709 -323.860909 
L 238.188572 -323.860909 
L 234.682434 -323.860909 
L 231.176297 -323.860909 
L 227.670159 -323.860909 
L 224.164022 -323.860909 
L 220.657884 -323.860909 
L 217.151747 -281.656197 
L 211.89254 -239.192561 
L 206.633334 -247.478149 
L 203.127197 -228.058803 
L 199.621059 -222.88031 
L 196.114922 -227.799878 
L 192.608784 -222.103537 
L 189.102647 -227.282029 
L 185.596509 -240.228259 
L 182.090371 -233.49622 
L 178.584234 -211.746552 
L 175.078096 -212.782251 
L 171.571959 -205.273437 
L 168.065821 -193.362905 
L 164.559684 -187.925488 
L 161.053546 -181.711297 
L 157.547409 -173.943559 
L 154.041271 -173.42571 
L 150.535134 -168.765067 
L 147.028996 -159.702705 
L 143.522859 -150.381419 
L 140.016721 -148.310022 
L 136.510584 -150.381419 
L 133.004446 -147.792173 
L 129.498309 -144.167228 
L 125.992171 -136.658415 
L 122.486034 -123.194335 
L 118.979896 -120.087239 
L 115.473759 -124.747882 
L 111.967621 -123.194335 
L 108.461484 -117.239069 
L 104.955346 -109.730255 
L 101.449209 -101.444667 
L 97.943071 -93.935854 
L 94.436934 -85.650266 
L 90.930796 -77.364678 
L 89.177727 -73.221885 
z
" style="stroke: #ff0000; stroke-opacity: 0.2"/>
    </defs>
    <g clip-path="url(#p285484fe9f)">
     <use xlink:href="#m4fa1ace75e" x="0" y="345.6" style="fill: #ff0000; fill-opacity: 0.2; stroke: #ff0000; stroke-opacity: 0.2"/>
    </g>
   </g>
   <g id="PolyCollection_4">
    <defs>
     <path id="m6f62e74434" d="M 89.177727 -73.221885 
L 89.177727 -72.704035 
L 90.930796 -69.079091 
L 94.436934 -69.338016 
L 97.943071 -69.338016 
L 101.449209 -69.079091 
L 104.955346 -69.079091 
L 108.461484 -69.338016 
L 111.967621 -69.338016 
L 115.473759 -69.079091 
L 118.979896 -69.079091 
L 122.486034 -69.855865 
L 125.992171 -69.855865 
L 129.498309 -70.632639 
L 133.004446 -76.587905 
L 136.510584 -71.409412 
L 140.016721 -71.927262 
L 143.522859 -77.105754 
L 147.028996 -79.953925 
L 150.535134 -84.614568 
L 154.041271 -83.319945 
L 157.547409 -86.944889 
L 161.053546 -96.784024 
L 164.559684 -99.632195 
L 168.065821 -101.962517 
L 171.571959 -85.650266 
L 175.078096 -80.212849 
L 178.584234 -104.033914 
L 182.090371 -114.131973 
L 185.596509 -120.346164 
L 189.102647 -119.56939 
L 192.608784 -122.417561 
L 196.114922 -134.069169 
L 199.621059 -138.211962 
L 203.127197 -139.506585 
L 206.633334 -184.818392 
L 210.139472 -206.050211 
L 215.398678 -184.818392 
L 224.164022 -255.763736 
L 231.176297 -323.860909 
L 236.435503 -323.860909 
L 241.694709 -323.860909 
L 245.200847 -323.860909 
L 248.706984 -323.860909 
L 252.213122 -323.860909 
L 255.719259 -323.860909 
L 259.225397 -323.860909 
L 262.731534 -323.860909 
L 266.237672 -323.860909 
L 269.743809 -323.860909 
L 273.249947 -323.860909 
L 276.756084 -323.860909 
L 280.262222 -194.657528 
L 283.768359 -194.657528 
L 287.274497 -323.860909 
L 290.780635 -323.860909 
L 294.286772 -323.860909 
L 297.79291 -323.860909 
L 301.299047 -323.860909 
L 304.805185 -323.860909 
L 308.311322 -323.860909 
L 311.81746 -323.860909 
L 315.323597 -323.860909 
L 318.829735 -323.860909 
L 324.088941 -323.860909 
L 332.854285 -323.860909 
L 339.86656 -323.860909 
L 345.125766 -323.860909 
L 350.384972 -323.860909 
L 353.89111 -323.860909 
L 357.397247 -323.860909 
L 360.903385 -323.860909 
L 364.409522 -323.860909 
L 367.91566 -323.860909 
L 371.421797 -323.860909 
L 374.927935 -323.860909 
L 378.434072 -323.860909 
L 381.94021 -323.860909 
L 385.446347 -323.860909 
L 388.952485 -194.657528 
L 392.458623 -194.657528 
L 395.96476 -323.860909 
L 399.470898 -323.860909 
L 402.977035 -323.860909 
L 406.483173 -323.860909 
L 409.98931 -323.860909 
L 413.495448 -323.860909 
L 417.001585 -323.860909 
L 420.507723 -323.860909 
L 424.01386 -323.860909 
L 427.519998 -323.860909 
L 432.779204 -323.860909 
L 432.779204 -323.860909 
L 432.779204 -323.860909 
L 427.519998 -323.860909 
L 424.01386 -323.860909 
L 420.507723 -323.860909 
L 417.001585 -323.860909 
L 413.495448 -323.860909 
L 409.98931 -323.860909 
L 406.483173 -323.860909 
L 402.977035 -323.860909 
L 399.470898 -323.860909 
L 395.96476 -323.860909 
L 392.458623 -323.860909 
L 388.952485 -323.860909 
L 385.446347 -323.860909 
L 381.94021 -323.860909 
L 378.434072 -323.860909 
L 374.927935 -323.860909 
L 371.421797 -323.860909 
L 367.91566 -323.860909 
L 364.409522 -323.860909 
L 360.903385 -323.860909 
L 357.397247 -323.860909 
L 353.89111 -323.860909 
L 350.384972 -323.860909 
L 345.125766 -323.860909 
L 339.86656 -323.860909 
L 332.854285 -323.860909 
L 324.088941 -323.860909 
L 318.829735 -323.860909 
L 315.323597 -323.860909 
L 311.81746 -323.860909 
L 308.311322 -323.860909 
L 304.805185 -323.860909 
L 301.299047 -323.860909 
L 297.79291 -323.860909 
L 294.286772 -323.860909 
L 290.780635 -323.860909 
L 287.274497 -323.860909 
L 283.768359 -323.860909 
L 280.262222 -323.860909 
L 276.756084 -323.860909 
L 273.249947 -323.860909 
L 269.743809 -323.860909 
L 266.237672 -323.860909 
L 262.731534 -323.860909 
L 259.225397 -323.860909 
L 255.719259 -323.860909 
L 252.213122 -323.860909 
L 248.706984 -323.860909 
L 245.200847 -323.860909 
L 241.694709 -323.860909 
L 236.435503 -323.860909 
L 231.176297 -323.860909 
L 224.164022 -255.763736 
L 215.398678 -184.818392 
L 210.139472 -206.050211 
L 206.633334 -227.282029 
L 203.127197 -214.853647 
L 199.621059 -203.20204 
L 196.114922 -199.059246 
L 192.608784 -198.800322 
L 189.102647 -190.773659 
L 185.596509 -178.604202 
L 182.090371 -177.309579 
L 178.584234 -172.90786 
L 175.078096 -174.461408 
L 171.571959 -166.17582 
L 168.065821 -162.550876 
L 164.559684 -160.738404 
L 161.053546 -142.354756 
L 157.547409 -135.622716 
L 154.041271 -137.953038 
L 150.535134 -145.202927 
L 147.028996 -137.694113 
L 143.522859 -128.113902 
L 140.016721 -123.971109 
L 136.510584 -116.20337 
L 133.004446 -111.542727 
L 129.498309 -117.497993 
L 125.992171 -112.578426 
L 122.486034 -112.83735 
L 118.979896 -123.194335 
L 115.473759 -125.524656 
L 111.967621 -125.006807 
L 108.461484 -115.426596 
L 104.955346 -108.953481 
L 101.449209 -101.962517 
L 97.943071 -93.676929 
L 94.436934 -85.650266 
L 90.930796 -77.364678 
L 89.177727 -73.221885 
z
" style="stroke: #008000; stroke-opacity: 0.2"/>
    </defs>
    <g clip-path="url(#p285484fe9f)">
     <use xlink:href="#m6f62e74434" x="0" y="345.6" style="fill: #008000; fill-opacity: 0.2; stroke: #008000; stroke-opacity: 0.2"/>
    </g>
   </g>
   <g id="line2d_14">
    <path d="M 89.177727 272.688825 
L 90.930796 270.738234 
L 94.436934 265.852325 
L 97.943071 263.388977 
L 101.449209 263.916758 
L 104.955346 263.471077 
L 108.461484 261.59015 
L 111.967621 259.713682 
L 115.473759 256.18374 
L 118.979896 252.182413 
L 122.486034 249.525419 
L 125.992171 246.209972 
L 129.498309 240.497831 
L 133.004446 235.836273 
L 136.510584 231.47403 
L 140.016721 228.855516 
L 143.522859 226.302248 
L 147.028996 219.348311 
L 150.535134 212.736384 
L 154.041271 203.963971 
L 157.547409 196.311713 
L 161.053546 193.345198 
L 164.559684 197.368134 
L 168.065821 196.789192 
L 171.571959 187.117756 
L 175.078096 175.514531 
L 178.584234 171.54588 
L 182.090371 163.100756 
L 185.596509 146.326427 
L 189.102647 142.195501 
L 192.608784 139.393358 
L 196.114922 119.431344 
L 199.621059 124.350911 
L 203.127197 117.541197 
L 206.633334 100.783019 
L 211.89254 109.068607 
L 217.151747 63.943803 
L 220.657884 21.739091 
L 224.164022 21.739091 
L 227.670159 21.739091 
L 231.176297 21.739091 
L 234.682434 21.739091 
L 238.188572 21.739091 
L 241.694709 21.739091 
L 245.200847 21.739091 
L 248.706984 21.739091 
L 252.213122 21.739091 
L 255.719259 21.739091 
L 259.225397 21.739091 
L 262.731534 21.739091 
L 266.237672 21.739091 
L 269.743809 21.739091 
L 273.249947 21.739091 
L 276.756084 21.739091 
L 280.262222 21.739091 
L 283.768359 21.739091 
L 287.274497 21.739091 
L 290.780635 21.739091 
L 294.286772 21.739091 
L 297.79291 21.739091 
L 301.299047 21.739091 
L 304.805185 21.739091 
L 308.311322 21.739091 
L 311.81746 21.739091 
L 315.323597 21.739091 
L 320.582803 21.739091 
L 325.84201 21.739091 
L 329.348147 21.739091 
L 332.854285 21.739091 
L 336.360422 21.739091 
L 339.86656 21.739091 
L 343.372697 21.739091 
L 346.878835 21.739091 
L 350.384972 21.739091 
L 353.89111 21.739091 
L 357.397247 21.739091 
L 360.903385 21.739091 
L 364.409522 21.739091 
L 367.91566 21.739091 
L 371.421797 21.739091 
L 374.927935 21.739091 
L 378.434072 21.739091 
L 381.94021 21.739091 
L 385.446347 21.739091 
L 388.952485 21.739091 
L 392.458623 21.739091 
L 395.96476 21.739091 
L 399.470898 21.739091 
L 402.977035 21.739091 
L 406.483173 21.739091 
L 409.98931 21.739091 
L 413.495448 21.739091 
L 417.001585 21.739091 
L 422.260791 21.739091 
L 427.519998 21.739091 
L 431.026135 21.739091 
L 434.532273 21.739091 
" clip-path="url(#p285484fe9f)" style="fill: none; stroke: #ff0000; stroke-width: 1.5; stroke-linecap: round"/>
   </g>
   <g id="line2d_15">
    <path d="M 89.177727 272.688825 
L 90.930796 270.757944 
L 94.436934 265.793537 
L 97.943071 263.125365 
L 101.449209 262.868165 
L 104.955346 261.544485 
L 108.461484 260.692422 
L 111.967621 260.130185 
L 115.473759 261.17051 
L 118.979896 262.789227 
L 122.486034 263.060711 
L 125.992171 261.462312 
L 129.498309 257.781931 
L 133.004446 253.882111 
L 136.510584 251.26004 
L 140.016721 247.51003 
L 143.522859 244.584192 
L 147.028996 243.795653 
L 150.535134 244.420432 
L 154.041271 241.990332 
L 157.547409 236.521345 
L 161.053546 230.365317 
L 164.559684 224.045332 
L 168.065821 222.524199 
L 171.571959 219.971617 
L 175.078096 214.039525 
L 178.584234 205.888597 
L 182.090371 199.731181 
L 185.596509 194.074873 
L 189.102647 192.583864 
L 192.608784 179.548364 
L 196.114922 159.466847 
L 199.621059 166.756723 
L 203.127197 177.162038 
L 206.633334 145.812311 
L 210.139472 139.549789 
L 215.398678 160.781608 
L 224.164022 89.836264 
L 231.176297 21.739091 
L 236.435503 21.739091 
L 241.694709 21.739091 
L 245.200847 21.739091 
L 248.706984 21.739091 
L 252.213122 21.739091 
L 255.719259 21.739091 
L 259.225397 21.739091 
L 262.731534 21.739091 
L 266.237672 21.739091 
L 269.743809 21.739091 
L 273.249947 21.739091 
L 276.756084 21.739091 
L 280.262222 25.742055 
L 283.768359 25.742055 
L 287.274497 21.739091 
L 290.780635 21.739091 
L 294.286772 21.739091 
L 297.79291 21.739091 
L 301.299047 21.739091 
L 304.805185 21.739091 
L 308.311322 21.739091 
L 311.81746 21.739091 
L 315.323597 21.739091 
L 318.829735 21.739091 
L 324.088941 21.739091 
L 332.854285 21.739091 
L 339.86656 21.739091 
L 345.125766 21.739091 
L 350.384972 21.739091 
L 353.89111 21.739091 
L 357.397247 21.739091 
L 360.903385 21.739091 
L 364.409522 21.739091 
L 367.91566 21.739091 
L 371.421797 21.739091 
L 374.927935 21.739091 
L 378.434072 21.739091 
L 381.94021 21.739091 
L 385.446347 21.739091 
L 388.952485 23.837362 
L 392.458623 23.837362 
L 395.96476 21.739091 
L 399.470898 21.739091 
L 402.977035 21.739091 
L 406.483173 21.739091 
L 409.98931 21.739091 
L 413.495448 21.739091 
L 417.001585 21.739091 
L 420.507723 21.739091 
L 424.01386 21.739091 
L 427.519998 21.739091 
L 432.779204 21.739091 
" clip-path="url(#p285484fe9f)" style="fill: none; stroke: #008000; stroke-width: 1.5; stroke-linecap: round"/>
   </g>
   <g id="patch_3">
    <path d="M 71.91 289.26 
L 71.91 9 
" style="fill: none; stroke: #ffffff; stroke-width: 1.25; stroke-linejoin: miter; stroke-linecap: square"/>
   </g>
   <g id="patch_4">
    <path d="M 451.8 289.26 
L 451.8 9 
" style="fill: none; stroke: #ffffff; stroke-width: 1.25; stroke-linejoin: miter; stroke-linecap: square"/>
   </g>
   <g id="patch_5">
    <path d="M 71.91 289.26 
L 451.8 289.26 
" style="fill: none; stroke: #ffffff; stroke-width: 1.25; stroke-linejoin: miter; stroke-linecap: square"/>
   </g>
   <g id="patch_6">
    <path d="M 71.91 9 
L 451.8 9 
" style="fill: none; stroke: #ffffff; stroke-width: 1.25; stroke-linejoin: miter; stroke-linecap: square"/>
   </g>
   <g id="legend_1">
    <g id="patch_7">
     <path d="M 83.46 46.418906 
L 165.776953 46.418906 
Q 169.076953 46.418906 169.076953 43.118906 
L 169.076953 20.55 
Q 169.076953 17.25 165.776953 17.25 
L 83.46 17.25 
Q 80.16 17.25 80.16 20.55 
L 80.16 43.118906 
Q 80.16 46.418906 83.46 46.418906 
z
" style="fill: #eaeaf2; opacity: 0.8; stroke: #cccccc; stroke-linejoin: miter"/>
    </g>
    <g id="line2d_16">
     <path d="M 86.76 30.612422 
L 103.26 30.612422 
L 119.76 30.612422 
" style="fill: none; stroke: #008000; stroke-width: 1.5; stroke-linecap: round"/>
    </g>
    <g id="text_16">
     <!-- skrl -->
     <g style="fill: #262626" transform="translate(132.96 36.387422) scale(0.165 -0.165)">
      <defs>
       <path id="DejaVuSans-6b" d="M 581 4863 
L 1159 4863 
L 1159 1991 
L 2875 3500 
L 3609 3500 
L 1753 1863 
L 3688 0 
L 2938 0 
L 1159 1709 
L 1159 0 
L 581 0 
L 581 4863 
z
" transform="scale(0.015625)"/>
       <path id="DejaVuSans-72" d="M 2631 2963 
Q 2534 3019 2420 3045 
Q 2306 3072 2169 3072 
Q 1681 3072 1420 2755 
Q 1159 2438 1159 1844 
L 1159 0 
L 581 0 
L 581 3500 
L 1159 3500 
L 1159 2956 
Q 1341 3275 1631 3429 
Q 1922 3584 2338 3584 
Q 2397 3584 2469 3576 
Q 2541 3569 2628 3553 
L 2631 2963 
z
" transform="scale(0.015625)"/>
      </defs>
      <use xlink:href="#DejaVuSans-73"/>
      <use xlink:href="#DejaVuSans-6b" x="52.099609"/>
      <use xlink:href="#DejaVuSans-72" x="110.009766"/>
      <use xlink:href="#DejaVuSans-6c" x="151.123047"/>
     </g>
    </g>
   </g>
  </g>
 </g>
 <defs>
  <clipPath id="p285484fe9f">
   <rect x="71.91" y="9" width="379.89" height="280.26"/>
  </clipPath>
 </defs>
</svg>
