<?xml version="1.0" encoding="utf-8" standalone="no"?>
<!DOCTYPE svg PUBLIC "-//W3C//DTD SVG 1.1//EN"
  "http://www.w3.org/Graphics/SVG/1.1/DTD/svg11.dtd">
<svg xmlns:xlink="http://www.w3.org/1999/xlink" width="456.705pt" height="340.829531pt" viewBox="0 0 456.705 340.829531" xmlns="http://www.w3.org/2000/svg" version="1.1">
 <metadata>
  <rdf:RDF xmlns:dc="http://purl.org/dc/elements/1.1/" xmlns:cc="http://creativecommons.org/ns#" xmlns:rdf="http://www.w3.org/1999/02/22-rdf-syntax-ns#">
   <cc:Work>
    <dc:type rdf:resource="http://purl.org/dc/dcmitype/StillImage"/>
    <dc:date>2024-02-06T17:55:12.739163</dc:date>
    <dc:format>image/svg+xml</dc:format>
    <dc:creator>
     <cc:Agent>
      <dc:title>Matplotlib v3.7.1, https://matplotlib.org/</dc:title>
     </cc:Agent>
    </dc:creator>
   </cc:Work>
  </rdf:RDF>
 </metadata>
 <defs>
  <style type="text/css">*{stroke-linejoin: round; stroke-linecap: butt}</style>
 </defs>
 <g id="figure_1">
  <g id="patch_1">
   <path d="M 0 340.829531 
L 456.705 340.829531 
L 456.705 0 
L 0 0 
z
" style="fill: #ffffff"/>
  </g>
  <g id="axes_1">
   <g id="patch_2">
    <path d="M 69.615 286.74 
L 449.505 286.74 
L 449.505 7.2 
L 69.615 7.2 
z
" style="fill: #eaeaf2"/>
   </g>
   <g id="matplotlib.axis_1">
    <g id="xtick_1">
     <g id="line2d_1">
      <path d="M 86.882727 286.74 
L 86.882727 7.2 
" clip-path="url(#p4b646d7dcf)" style="fill: none; stroke: #ffffff; stroke-linecap: round"/>
     </g>
     <g id="text_1">
      <!-- 0 -->
      <g style="fill: #262626" transform="translate(81.633665 308.777422) scale(0.165 -0.165)">
       <defs>
        <path id="DejaVuSans-30" d="M 2034 4250 
Q 1547 4250 1301 3770 
Q 1056 3291 1056 2328 
Q 1056 1369 1301 889 
Q 1547 409 2034 409 
Q 2525 409 2770 889 
Q 3016 1369 3016 2328 
Q 3016 3291 2770 3770 
Q 2525 4250 2034 4250 
z
M 2034 4750 
Q 2819 4750 3233 4129 
Q 3647 3509 3647 2328 
Q 3647 1150 3233 529 
Q 2819 -91 2034 -91 
Q 1250 -91 836 529 
Q 422 1150 422 2328 
Q 422 3509 836 4129 
Q 1250 4750 2034 4750 
z
" transform="scale(0.015625)"/>
       </defs>
       <use xlink:href="#DejaVuSans-30"/>
      </g>
     </g>
    </g>
    <g id="xtick_2">
     <g id="line2d_2">
      <path d="M 151.414853 286.74 
L 151.414853 7.2 
" clip-path="url(#p4b646d7dcf)" style="fill: none; stroke: #ffffff; stroke-linecap: round"/>
     </g>
     <g id="text_2">
      <!-- 2 -->
      <g style="fill: #262626" transform="translate(146.165791 308.777422) scale(0.165 -0.165)">
       <defs>
        <path id="DejaVuSans-32" d="M 1228 531 
L 3431 531 
L 3431 0 
L 469 0 
L 469 531 
Q 828 903 1448 1529 
Q 2069 2156 2228 2338 
Q 2531 2678 2651 2914 
Q 2772 3150 2772 3378 
Q 2772 3750 2511 3984 
Q 2250 4219 1831 4219 
Q 1534 4219 1204 4116 
Q 875 4013 500 3803 
L 500 4441 
Q 881 4594 1212 4672 
Q 1544 4750 1819 4750 
Q 2544 4750 2975 4387 
Q 3406 4025 3406 3419 
Q 3406 3131 3298 2873 
Q 3191 2616 2906 2266 
Q 2828 2175 2409 1742 
Q 1991 1309 1228 531 
z
" transform="scale(0.015625)"/>
       </defs>
       <use xlink:href="#DejaVuSans-32"/>
      </g>
     </g>
    </g>
    <g id="xtick_3">
     <g id="line2d_3">
      <path d="M 215.94698 286.74 
L 215.94698 7.2 
" clip-path="url(#p4b646d7dcf)" style="fill: none; stroke: #ffffff; stroke-linecap: round"/>
     </g>
     <g id="text_3">
      <!-- 4 -->
      <g style="fill: #262626" transform="translate(210.697917 308.777422) scale(0.165 -0.165)">
       <defs>
        <path id="DejaVuSans-34" d="M 2419 4116 
L 825 1625 
L 2419 1625 
L 2419 4116 
z
M 2253 4666 
L 3047 4666 
L 3047 1625 
L 3713 1625 
L 3713 1100 
L 3047 1100 
L 3047 0 
L 2419 0 
L 2419 1100 
L 313 1100 
L 313 1709 
L 2253 4666 
z
" transform="scale(0.015625)"/>
       </defs>
       <use xlink:href="#DejaVuSans-34"/>
      </g>
     </g>
    </g>
    <g id="xtick_4">
     <g id="line2d_4">
      <path d="M 280.479106 286.74 
L 280.479106 7.2 
" clip-path="url(#p4b646d7dcf)" style="fill: none; stroke: #ffffff; stroke-linecap: round"/>
     </g>
     <g id="text_4">
      <!-- 6 -->
      <g style="fill: #262626" transform="translate(275.230043 308.777422) scale(0.165 -0.165)">
       <defs>
        <path id="DejaVuSans-36" d="M 2113 2584 
Q 1688 2584 1439 2293 
Q 1191 2003 1191 1497 
Q 1191 994 1439 701 
Q 1688 409 2113 409 
Q 2538 409 2786 701 
Q 3034 994 3034 1497 
Q 3034 2003 2786 2293 
Q 2538 2584 2113 2584 
z
M 3366 4563 
L 3366 3988 
Q 3128 4100 2886 4159 
Q 2644 4219 2406 4219 
Q 1781 4219 1451 3797 
Q 1122 3375 1075 2522 
Q 1259 2794 1537 2939 
Q 1816 3084 2150 3084 
Q 2853 3084 3261 2657 
Q 3669 2231 3669 1497 
Q 3669 778 3244 343 
Q 2819 -91 2113 -91 
Q 1303 -91 875 529 
Q 447 1150 447 2328 
Q 447 3434 972 4092 
Q 1497 4750 2381 4750 
Q 2619 4750 2861 4703 
Q 3103 4656 3366 4563 
z
" transform="scale(0.015625)"/>
       </defs>
       <use xlink:href="#DejaVuSans-36"/>
      </g>
     </g>
    </g>
    <g id="xtick_5">
     <g id="line2d_5">
      <path d="M 345.011232 286.74 
L 345.011232 7.2 
" clip-path="url(#p4b646d7dcf)" style="fill: none; stroke: #ffffff; stroke-linecap: round"/>
     </g>
     <g id="text_5">
      <!-- 8 -->
      <g style="fill: #262626" transform="translate(339.76217 308.777422) scale(0.165 -0.165)">
       <defs>
        <path id="DejaVuSans-38" d="M 2034 2216 
Q 1584 2216 1326 1975 
Q 1069 1734 1069 1313 
Q 1069 891 1326 650 
Q 1584 409 2034 409 
Q 2484 409 2743 651 
Q 3003 894 3003 1313 
Q 3003 1734 2745 1975 
Q 2488 2216 2034 2216 
z
M 1403 2484 
Q 997 2584 770 2862 
Q 544 3141 544 3541 
Q 544 4100 942 4425 
Q 1341 4750 2034 4750 
Q 2731 4750 3128 4425 
Q 3525 4100 3525 3541 
Q 3525 3141 3298 2862 
Q 3072 2584 2669 2484 
Q 3125 2378 3379 2068 
Q 3634 1759 3634 1313 
Q 3634 634 3220 271 
Q 2806 -91 2034 -91 
Q 1263 -91 848 271 
Q 434 634 434 1313 
Q 434 1759 690 2068 
Q 947 2378 1403 2484 
z
M 1172 3481 
Q 1172 3119 1398 2916 
Q 1625 2713 2034 2713 
Q 2441 2713 2670 2916 
Q 2900 3119 2900 3481 
Q 2900 3844 2670 4047 
Q 2441 4250 2034 4250 
Q 1625 4250 1398 4047 
Q 1172 3844 1172 3481 
z
" transform="scale(0.015625)"/>
       </defs>
       <use xlink:href="#DejaVuSans-38"/>
      </g>
     </g>
    </g>
    <g id="xtick_6">
     <g id="line2d_6">
      <path d="M 409.543358 286.74 
L 409.543358 7.2 
" clip-path="url(#p4b646d7dcf)" style="fill: none; stroke: #ffffff; stroke-linecap: round"/>
     </g>
     <g id="text_6">
      <!-- 10 -->
      <g style="fill: #262626" transform="translate(399.045233 308.777422) scale(0.165 -0.165)">
       <defs>
        <path id="DejaVuSans-31" d="M 794 531 
L 1825 531 
L 1825 4091 
L 703 3866 
L 703 4441 
L 1819 4666 
L 2450 4666 
L 2450 531 
L 3481 531 
L 3481 0 
L 794 0 
L 794 531 
z
" transform="scale(0.015625)"/>
       </defs>
       <use xlink:href="#DejaVuSans-31"/>
       <use xlink:href="#DejaVuSans-30" x="63.623047"/>
      </g>
     </g>
    </g>
    <g id="text_7">
     <!-- Time (s) -->
     <g style="fill: #262626" transform="translate(222.967969 329.886094) scale(0.18 -0.18)">
      <defs>
       <path id="DejaVuSans-54" d="M -19 4666 
L 3928 4666 
L 3928 4134 
L 2272 4134 
L 2272 0 
L 1638 0 
L 1638 4134 
L -19 4134 
L -19 4666 
z
" transform="scale(0.015625)"/>
       <path id="DejaVuSans-69" d="M 603 3500 
L 1178 3500 
L 1178 0 
L 603 0 
L 603 3500 
z
M 603 4863 
L 1178 4863 
L 1178 4134 
L 603 4134 
L 603 4863 
z
" transform="scale(0.015625)"/>
       <path id="DejaVuSans-6d" d="M 3328 2828 
Q 3544 3216 3844 3400 
Q 4144 3584 4550 3584 
Q 5097 3584 5394 3201 
Q 5691 2819 5691 2113 
L 5691 0 
L 5113 0 
L 5113 2094 
Q 5113 2597 4934 2840 
Q 4756 3084 4391 3084 
Q 3944 3084 3684 2787 
Q 3425 2491 3425 1978 
L 3425 0 
L 2847 0 
L 2847 2094 
Q 2847 2600 2669 2842 
Q 2491 3084 2119 3084 
Q 1678 3084 1418 2786 
Q 1159 2488 1159 1978 
L 1159 0 
L 581 0 
L 581 3500 
L 1159 3500 
L 1159 2956 
Q 1356 3278 1631 3431 
Q 1906 3584 2284 3584 
Q 2666 3584 2933 3390 
Q 3200 3197 3328 2828 
z
" transform="scale(0.015625)"/>
       <path id="DejaVuSans-65" d="M 3597 1894 
L 3597 1613 
L 953 1613 
Q 991 1019 1311 708 
Q 1631 397 2203 397 
Q 2534 397 2845 478 
Q 3156 559 3463 722 
L 3463 178 
Q 3153 47 2828 -22 
Q 2503 -91 2169 -91 
Q 1331 -91 842 396 
Q 353 884 353 1716 
Q 353 2575 817 3079 
Q 1281 3584 2069 3584 
Q 2775 3584 3186 3129 
Q 3597 2675 3597 1894 
z
M 3022 2063 
Q 3016 2534 2758 2815 
Q 2500 3097 2075 3097 
Q 1594 3097 1305 2825 
Q 1016 2553 972 2059 
L 3022 2063 
z
" transform="scale(0.015625)"/>
       <path id="DejaVuSans-20" transform="scale(0.015625)"/>
       <path id="DejaVuSans-28" d="M 1984 4856 
Q 1566 4138 1362 3434 
Q 1159 2731 1159 2009 
Q 1159 1288 1364 580 
Q 1569 -128 1984 -844 
L 1484 -844 
Q 1016 -109 783 600 
Q 550 1309 550 2009 
Q 550 2706 781 3412 
Q 1013 4119 1484 4856 
L 1984 4856 
z
" transform="scale(0.015625)"/>
       <path id="DejaVuSans-73" d="M 2834 3397 
L 2834 2853 
Q 2591 2978 2328 3040 
Q 2066 3103 1784 3103 
Q 1356 3103 1142 2972 
Q 928 2841 928 2578 
Q 928 2378 1081 2264 
Q 1234 2150 1697 2047 
L 1894 2003 
Q 2506 1872 2764 1633 
Q 3022 1394 3022 966 
Q 3022 478 2636 193 
Q 2250 -91 1575 -91 
Q 1294 -91 989 -36 
Q 684 19 347 128 
L 347 722 
Q 666 556 975 473 
Q 1284 391 1588 391 
Q 1994 391 2212 530 
Q 2431 669 2431 922 
Q 2431 1156 2273 1281 
Q 2116 1406 1581 1522 
L 1381 1569 
Q 847 1681 609 1914 
Q 372 2147 372 2553 
Q 372 3047 722 3315 
Q 1072 3584 1716 3584 
Q 2034 3584 2315 3537 
Q 2597 3491 2834 3397 
z
" transform="scale(0.015625)"/>
       <path id="DejaVuSans-29" d="M 513 4856 
L 1013 4856 
Q 1481 4119 1714 3412 
Q 1947 2706 1947 2009 
Q 1947 1309 1714 600 
Q 1481 -109 1013 -844 
L 513 -844 
Q 928 -128 1133 580 
Q 1338 1288 1338 2009 
Q 1338 2731 1133 3434 
Q 928 4138 513 4856 
z
" transform="scale(0.015625)"/>
      </defs>
      <use xlink:href="#DejaVuSans-54"/>
      <use xlink:href="#DejaVuSans-69" x="57.958984"/>
      <use xlink:href="#DejaVuSans-6d" x="85.742188"/>
      <use xlink:href="#DejaVuSans-65" x="183.154297"/>
      <use xlink:href="#DejaVuSans-20" x="244.677734"/>
      <use xlink:href="#DejaVuSans-28" x="276.464844"/>
      <use xlink:href="#DejaVuSans-73" x="315.478516"/>
      <use xlink:href="#DejaVuSans-29" x="367.578125"/>
     </g>
    </g>
   </g>
   <g id="matplotlib.axis_2">
    <g id="ytick_1">
     <g id="line2d_7">
      <path d="M 69.615 269.818713 
L 449.505 269.818713 
" clip-path="url(#p4b646d7dcf)" style="fill: none; stroke: #ffffff; stroke-linecap: round"/>
     </g>
     <g id="text_8">
      <!-- 0 -->
      <g style="fill: #262626" transform="translate(49.616875 276.087424) scale(0.165 -0.165)">
       <use xlink:href="#DejaVuSans-30"/>
      </g>
     </g>
    </g>
    <g id="ytick_2">
     <g id="line2d_8">
      <path d="M 69.615 219.727443 
L 449.505 219.727443 
" clip-path="url(#p4b646d7dcf)" style="fill: none; stroke: #ffffff; stroke-linecap: round"/>
     </g>
     <g id="text_9">
      <!-- 100 -->
      <g style="fill: #262626" transform="translate(28.620625 225.996154) scale(0.165 -0.165)">
       <use xlink:href="#DejaVuSans-31"/>
       <use xlink:href="#DejaVuSans-30" x="63.623047"/>
       <use xlink:href="#DejaVuSans-30" x="127.246094"/>
      </g>
     </g>
    </g>
    <g id="ytick_3">
     <g id="line2d_9">
      <path d="M 69.615 169.636174 
L 449.505 169.636174 
" clip-path="url(#p4b646d7dcf)" style="fill: none; stroke: #ffffff; stroke-linecap: round"/>
     </g>
     <g id="text_10">
      <!-- 200 -->
      <g style="fill: #262626" transform="translate(28.620625 175.904885) scale(0.165 -0.165)">
       <use xlink:href="#DejaVuSans-32"/>
       <use xlink:href="#DejaVuSans-30" x="63.623047"/>
       <use xlink:href="#DejaVuSans-30" x="127.246094"/>
      </g>
     </g>
    </g>
    <g id="ytick_4">
     <g id="line2d_10">
      <path d="M 69.615 119.544904 
L 449.505 119.544904 
" clip-path="url(#p4b646d7dcf)" style="fill: none; stroke: #ffffff; stroke-linecap: round"/>
     </g>
     <g id="text_11">
      <!-- 300 -->
      <g style="fill: #262626" transform="translate(28.620625 125.813615) scale(0.165 -0.165)">
       <defs>
        <path id="DejaVuSans-33" d="M 2597 2516 
Q 3050 2419 3304 2112 
Q 3559 1806 3559 1356 
Q 3559 666 3084 287 
Q 2609 -91 1734 -91 
Q 1441 -91 1130 -33 
Q 819 25 488 141 
L 488 750 
Q 750 597 1062 519 
Q 1375 441 1716 441 
Q 2309 441 2620 675 
Q 2931 909 2931 1356 
Q 2931 1769 2642 2001 
Q 2353 2234 1838 2234 
L 1294 2234 
L 1294 2753 
L 1863 2753 
Q 2328 2753 2575 2939 
Q 2822 3125 2822 3475 
Q 2822 3834 2567 4026 
Q 2313 4219 1838 4219 
Q 1578 4219 1281 4162 
Q 984 4106 628 3988 
L 628 4550 
Q 988 4650 1302 4700 
Q 1616 4750 1894 4750 
Q 2613 4750 3031 4423 
Q 3450 4097 3450 3541 
Q 3450 3153 3228 2886 
Q 3006 2619 2597 2516 
z
" transform="scale(0.015625)"/>
       </defs>
       <use xlink:href="#DejaVuSans-33"/>
       <use xlink:href="#DejaVuSans-30" x="63.623047"/>
       <use xlink:href="#DejaVuSans-30" x="127.246094"/>
      </g>
     </g>
    </g>
    <g id="ytick_5">
     <g id="line2d_11">
      <path d="M 69.615 69.453635 
L 449.505 69.453635 
" clip-path="url(#p4b646d7dcf)" style="fill: none; stroke: #ffffff; stroke-linecap: round"/>
     </g>
     <g id="text_12">
      <!-- 400 -->
      <g style="fill: #262626" transform="translate(28.620625 75.722346) scale(0.165 -0.165)">
       <use xlink:href="#DejaVuSans-34"/>
       <use xlink:href="#DejaVuSans-30" x="63.623047"/>
       <use xlink:href="#DejaVuSans-30" x="127.246094"/>
      </g>
     </g>
    </g>
    <g id="ytick_6">
     <g id="line2d_12">
      <path d="M 69.615 19.362366 
L 449.505 19.362366 
" clip-path="url(#p4b646d7dcf)" style="fill: none; stroke: #ffffff; stroke-linecap: round"/>
     </g>
     <g id="text_13">
      <!-- 500 -->
      <g style="fill: #262626" transform="translate(28.620625 25.631076) scale(0.165 -0.165)">
       <defs>
        <path id="DejaVuSans-35" d="M 691 4666 
L 3169 4666 
L 3169 4134 
L 1269 4134 
L 1269 2991 
Q 1406 3038 1543 3061 
Q 1681 3084 1819 3084 
Q 2600 3084 3056 2656 
Q 3513 2228 3513 1497 
Q 3513 744 3044 326 
Q 2575 -91 1722 -91 
Q 1428 -91 1123 -41 
Q 819 9 494 109 
L 494 744 
Q 775 591 1075 516 
Q 1375 441 1709 441 
Q 2250 441 2565 725 
Q 2881 1009 2881 1497 
Q 2881 1984 2565 2268 
Q 2250 2553 1709 2553 
Q 1456 2553 1204 2497 
Q 953 2441 691 2322 
L 691 4666 
z
" transform="scale(0.015625)"/>
       </defs>
       <use xlink:href="#DejaVuSans-35"/>
       <use xlink:href="#DejaVuSans-30" x="63.623047"/>
       <use xlink:href="#DejaVuSans-30" x="127.246094"/>
      </g>
     </g>
    </g>
    <g id="text_14">
     <!-- Total rewards -->
     <g style="fill: #262626" transform="translate(20.877188 206.703281) rotate(-90) scale(0.18 -0.18)">
      <defs>
       <path id="DejaVuSans-6f" d="M 1959 3097 
Q 1497 3097 1228 2736 
Q 959 2375 959 1747 
Q 959 1119 1226 758 
Q 1494 397 1959 397 
Q 2419 397 2687 759 
Q 2956 1122 2956 1747 
Q 2956 2369 2687 2733 
Q 2419 3097 1959 3097 
z
M 1959 3584 
Q 2709 3584 3137 3096 
Q 3566 2609 3566 1747 
Q 3566 888 3137 398 
Q 2709 -91 1959 -91 
Q 1206 -91 779 398 
Q 353 888 353 1747 
Q 353 2609 779 3096 
Q 1206 3584 1959 3584 
z
" transform="scale(0.015625)"/>
       <path id="DejaVuSans-74" d="M 1172 4494 
L 1172 3500 
L 2356 3500 
L 2356 3053 
L 1172 3053 
L 1172 1153 
Q 1172 725 1289 603 
Q 1406 481 1766 481 
L 2356 481 
L 2356 0 
L 1766 0 
Q 1100 0 847 248 
Q 594 497 594 1153 
L 594 3053 
L 172 3053 
L 172 3500 
L 594 3500 
L 594 4494 
L 1172 4494 
z
" transform="scale(0.015625)"/>
       <path id="DejaVuSans-61" d="M 2194 1759 
Q 1497 1759 1228 1600 
Q 959 1441 959 1056 
Q 959 750 1161 570 
Q 1363 391 1709 391 
Q 2188 391 2477 730 
Q 2766 1069 2766 1631 
L 2766 1759 
L 2194 1759 
z
M 3341 1997 
L 3341 0 
L 2766 0 
L 2766 531 
Q 2569 213 2275 61 
Q 1981 -91 1556 -91 
Q 1019 -91 701 211 
Q 384 513 384 1019 
Q 384 1609 779 1909 
Q 1175 2209 1959 2209 
L 2766 2209 
L 2766 2266 
Q 2766 2663 2505 2880 
Q 2244 3097 1772 3097 
Q 1472 3097 1187 3025 
Q 903 2953 641 2809 
L 641 3341 
Q 956 3463 1253 3523 
Q 1550 3584 1831 3584 
Q 2591 3584 2966 3190 
Q 3341 2797 3341 1997 
z
" transform="scale(0.015625)"/>
       <path id="DejaVuSans-6c" d="M 603 4863 
L 1178 4863 
L 1178 0 
L 603 0 
L 603 4863 
z
" transform="scale(0.015625)"/>
       <path id="DejaVuSans-72" d="M 2631 2963 
Q 2534 3019 2420 3045 
Q 2306 3072 2169 3072 
Q 1681 3072 1420 2755 
Q 1159 2438 1159 1844 
L 1159 0 
L 581 0 
L 581 3500 
L 1159 3500 
L 1159 2956 
Q 1341 3275 1631 3429 
Q 1922 3584 2338 3584 
Q 2397 3584 2469 3576 
Q 2541 3569 2628 3553 
L 2631 2963 
z
" transform="scale(0.015625)"/>
       <path id="DejaVuSans-77" d="M 269 3500 
L 844 3500 
L 1563 769 
L 2278 3500 
L 2956 3500 
L 3675 769 
L 4391 3500 
L 4966 3500 
L 4050 0 
L 3372 0 
L 2619 2869 
L 1863 0 
L 1184 0 
L 269 3500 
z
" transform="scale(0.015625)"/>
       <path id="DejaVuSans-64" d="M 2906 2969 
L 2906 4863 
L 3481 4863 
L 3481 0 
L 2906 0 
L 2906 525 
Q 2725 213 2448 61 
Q 2172 -91 1784 -91 
Q 1150 -91 751 415 
Q 353 922 353 1747 
Q 353 2572 751 3078 
Q 1150 3584 1784 3584 
Q 2172 3584 2448 3432 
Q 2725 3281 2906 2969 
z
M 947 1747 
Q 947 1113 1208 752 
Q 1469 391 1925 391 
Q 2381 391 2643 752 
Q 2906 1113 2906 1747 
Q 2906 2381 2643 2742 
Q 2381 3103 1925 3103 
Q 1469 3103 1208 2742 
Q 947 2381 947 1747 
z
" transform="scale(0.015625)"/>
      </defs>
      <use xlink:href="#DejaVuSans-54"/>
      <use xlink:href="#DejaVuSans-6f" x="44.083984"/>
      <use xlink:href="#DejaVuSans-74" x="105.265625"/>
      <use xlink:href="#DejaVuSans-61" x="144.474609"/>
      <use xlink:href="#DejaVuSans-6c" x="205.753906"/>
      <use xlink:href="#DejaVuSans-20" x="233.537109"/>
      <use xlink:href="#DejaVuSans-72" x="265.324219"/>
      <use xlink:href="#DejaVuSans-65" x="304.1875"/>
      <use xlink:href="#DejaVuSans-77" x="365.710938"/>
      <use xlink:href="#DejaVuSans-61" x="447.498047"/>
      <use xlink:href="#DejaVuSans-72" x="508.777344"/>
      <use xlink:href="#DejaVuSans-64" x="548.140625"/>
      <use xlink:href="#DejaVuSans-73" x="611.617188"/>
     </g>
    </g>
   </g>
   <g id="PolyCollection_1"/>
   <g id="PolyCollection_2"/>
   <g id="PolyCollection_3">
    <defs>
     <path id="m051467a332" d="M 86.882727 -73.162443 
L 86.882727 -70.912559 
L 88.697012 -70.359841 
L 92.323396 -68.805335 
L 95.960458 -68.551274 
L 99.72342 -69.831213 
L 103.420136 -70.004433 
L 107.05776 -68.423804 
L 110.780273 -68.415617 
L 114.499748 -69.349182 
L 118.293979 -69.954211 
L 122.069896 -69.757965 
L 125.799776 -69.030271 
L 129.565319 -74.37506 
L 133.332967 -79.325796 
L 137.115027 -80.989822 
L 140.942548 -78.410409 
L 144.794736 -78.223577 
L 148.61091 -77.057779 
L 152.452201 -81.419247 
L 156.219652 -95.305506 
L 159.889862 -98.751156 
L 163.56245 -101.368105 
L 167.13268 -107.54594 
L 170.625978 -113.378548 
L 174.116788 -114.786628 
L 177.650746 -119.221726 
L 181.049846 -127.830957 
L 184.32951 -128.15857 
L 187.679499 -126.899666 
L 191.060782 -145.991682 
L 194.321361 -180.0797 
L 197.545102 -205.990869 
L 200.831282 -201.189797 
L 204.120594 -212.514417 
L 207.461209 -221.129169 
L 212.306418 -213.422913 
L 217.190768 -262.758709 
L 220.682035 -300.89629 
L 224.312004 -287.574356 
L 227.980403 -275.900261 
L 231.640793 -284.152915 
L 235.359664 -285.515895 
L 239.0049 -277.368994 
L 242.638227 -279.863522 
L 246.354221 -287.825661 
L 250.058264 -297.461894 
L 253.721177 -303.941581 
L 257.371175 -307.29612 
L 260.997005 -310.458299 
L 264.56507 -312.156301 
L 268.15919 -313.765694 
L 271.782282 -313.769768 
L 275.331699 -314.325812 
L 278.839468 -315.843783 
L 282.536972 -316.035027 
L 286.094359 -314.75286 
L 289.450787 -314.553239 
L 292.904498 -315.900168 
L 296.392611 -316.851272 
L 299.802165 -317.084997 
L 303.058747 -318.191032 
L 306.318914 -319.639212 
L 309.60781 -318.540935 
L 312.908342 -318.547685 
L 316.101846 -318.777343 
L 320.756358 -318.628023 
L 325.446472 -318.476365 
L 328.713008 -317.12206 
L 332.17612 -317.210172 
L 335.670341 -317.497523 
L 339.194749 -316.44263 
L 342.763407 -315.313543 
L 346.375701 -316.109618 
L 350.104577 -317.069046 
L 353.778749 -317.499281 
L 357.512017 -317.339321 
L 361.193625 -316.941593 
L 364.746542 -317.621115 
L 368.33327 -318.122701 
L 371.888134 -317.607625 
L 375.458757 -317.314404 
L 379.057797 -318.021335 
L 382.640985 -318.087992 
L 386.145388 -318.310359 
L 389.602949 -318.174904 
L 393.006507 -317.758649 
L 396.414599 -318.040886 
L 399.864968 -318.291687 
L 403.258155 -318.616688 
L 406.640011 -318.854969 
L 410.060116 -319.383558 
L 413.265741 -319.845887 
L 416.506222 -319.384636 
L 421.288858 -318.887331 
L 425.909286 -318.9857 
L 429.066112 -318.935736 
L 432.237273 -319.426139 
L 432.237273 -319.426139 
L 432.237273 -319.426139 
L 429.066112 -319.132085 
L 425.909286 -319.396888 
L 421.288858 -319.139499 
L 416.506222 -319.421966 
L 413.265741 -319.873633 
L 410.060116 -320.002392 
L 406.640011 -320.251557 
L 403.258155 -320.203763 
L 399.864968 -320.093974 
L 396.414599 -320.13988 
L 393.006507 -319.943569 
L 389.602949 -319.902677 
L 386.145388 -320.23523 
L 382.640985 -320.293289 
L 379.057797 -320.125335 
L 375.458757 -320.064318 
L 371.888134 -320.121085 
L 368.33327 -320.1572 
L 364.746542 -320.191457 
L 361.193625 -320.176637 
L 357.512017 -320.169414 
L 353.778749 -320.182507 
L 350.104577 -320.23238 
L 346.375701 -320.206881 
L 342.763407 -320.220785 
L 339.194749 -320.266912 
L 335.670341 -320.215687 
L 332.17612 -320.029396 
L 328.713008 -319.907752 
L 325.446472 -319.723678 
L 320.756358 -319.705525 
L 316.101846 -319.854845 
L 312.908342 -319.484251 
L 309.60781 -319.477502 
L 306.318914 -319.639212 
L 303.058747 -319.446333 
L 299.802165 -319.613171 
L 296.392611 -319.693403 
L 292.904498 -319.60753 
L 289.450787 -319.599436 
L 286.094359 -319.477846 
L 282.536972 -319.539153 
L 278.839468 -319.406473 
L 275.331699 -319.27351 
L 271.782282 -319.213273 
L 268.15919 -318.67785 
L 264.56507 -318.794571 
L 260.997005 -319.069494 
L 257.371175 -319.101573 
L 253.721177 -318.908809 
L 250.058264 -318.569629 
L 246.354221 -318.408431 
L 242.638227 -317.931549 
L 239.0049 -317.826178 
L 235.359664 -317.723215 
L 231.640793 -317.04088 
L 227.980403 -317.462692 
L 224.312004 -316.348456 
L 220.682035 -315.685161 
L 217.190768 -270.115482 
L 212.306418 -223.045832 
L 207.461209 -230.752088 
L 204.120594 -212.514417 
L 200.831282 -206.506063 
L 197.545102 -211.307135 
L 194.321361 -204.266214 
L 191.060782 -208.268403 
L 187.679499 -205.484904 
L 184.32951 -199.348628 
L 181.049846 -197.080289 
L 177.650746 -195.727302 
L 174.116788 -188.504987 
L 170.625978 -179.254642 
L 167.13268 -170.448073 
L 163.56245 -162.947284 
L 159.889862 -153.447029 
L 156.219652 -151.540178 
L 152.452201 -154.188898 
L 148.61091 -143.55087 
L 144.794736 -128.678823 
L 140.942548 -128.555282 
L 137.115027 -129.06456 
L 133.332967 -130.01121 
L 129.565319 -127.28653 
L 125.799776 -119.63539 
L 122.069896 -110.260614 
L 118.293979 -107.082647 
L 114.499748 -110.277131 
L 110.780273 -106.62517 
L 107.05776 -103.208399 
L 103.420136 -100.089123 
L 99.72342 -95.725125 
L 95.960458 -91.077701 
L 92.323396 -83.789798 
L 88.697012 -76.587005 
L 86.882727 -73.162443 
z
" style="stroke: #ff0000; stroke-opacity: 0.2"/>
    </defs>
    <g clip-path="url(#p4b646d7dcf)">
     <use xlink:href="#m051467a332" x="0" y="340.829531" style="fill: #ff0000; fill-opacity: 0.2; stroke: #ff0000; stroke-opacity: 0.2"/>
    </g>
   </g>
   <g id="PolyCollection_4">
    <defs>
     <path id="md94b4926d2" d="M 86.882727 -73.162443 
L 86.882727 -70.912559 
L 88.652132 -70.358789 
L 92.219212 -68.866649 
L 95.787542 -68.968636 
L 99.468761 -70.243567 
L 103.167573 -69.445352 
L 106.727083 -68.140921 
L 110.263842 -67.85548 
L 113.893396 -69.00885 
L 117.749007 -70.092505 
L 121.552826 -69.63868 
L 125.231606 -69.636217 
L 128.879827 -68.055905 
L 132.469089 -66.795895 
L 136.189537 -67.013463 
L 139.909555 -67.72909 
L 143.562814 -67.545189 
L 147.334896 -68.773551 
L 151.054406 -69.935974 
L 154.772662 -68.429592 
L 158.50021 -70.1989 
L 162.11109 -75.215726 
L 165.701156 -81.820157 
L 169.297434 -88.404755 
L 173.001201 -80.785551 
L 176.698547 -78.952694 
L 180.28239 -97.253162 
L 183.832985 -107.192446 
L 187.35555 -113.235248 
L 190.939281 -112.962064 
L 194.401104 -113.624388 
L 197.662429 -117.393094 
L 200.95106 -119.190545 
L 204.30968 -120.559579 
L 207.694167 -154.432338 
L 210.9716 -173.370519 
L 215.707236 -153.989258 
L 223.594375 -227.760557 
L 229.946505 -296.40532 
L 234.695623 -289.414975 
L 239.650793 -277.388951 
L 243.271819 -278.508552 
L 246.844404 -291.453946 
L 250.408411 -287.921997 
L 253.996381 -293.18301 
L 257.683381 -300.868446 
L 261.361953 -299.543759 
L 264.931664 -297.640732 
L 268.49259 -297.242577 
L 272.051619 -300.093008 
L 275.738623 -299.813813 
L 279.451971 -184.876867 
L 283.079874 -175.178333 
L 286.674503 -294.50905 
L 290.250756 -308.851818 
L 293.950192 -308.525426 
L 297.571633 -310.925344 
L 300.922202 -315.084335 
L 304.167969 -318.599262 
L 307.411711 -319.355064 
L 310.836682 -318.222163 
L 314.1762 -318.67159 
L 317.303235 -319.556924 
L 321.996907 -319.235132 
L 329.760791 -319.090139 
L 335.920128 -318.684515 
L 340.564931 -318.50051 
L 345.359394 -318.844628 
L 348.81754 -318.380479 
L 352.421065 -317.272205 
L 356.02379 -317.456218 
L 359.633188 -316.636281 
L 363.17027 -316.402785 
L 366.675088 -316.708732 
L 370.264801 -316.086826 
L 373.875065 -316.638291 
L 377.508345 -316.653417 
L 381.127121 -316.51742 
L 384.746024 -194.288617 
L 388.385405 -193.925429 
L 391.991996 -316.895176 
L 395.642278 -317.765177 
L 399.276763 -318.181424 
L 402.890777 -318.276698 
L 406.544578 -318.55039 
L 409.964883 -319.266975 
L 413.35589 -319.41206 
L 416.775871 -318.666829 
L 420.027522 -318.791354 
L 423.274389 -319.749704 
L 428.080064 -319.102406 
L 428.080064 -319.404883 
L 428.080064 -319.404883 
L 423.274389 -320.470018 
L 420.027522 -320.594482 
L 416.775871 -320.87983 
L 413.35589 -320.239771 
L 409.964883 -320.206025 
L 406.544578 -320.725068 
L 402.890777 -320.80718 
L 399.276763 -320.839649 
L 395.642278 -320.875366 
L 391.991996 -320.923168 
L 388.385405 -320.894498 
L 384.746024 -320.859361 
L 381.127121 -320.851794 
L 377.508345 -320.881527 
L 373.875065 -320.853063 
L 370.264801 -320.855692 
L 366.675088 -320.812867 
L 363.17027 -320.736449 
L 359.633188 -320.758332 
L 356.02379 -320.746316 
L 352.421065 -320.714811 
L 348.81754 -320.638477 
L 345.359394 -320.47014 
L 340.564931 -319.582376 
L 335.920128 -318.684515 
L 329.760791 -319.090139 
L 321.996907 -319.235132 
L 317.303235 -319.556924 
L 314.1762 -320.306405 
L 310.836682 -320.258076 
L 307.411711 -320.203878 
L 304.167969 -319.690453 
L 300.922202 -319.220511 
L 297.571633 -319.557841 
L 293.950192 -319.626134 
L 290.250756 -319.140134 
L 286.674503 -318.804233 
L 283.079874 -318.714645 
L 279.451971 -318.737698 
L 275.738623 -318.81008 
L 272.051619 -318.805975 
L 268.49259 -318.86661 
L 264.931664 -318.207175 
L 261.361953 -317.163945 
L 257.683381 -316.641425 
L 253.996381 -315.496945 
L 250.408411 -316.062665 
L 246.844404 -316.783209 
L 243.271819 -314.927418 
L 239.650793 -311.055418 
L 234.695623 -299.060907 
L 229.946505 -296.40532 
L 223.594375 -227.760557 
L 215.707236 -153.989258 
L 210.9716 -173.370519 
L 207.694167 -195.432029 
L 204.30968 -190.642014 
L 200.95106 -183.852432 
L 197.662429 -184.551594 
L 194.401104 -184.444224 
L 190.939281 -175.395155 
L 187.35555 -162.702965 
L 183.832985 -164.346715 
L 180.28239 -160.424927 
L 176.698547 -154.443849 
L 173.001201 -145.274512 
L 169.297434 -141.224113 
L 165.701156 -137.240066 
L 162.11109 -121.807544 
L 158.50021 -116.571412 
L 154.772662 -117.339717 
L 151.054406 -124.126911 
L 147.334896 -123.339279 
L 143.562814 -116.736642 
L 139.909555 -111.527518 
L 136.189537 -106.860295 
L 132.469089 -101.745809 
L 128.879827 -102.932595 
L 125.231606 -98.574138 
L 121.552826 -99.49446 
L 117.749007 -107.891196 
L 113.893396 -112.90852 
L 110.263842 -116.258684 
L 106.727083 -106.728758 
L 103.167573 -100.710735 
L 99.468761 -96.760379 
L 95.787542 -90.885932 
L 92.219212 -83.90745 
L 88.652132 -76.61551 
L 86.882727 -73.162443 
z
" style="stroke: #008000; stroke-opacity: 0.2"/>
    </defs>
    <g clip-path="url(#p4b646d7dcf)">
     <use xlink:href="#md94b4926d2" x="0" y="340.829531" style="fill: #008000; fill-opacity: 0.2; stroke: #008000; stroke-opacity: 0.2"/>
    </g>
   </g>
   <g id="line2d_13">
    <path d="M 86.882727 269.478216 
L 88.697012 268.23305 
L 92.323396 264.808378 
L 95.960458 262.733171 
L 99.72342 263.103644 
L 103.420136 263.404548 
L 107.05776 262.343671 
L 110.780273 261.438359 
L 114.499748 260.663957 
L 118.293979 258.481738 
L 122.069896 255.721742 
L 125.799776 253.049862 
L 129.565319 248.19519 
L 133.332967 244.192434 
L 137.115027 240.506072 
L 140.942548 238.76589 
L 144.794736 238.367465 
L 148.61091 235.084807 
L 152.452201 228.482709 
L 156.219652 217.870613 
L 159.889862 208.912807 
L 163.56245 204.253115 
L 167.13268 207.215691 
L 170.625978 205.201825 
L 174.116788 194.249861 
L 177.650746 182.641124 
L 181.049846 179.796869 
L 184.32951 174.006602 
L 187.679499 159.925002 
L 191.060782 155.094094 
L 194.321361 149.842074 
L 197.545102 134.307039 
L 200.831282 139.108111 
L 204.120594 128.315115 
L 207.461209 112.325444 
L 212.306418 120.0317 
L 217.190768 72.999517 
L 220.682035 30.207971 
L 224.312004 32.261288 
L 227.980403 32.59323 
L 231.640793 31.066713 
L 235.359664 29.242887 
L 239.0049 31.15014 
L 242.638227 32.523866 
L 246.354221 29.504296 
L 250.058264 26.253859 
L 253.721177 24.67614 
L 257.371175 24.441307 
L 260.997005 24.743715 
L 264.56507 24.336746 
L 268.15919 23.721711 
L 271.782282 23.688799 
L 275.331699 23.406332 
L 278.839468 22.809312 
L 282.536972 22.870658 
L 286.094359 22.859949 
L 289.450787 22.447218 
L 292.904498 22.022646 
L 296.392611 21.973821 
L 299.802165 22.107174 
L 303.058747 21.734998 
L 306.318914 21.190319 
L 309.60781 21.686516 
L 312.908342 21.679767 
L 316.101846 21.592175 
L 320.756358 21.741494 
L 325.446472 22.249225 
L 328.713008 22.94758 
L 332.17612 22.279691 
L 335.670341 21.696154 
L 339.194749 21.668722 
L 342.763407 21.78779 
L 346.375701 21.709935 
L 350.104577 21.826641 
L 353.778749 21.750949 
L 357.512017 21.586366 
L 361.193625 21.52045 
L 364.746542 21.417494 
L 368.33327 21.492972 
L 371.888134 21.488264 
L 375.458757 21.613125 
L 379.057797 21.530875 
L 382.640985 21.381976 
L 386.145388 21.345907 
L 389.602949 21.624659 
L 393.006507 21.564001 
L 396.414599 21.187476 
L 399.864968 21.29793 
L 403.258155 21.283637 
L 406.640011 21.148472 
L 410.060116 21.066582 
L 413.265741 20.959598 
L 416.506222 21.433698 
L 421.288858 21.897953 
L 425.909286 21.712603 
L 429.066112 21.795617 
L 432.237273 21.403392 
" clip-path="url(#p4b646d7dcf)" style="fill: none; stroke: #ff0000; stroke-width: 1.5; stroke-linecap: round"/>
   </g>
   <g id="line2d_14">
    <path d="M 86.882727 269.478216 
L 88.652132 268.319208 
L 92.219212 264.953061 
L 95.787542 262.988965 
L 99.468761 262.850254 
L 103.167573 262.325126 
L 106.727083 261.826747 
L 110.263842 261.106977 
L 113.893396 261.572649 
L 117.749007 262.80338 
L 121.552826 263.895481 
L 125.231606 263.839434 
L 128.879827 262.299386 
L 132.469089 259.362053 
L 136.189537 257.714396 
L 139.909555 255.10857 
L 143.562814 251.679274 
L 147.334896 250.767207 
L 151.054406 253.225971 
L 154.772662 251.923601 
L 158.50021 245.418561 
L 162.11109 239.199589 
L 165.701156 232.412805 
L 169.297434 229.564348 
L 173.001201 225.79868 
L 176.698547 219.222569 
L 180.28239 211.670934 
L 183.832985 206.155274 
L 187.35555 202.117977 
L 190.939281 200.149917 
L 194.401104 186.522449 
L 197.662429 170.294187 
L 200.95106 182.352375 
L 204.30968 195.198073 
L 207.694167 172.012834 
L 210.9716 167.459012 
L 215.707236 186.840273 
L 223.594375 113.068974 
L 229.946505 44.424212 
L 234.695623 43.697813 
L 239.650793 36.965194 
L 243.271819 36.442154 
L 246.844404 33.700319 
L 250.408411 33.165218 
L 253.996381 31.492316 
L 257.683381 28.334883 
L 261.361953 27.900574 
L 264.931664 27.847025 
L 268.49259 27.877736 
L 272.051619 27.882055 
L 275.738623 28.283558 
L 279.451971 31.033136 
L 283.079874 29.799374 
L 286.674503 25.86155 
L 290.250756 25.829372 
L 293.950192 25.145562 
L 297.571633 23.771568 
L 300.922202 22.856762 
L 304.167969 21.886878 
L 307.411711 21.162712 
L 310.836682 21.257496 
L 314.1762 21.09798 
L 317.303235 21.272607 
L 321.996907 21.594399 
L 329.760791 21.739393 
L 335.920128 22.145016 
L 340.564931 21.345509 
L 345.359394 20.660377 
L 348.81754 20.846133 
L 352.421065 21.423693 
L 356.02379 21.421843 
L 359.633188 21.060276 
L 363.17027 21.133636 
L 366.675088 21.183815 
L 370.264801 21.110049 
L 373.875065 21.255318 
L 377.508345 21.504666 
L 381.127121 21.37142 
L 384.746024 23.050581 
L 388.385405 23.030242 
L 391.991996 20.975756 
L 395.642278 20.770342 
L 399.276763 20.739776 
L 402.890777 20.855779 
L 406.544578 20.804278 
L 409.964883 20.864974 
L 413.35589 20.81027 
L 416.775871 21.035229 
L 420.027522 21.253361 
L 423.274389 20.588431 
L 428.080064 21.500271 
" clip-path="url(#p4b646d7dcf)" style="fill: none; stroke: #008000; stroke-width: 1.5; stroke-linecap: round"/>
   </g>
   <g id="patch_3">
    <path d="M 69.615 286.74 
L 69.615 7.2 
" style="fill: none; stroke: #ffffff; stroke-width: 1.25; stroke-linejoin: miter; stroke-linecap: square"/>
   </g>
   <g id="patch_4">
    <path d="M 449.505 286.74 
L 449.505 7.2 
" style="fill: none; stroke: #ffffff; stroke-width: 1.25; stroke-linejoin: miter; stroke-linecap: square"/>
   </g>
   <g id="patch_5">
    <path d="M 69.615 286.74 
L 449.505 286.74 
" style="fill: none; stroke: #ffffff; stroke-width: 1.25; stroke-linejoin: miter; stroke-linecap: square"/>
   </g>
   <g id="patch_6">
    <path d="M 69.615 7.2 
L 449.505 7.2 
" style="fill: none; stroke: #ffffff; stroke-width: 1.25; stroke-linejoin: miter; stroke-linecap: square"/>
   </g>
   <g id="legend_1">
    <g id="patch_7">
     <path d="M 81.165 44.618906 
L 163.481953 44.618906 
Q 166.781953 44.618906 166.781953 41.318906 
L 166.781953 18.75 
Q 166.781953 15.45 163.481953 15.45 
L 81.165 15.45 
Q 77.865 15.45 77.865 18.75 
L 77.865 41.318906 
Q 77.865 44.618906 81.165 44.618906 
z
" style="fill: #eaeaf2; opacity: 0.8; stroke: #cccccc; stroke-linejoin: miter"/>
    </g>
    <g id="line2d_15">
     <path d="M 84.465 28.812422 
L 100.965 28.812422 
L 117.465 28.812422 
" style="fill: none; stroke: #008000; stroke-width: 1.5; stroke-linecap: round"/>
    </g>
    <g id="text_15">
     <!-- skrl -->
     <g style="fill: #262626" transform="translate(130.665 34.587422) scale(0.165 -0.165)">
      <defs>
       <path id="DejaVuSans-6b" d="M 581 4863 
L 1159 4863 
L 1159 1991 
L 2875 3500 
L 3609 3500 
L 1753 1863 
L 3688 0 
L 2938 0 
L 1159 1709 
L 1159 0 
L 581 0 
L 581 4863 
z
" transform="scale(0.015625)"/>
      </defs>
      <use xlink:href="#DejaVuSans-73"/>
      <use xlink:href="#DejaVuSans-6b" x="52.099609"/>
      <use xlink:href="#DejaVuSans-72" x="110.009766"/>
      <use xlink:href="#DejaVuSans-6c" x="151.123047"/>
     </g>
    </g>
   </g>
  </g>
 </g>
 <defs>
  <clipPath id="p4b646d7dcf">
   <rect x="69.615" y="7.2" width="379.89" height="279.54"/>
  </clipPath>
 </defs>
</svg>
