<?xml version="1.0" encoding="utf-8" standalone="no"?>
<!DOCTYPE svg PUBLIC "-//W3C//DTD SVG 1.1//EN"
  "http://www.w3.org/Graphics/SVG/1.1/DTD/svg11.dtd">
<svg xmlns:xlink="http://www.w3.org/1999/xlink" width="460.8pt" height="345.6pt" viewBox="0 0 460.8 345.6" xmlns="http://www.w3.org/2000/svg" version="1.1">
 <metadata>
  <rdf:RDF xmlns:dc="http://purl.org/dc/elements/1.1/" xmlns:cc="http://creativecommons.org/ns#" xmlns:rdf="http://www.w3.org/1999/02/22-rdf-syntax-ns#">
   <cc:Work>
    <dc:type rdf:resource="http://purl.org/dc/dcmitype/StillImage"/>
    <dc:date>2024-02-06T17:55:12.469115</dc:date>
    <dc:format>image/svg+xml</dc:format>
    <dc:creator>
     <cc:Agent>
      <dc:title>Matplotlib v3.7.1, https://matplotlib.org/</dc:title>
     </cc:Agent>
    </dc:creator>
   </cc:Work>
  </rdf:RDF>
 </metadata>
 <defs>
  <style type="text/css">*{stroke-linejoin: round; stroke-linecap: butt}</style>
 </defs>
 <g id="figure_1">
  <g id="patch_1">
   <path d="M 0 345.6 
L 460.8 345.6 
L 460.8 0 
L 0 0 
z
" style="fill: #ffffff"/>
  </g>
  <g id="axes_1">
   <g id="patch_2">
    <path d="M 71.91 289.26 
L 451.8 289.26 
L 451.8 9 
L 71.91 9 
z
" style="fill: #eaeaf2"/>
   </g>
   <g id="matplotlib.axis_1">
    <g id="xtick_1">
     <g id="line2d_1">
      <path d="M 85.67159 289.26 
L 85.67159 9 
" clip-path="url(#pc525b7c42d)" style="fill: none; stroke: #ffffff; stroke-linecap: round"/>
     </g>
     <g id="text_1">
      <!-- 0 -->
      <g style="fill: #262626" transform="translate(80.422527 311.297422) scale(0.165 -0.165)">
       <defs>
        <path id="DejaVuSans-30" d="M 2034 4250 
Q 1547 4250 1301 3770 
Q 1056 3291 1056 2328 
Q 1056 1369 1301 889 
Q 1547 409 2034 409 
Q 2525 409 2770 889 
Q 3016 1369 3016 2328 
Q 3016 3291 2770 3770 
Q 2525 4250 2034 4250 
z
M 2034 4750 
Q 2819 4750 3233 4129 
Q 3647 3509 3647 2328 
Q 3647 1150 3233 529 
Q 2819 -91 2034 -91 
Q 1250 -91 836 529 
Q 422 1150 422 2328 
Q 422 3509 836 4129 
Q 1250 4750 2034 4750 
z
" transform="scale(0.015625)"/>
       </defs>
       <use xlink:href="#DejaVuSans-30"/>
      </g>
     </g>
    </g>
    <g id="xtick_2">
     <g id="line2d_2">
      <path d="M 140.454988 289.26 
L 140.454988 9 
" clip-path="url(#pc525b7c42d)" style="fill: none; stroke: #ffffff; stroke-linecap: round"/>
     </g>
     <g id="text_2">
      <!-- 250 -->
      <g style="fill: #262626" transform="translate(124.707801 311.297422) scale(0.165 -0.165)">
       <defs>
        <path id="DejaVuSans-32" d="M 1228 531 
L 3431 531 
L 3431 0 
L 469 0 
L 469 531 
Q 828 903 1448 1529 
Q 2069 2156 2228 2338 
Q 2531 2678 2651 2914 
Q 2772 3150 2772 3378 
Q 2772 3750 2511 3984 
Q 2250 4219 1831 4219 
Q 1534 4219 1204 4116 
Q 875 4013 500 3803 
L 500 4441 
Q 881 4594 1212 4672 
Q 1544 4750 1819 4750 
Q 2544 4750 2975 4387 
Q 3406 4025 3406 3419 
Q 3406 3131 3298 2873 
Q 3191 2616 2906 2266 
Q 2828 2175 2409 1742 
Q 1991 1309 1228 531 
z
" transform="scale(0.015625)"/>
        <path id="DejaVuSans-35" d="M 691 4666 
L 3169 4666 
L 3169 4134 
L 1269 4134 
L 1269 2991 
Q 1406 3038 1543 3061 
Q 1681 3084 1819 3084 
Q 2600 3084 3056 2656 
Q 3513 2228 3513 1497 
Q 3513 744 3044 326 
Q 2575 -91 1722 -91 
Q 1428 -91 1123 -41 
Q 819 9 494 109 
L 494 744 
Q 775 591 1075 516 
Q 1375 441 1709 441 
Q 2250 441 2565 725 
Q 2881 1009 2881 1497 
Q 2881 1984 2565 2268 
Q 2250 2553 1709 2553 
Q 1456 2553 1204 2497 
Q 953 2441 691 2322 
L 691 4666 
z
" transform="scale(0.015625)"/>
       </defs>
       <use xlink:href="#DejaVuSans-32"/>
       <use xlink:href="#DejaVuSans-35" x="63.623047"/>
       <use xlink:href="#DejaVuSans-30" x="127.246094"/>
      </g>
     </g>
    </g>
    <g id="xtick_3">
     <g id="line2d_3">
      <path d="M 195.238387 289.26 
L 195.238387 9 
" clip-path="url(#pc525b7c42d)" style="fill: none; stroke: #ffffff; stroke-linecap: round"/>
     </g>
     <g id="text_3">
      <!-- 500 -->
      <g style="fill: #262626" transform="translate(179.4912 311.297422) scale(0.165 -0.165)">
       <use xlink:href="#DejaVuSans-35"/>
       <use xlink:href="#DejaVuSans-30" x="63.623047"/>
       <use xlink:href="#DejaVuSans-30" x="127.246094"/>
      </g>
     </g>
    </g>
    <g id="xtick_4">
     <g id="line2d_4">
      <path d="M 250.021786 289.26 
L 250.021786 9 
" clip-path="url(#pc525b7c42d)" style="fill: none; stroke: #ffffff; stroke-linecap: round"/>
     </g>
     <g id="text_4">
      <!-- 750 -->
      <g style="fill: #262626" transform="translate(234.274598 311.297422) scale(0.165 -0.165)">
       <defs>
        <path id="DejaVuSans-37" d="M 525 4666 
L 3525 4666 
L 3525 4397 
L 1831 0 
L 1172 0 
L 2766 4134 
L 525 4134 
L 525 4666 
z
" transform="scale(0.015625)"/>
       </defs>
       <use xlink:href="#DejaVuSans-37"/>
       <use xlink:href="#DejaVuSans-35" x="63.623047"/>
       <use xlink:href="#DejaVuSans-30" x="127.246094"/>
      </g>
     </g>
    </g>
    <g id="xtick_5">
     <g id="line2d_5">
      <path d="M 304.805185 289.26 
L 304.805185 9 
" clip-path="url(#pc525b7c42d)" style="fill: none; stroke: #ffffff; stroke-linecap: round"/>
     </g>
     <g id="text_5">
      <!-- 1000 -->
      <g style="fill: #262626" transform="translate(283.808935 311.297422) scale(0.165 -0.165)">
       <defs>
        <path id="DejaVuSans-31" d="M 794 531 
L 1825 531 
L 1825 4091 
L 703 3866 
L 703 4441 
L 1819 4666 
L 2450 4666 
L 2450 531 
L 3481 531 
L 3481 0 
L 794 0 
L 794 531 
z
" transform="scale(0.015625)"/>
       </defs>
       <use xlink:href="#DejaVuSans-31"/>
       <use xlink:href="#DejaVuSans-30" x="63.623047"/>
       <use xlink:href="#DejaVuSans-30" x="127.246094"/>
       <use xlink:href="#DejaVuSans-30" x="190.869141"/>
      </g>
     </g>
    </g>
    <g id="xtick_6">
     <g id="line2d_6">
      <path d="M 359.588583 289.26 
L 359.588583 9 
" clip-path="url(#pc525b7c42d)" style="fill: none; stroke: #ffffff; stroke-linecap: round"/>
     </g>
     <g id="text_6">
      <!-- 1250 -->
      <g style="fill: #262626" transform="translate(338.592333 311.297422) scale(0.165 -0.165)">
       <use xlink:href="#DejaVuSans-31"/>
       <use xlink:href="#DejaVuSans-32" x="63.623047"/>
       <use xlink:href="#DejaVuSans-35" x="127.246094"/>
       <use xlink:href="#DejaVuSans-30" x="190.869141"/>
      </g>
     </g>
    </g>
    <g id="xtick_7">
     <g id="line2d_7">
      <path d="M 414.371982 289.26 
L 414.371982 9 
" clip-path="url(#pc525b7c42d)" style="fill: none; stroke: #ffffff; stroke-linecap: round"/>
     </g>
     <g id="text_7">
      <!-- 1500 -->
      <g style="fill: #262626" transform="translate(393.375732 311.297422) scale(0.165 -0.165)">
       <use xlink:href="#DejaVuSans-31"/>
       <use xlink:href="#DejaVuSans-35" x="63.623047"/>
       <use xlink:href="#DejaVuSans-30" x="127.246094"/>
       <use xlink:href="#DejaVuSans-30" x="190.869141"/>
      </g>
     </g>
    </g>
    <g id="text_8">
     <!-- Steps -->
     <g style="fill: #262626" transform="translate(236.673281 332.406094) scale(0.18 -0.18)">
      <defs>
       <path id="DejaVuSans-53" d="M 3425 4513 
L 3425 3897 
Q 3066 4069 2747 4153 
Q 2428 4238 2131 4238 
Q 1616 4238 1336 4038 
Q 1056 3838 1056 3469 
Q 1056 3159 1242 3001 
Q 1428 2844 1947 2747 
L 2328 2669 
Q 3034 2534 3370 2195 
Q 3706 1856 3706 1288 
Q 3706 609 3251 259 
Q 2797 -91 1919 -91 
Q 1588 -91 1214 -16 
Q 841 59 441 206 
L 441 856 
Q 825 641 1194 531 
Q 1563 422 1919 422 
Q 2459 422 2753 634 
Q 3047 847 3047 1241 
Q 3047 1584 2836 1778 
Q 2625 1972 2144 2069 
L 1759 2144 
Q 1053 2284 737 2584 
Q 422 2884 422 3419 
Q 422 4038 858 4394 
Q 1294 4750 2059 4750 
Q 2388 4750 2728 4690 
Q 3069 4631 3425 4513 
z
" transform="scale(0.015625)"/>
       <path id="DejaVuSans-74" d="M 1172 4494 
L 1172 3500 
L 2356 3500 
L 2356 3053 
L 1172 3053 
L 1172 1153 
Q 1172 725 1289 603 
Q 1406 481 1766 481 
L 2356 481 
L 2356 0 
L 1766 0 
Q 1100 0 847 248 
Q 594 497 594 1153 
L 594 3053 
L 172 3053 
L 172 3500 
L 594 3500 
L 594 4494 
L 1172 4494 
z
" transform="scale(0.015625)"/>
       <path id="DejaVuSans-65" d="M 3597 1894 
L 3597 1613 
L 953 1613 
Q 991 1019 1311 708 
Q 1631 397 2203 397 
Q 2534 397 2845 478 
Q 3156 559 3463 722 
L 3463 178 
Q 3153 47 2828 -22 
Q 2503 -91 2169 -91 
Q 1331 -91 842 396 
Q 353 884 353 1716 
Q 353 2575 817 3079 
Q 1281 3584 2069 3584 
Q 2775 3584 3186 3129 
Q 3597 2675 3597 1894 
z
M 3022 2063 
Q 3016 2534 2758 2815 
Q 2500 3097 2075 3097 
Q 1594 3097 1305 2825 
Q 1016 2553 972 2059 
L 3022 2063 
z
" transform="scale(0.015625)"/>
       <path id="DejaVuSans-70" d="M 1159 525 
L 1159 -1331 
L 581 -1331 
L 581 3500 
L 1159 3500 
L 1159 2969 
Q 1341 3281 1617 3432 
Q 1894 3584 2278 3584 
Q 2916 3584 3314 3078 
Q 3713 2572 3713 1747 
Q 3713 922 3314 415 
Q 2916 -91 2278 -91 
Q 1894 -91 1617 61 
Q 1341 213 1159 525 
z
M 3116 1747 
Q 3116 2381 2855 2742 
Q 2594 3103 2138 3103 
Q 1681 3103 1420 2742 
Q 1159 2381 1159 1747 
Q 1159 1113 1420 752 
Q 1681 391 2138 391 
Q 2594 391 2855 752 
Q 3116 1113 3116 1747 
z
" transform="scale(0.015625)"/>
       <path id="DejaVuSans-73" d="M 2834 3397 
L 2834 2853 
Q 2591 2978 2328 3040 
Q 2066 3103 1784 3103 
Q 1356 3103 1142 2972 
Q 928 2841 928 2578 
Q 928 2378 1081 2264 
Q 1234 2150 1697 2047 
L 1894 2003 
Q 2506 1872 2764 1633 
Q 3022 1394 3022 966 
Q 3022 478 2636 193 
Q 2250 -91 1575 -91 
Q 1294 -91 989 -36 
Q 684 19 347 128 
L 347 722 
Q 666 556 975 473 
Q 1284 391 1588 391 
Q 1994 391 2212 530 
Q 2431 669 2431 922 
Q 2431 1156 2273 1281 
Q 2116 1406 1581 1522 
L 1381 1569 
Q 847 1681 609 1914 
Q 372 2147 372 2553 
Q 372 3047 722 3315 
Q 1072 3584 1716 3584 
Q 2034 3584 2315 3537 
Q 2597 3491 2834 3397 
z
" transform="scale(0.015625)"/>
      </defs>
      <use xlink:href="#DejaVuSans-53"/>
      <use xlink:href="#DejaVuSans-74" x="63.476562"/>
      <use xlink:href="#DejaVuSans-65" x="102.685547"/>
      <use xlink:href="#DejaVuSans-70" x="164.208984"/>
      <use xlink:href="#DejaVuSans-73" x="227.685547"/>
     </g>
    </g>
   </g>
   <g id="matplotlib.axis_2">
    <g id="ytick_1">
     <g id="line2d_8">
      <path d="M 71.91 272.295129 
L 451.8 272.295129 
" clip-path="url(#pc525b7c42d)" style="fill: none; stroke: #ffffff; stroke-linecap: round"/>
     </g>
     <g id="text_9">
      <!-- 0 -->
      <g style="fill: #262626" transform="translate(51.911875 278.56384) scale(0.165 -0.165)">
       <use xlink:href="#DejaVuSans-30"/>
      </g>
     </g>
    </g>
    <g id="ytick_2">
     <g id="line2d_9">
      <path d="M 71.91 222.074842 
L 451.8 222.074842 
" clip-path="url(#pc525b7c42d)" style="fill: none; stroke: #ffffff; stroke-linecap: round"/>
     </g>
     <g id="text_10">
      <!-- 100 -->
      <g style="fill: #262626" transform="translate(30.915625 228.343553) scale(0.165 -0.165)">
       <use xlink:href="#DejaVuSans-31"/>
       <use xlink:href="#DejaVuSans-30" x="63.623047"/>
       <use xlink:href="#DejaVuSans-30" x="127.246094"/>
      </g>
     </g>
    </g>
    <g id="ytick_3">
     <g id="line2d_10">
      <path d="M 71.91 171.854554 
L 451.8 171.854554 
" clip-path="url(#pc525b7c42d)" style="fill: none; stroke: #ffffff; stroke-linecap: round"/>
     </g>
     <g id="text_11">
      <!-- 200 -->
      <g style="fill: #262626" transform="translate(30.915625 178.123265) scale(0.165 -0.165)">
       <use xlink:href="#DejaVuSans-32"/>
       <use xlink:href="#DejaVuSans-30" x="63.623047"/>
       <use xlink:href="#DejaVuSans-30" x="127.246094"/>
      </g>
     </g>
    </g>
    <g id="ytick_4">
     <g id="line2d_11">
      <path d="M 71.91 121.634267 
L 451.8 121.634267 
" clip-path="url(#pc525b7c42d)" style="fill: none; stroke: #ffffff; stroke-linecap: round"/>
     </g>
     <g id="text_12">
      <!-- 300 -->
      <g style="fill: #262626" transform="translate(30.915625 127.902978) scale(0.165 -0.165)">
       <defs>
        <path id="DejaVuSans-33" d="M 2597 2516 
Q 3050 2419 3304 2112 
Q 3559 1806 3559 1356 
Q 3559 666 3084 287 
Q 2609 -91 1734 -91 
Q 1441 -91 1130 -33 
Q 819 25 488 141 
L 488 750 
Q 750 597 1062 519 
Q 1375 441 1716 441 
Q 2309 441 2620 675 
Q 2931 909 2931 1356 
Q 2931 1769 2642 2001 
Q 2353 2234 1838 2234 
L 1294 2234 
L 1294 2753 
L 1863 2753 
Q 2328 2753 2575 2939 
Q 2822 3125 2822 3475 
Q 2822 3834 2567 4026 
Q 2313 4219 1838 4219 
Q 1578 4219 1281 4162 
Q 984 4106 628 3988 
L 628 4550 
Q 988 4650 1302 4700 
Q 1616 4750 1894 4750 
Q 2613 4750 3031 4423 
Q 3450 4097 3450 3541 
Q 3450 3153 3228 2886 
Q 3006 2619 2597 2516 
z
" transform="scale(0.015625)"/>
       </defs>
       <use xlink:href="#DejaVuSans-33"/>
       <use xlink:href="#DejaVuSans-30" x="63.623047"/>
       <use xlink:href="#DejaVuSans-30" x="127.246094"/>
      </g>
     </g>
    </g>
    <g id="ytick_5">
     <g id="line2d_12">
      <path d="M 71.91 71.413979 
L 451.8 71.413979 
" clip-path="url(#pc525b7c42d)" style="fill: none; stroke: #ffffff; stroke-linecap: round"/>
     </g>
     <g id="text_13">
      <!-- 400 -->
      <g style="fill: #262626" transform="translate(30.915625 77.68269) scale(0.165 -0.165)">
       <defs>
        <path id="DejaVuSans-34" d="M 2419 4116 
L 825 1625 
L 2419 1625 
L 2419 4116 
z
M 2253 4666 
L 3047 4666 
L 3047 1625 
L 3713 1625 
L 3713 1100 
L 3047 1100 
L 3047 0 
L 2419 0 
L 2419 1100 
L 313 1100 
L 313 1709 
L 2253 4666 
z
" transform="scale(0.015625)"/>
       </defs>
       <use xlink:href="#DejaVuSans-34"/>
       <use xlink:href="#DejaVuSans-30" x="63.623047"/>
       <use xlink:href="#DejaVuSans-30" x="127.246094"/>
      </g>
     </g>
    </g>
    <g id="ytick_6">
     <g id="line2d_13">
      <path d="M 71.91 21.193692 
L 451.8 21.193692 
" clip-path="url(#pc525b7c42d)" style="fill: none; stroke: #ffffff; stroke-linecap: round"/>
     </g>
     <g id="text_14">
      <!-- 500 -->
      <g style="fill: #262626" transform="translate(30.915625 27.462403) scale(0.165 -0.165)">
       <use xlink:href="#DejaVuSans-35"/>
       <use xlink:href="#DejaVuSans-30" x="63.623047"/>
       <use xlink:href="#DejaVuSans-30" x="127.246094"/>
      </g>
     </g>
    </g>
    <g id="text_15">
     <!-- Total rewards -->
     <g style="fill: #262626" transform="translate(23.172188 208.863281) rotate(-90) scale(0.18 -0.18)">
      <defs>
       <path id="DejaVuSans-54" d="M -19 4666 
L 3928 4666 
L 3928 4134 
L 2272 4134 
L 2272 0 
L 1638 0 
L 1638 4134 
L -19 4134 
L -19 4666 
z
" transform="scale(0.015625)"/>
       <path id="DejaVuSans-6f" d="M 1959 3097 
Q 1497 3097 1228 2736 
Q 959 2375 959 1747 
Q 959 1119 1226 758 
Q 1494 397 1959 397 
Q 2419 397 2687 759 
Q 2956 1122 2956 1747 
Q 2956 2369 2687 2733 
Q 2419 3097 1959 3097 
z
M 1959 3584 
Q 2709 3584 3137 3096 
Q 3566 2609 3566 1747 
Q 3566 888 3137 398 
Q 2709 -91 1959 -91 
Q 1206 -91 779 398 
Q 353 888 353 1747 
Q 353 2609 779 3096 
Q 1206 3584 1959 3584 
z
" transform="scale(0.015625)"/>
       <path id="DejaVuSans-61" d="M 2194 1759 
Q 1497 1759 1228 1600 
Q 959 1441 959 1056 
Q 959 750 1161 570 
Q 1363 391 1709 391 
Q 2188 391 2477 730 
Q 2766 1069 2766 1631 
L 2766 1759 
L 2194 1759 
z
M 3341 1997 
L 3341 0 
L 2766 0 
L 2766 531 
Q 2569 213 2275 61 
Q 1981 -91 1556 -91 
Q 1019 -91 701 211 
Q 384 513 384 1019 
Q 384 1609 779 1909 
Q 1175 2209 1959 2209 
L 2766 2209 
L 2766 2266 
Q 2766 2663 2505 2880 
Q 2244 3097 1772 3097 
Q 1472 3097 1187 3025 
Q 903 2953 641 2809 
L 641 3341 
Q 956 3463 1253 3523 
Q 1550 3584 1831 3584 
Q 2591 3584 2966 3190 
Q 3341 2797 3341 1997 
z
" transform="scale(0.015625)"/>
       <path id="DejaVuSans-6c" d="M 603 4863 
L 1178 4863 
L 1178 0 
L 603 0 
L 603 4863 
z
" transform="scale(0.015625)"/>
       <path id="DejaVuSans-20" transform="scale(0.015625)"/>
       <path id="DejaVuSans-72" d="M 2631 2963 
Q 2534 3019 2420 3045 
Q 2306 3072 2169 3072 
Q 1681 3072 1420 2755 
Q 1159 2438 1159 1844 
L 1159 0 
L 581 0 
L 581 3500 
L 1159 3500 
L 1159 2956 
Q 1341 3275 1631 3429 
Q 1922 3584 2338 3584 
Q 2397 3584 2469 3576 
Q 2541 3569 2628 3553 
L 2631 2963 
z
" transform="scale(0.015625)"/>
       <path id="DejaVuSans-77" d="M 269 3500 
L 844 3500 
L 1563 769 
L 2278 3500 
L 2956 3500 
L 3675 769 
L 4391 3500 
L 4966 3500 
L 4050 0 
L 3372 0 
L 2619 2869 
L 1863 0 
L 1184 0 
L 269 3500 
z
" transform="scale(0.015625)"/>
       <path id="DejaVuSans-64" d="M 2906 2969 
L 2906 4863 
L 3481 4863 
L 3481 0 
L 2906 0 
L 2906 525 
Q 2725 213 2448 61 
Q 2172 -91 1784 -91 
Q 1150 -91 751 415 
Q 353 922 353 1747 
Q 353 2572 751 3078 
Q 1150 3584 1784 3584 
Q 2172 3584 2448 3432 
Q 2725 3281 2906 2969 
z
M 947 1747 
Q 947 1113 1208 752 
Q 1469 391 1925 391 
Q 2381 391 2643 752 
Q 2906 1113 2906 1747 
Q 2906 2381 2643 2742 
Q 2381 3103 1925 3103 
Q 1469 3103 1208 2742 
Q 947 2381 947 1747 
z
" transform="scale(0.015625)"/>
      </defs>
      <use xlink:href="#DejaVuSans-54"/>
      <use xlink:href="#DejaVuSans-6f" x="44.083984"/>
      <use xlink:href="#DejaVuSans-74" x="105.265625"/>
      <use xlink:href="#DejaVuSans-61" x="144.474609"/>
      <use xlink:href="#DejaVuSans-6c" x="205.753906"/>
      <use xlink:href="#DejaVuSans-20" x="233.537109"/>
      <use xlink:href="#DejaVuSans-72" x="265.324219"/>
      <use xlink:href="#DejaVuSans-65" x="304.1875"/>
      <use xlink:href="#DejaVuSans-77" x="365.710938"/>
      <use xlink:href="#DejaVuSans-61" x="447.498047"/>
      <use xlink:href="#DejaVuSans-72" x="508.777344"/>
      <use xlink:href="#DejaVuSans-64" x="548.140625"/>
      <use xlink:href="#DejaVuSans-73" x="611.617188"/>
     </g>
    </g>
   </g>
   <g id="PolyCollection_1"/>
   <g id="PolyCollection_2"/>
   <g id="PolyCollection_3">
    <defs>
     <path id="mffb3ce1391" d="M 89.177727 -75.462037 
L 89.177727 -73.206358 
L 90.930796 -72.652217 
L 94.436934 -71.093707 
L 97.943071 -70.838992 
L 101.449209 -72.122227 
L 104.955346 -72.295893 
L 108.461484 -70.711193 
L 111.967621 -70.702985 
L 115.473759 -71.638954 
L 118.979896 -72.245542 
L 122.486034 -72.04879 
L 125.992171 -71.319222 
L 129.498309 -76.677777 
L 133.004446 -81.641265 
L 136.510584 -83.309577 
L 140.016721 -80.72352 
L 143.522859 -80.536207 
L 147.028996 -79.367406 
L 150.535134 -83.740108 
L 154.041271 -97.662133 
L 157.547409 -101.116658 
L 161.053546 -103.740347 
L 164.559684 -109.934094 
L 168.065821 -115.781725 
L 171.571959 -117.193432 
L 175.078096 -121.639953 
L 178.584234 -130.271358 
L 182.090371 -130.599816 
L 185.596509 -129.337669 
L 189.102647 -148.47886 
L 192.608784 -182.654677 
L 196.114922 -208.632584 
L 199.621059 -203.819146 
L 203.127197 -215.172934 
L 206.633334 -223.809875 
L 211.89254 -216.083771 
L 217.151747 -265.546639 
L 220.657884 -303.782449 
L 224.164022 -290.426202 
L 227.670159 -278.722039 
L 231.176297 -286.995949 
L 234.682434 -288.36244 
L 238.188572 -280.194555 
L 241.694709 -282.695507 
L 245.200847 -290.678155 
L 248.706984 -300.339207 
L 252.213122 -306.835583 
L 255.719259 -310.198762 
L 259.225397 -313.369087 
L 262.731534 -315.071462 
L 266.237672 -316.685 
L 269.743809 -316.689085 
L 273.249947 -317.246561 
L 276.756084 -318.768442 
L 280.262222 -318.960178 
L 283.768359 -317.674709 
L 287.274497 -317.474574 
L 290.780635 -318.824972 
L 294.286772 -319.778526 
L 297.79291 -320.012853 
L 301.299047 -321.121736 
L 304.805185 -322.573646 
L 308.311322 -321.472541 
L 311.81746 -321.479308 
L 315.323597 -321.709558 
L 320.582803 -321.559853 
L 325.84201 -321.407804 
L 329.348147 -320.050011 
L 332.854285 -320.13835 
L 336.360422 -320.426441 
L 339.86656 -319.368831 
L 343.372697 -318.236836 
L 346.878835 -319.034961 
L 350.384972 -319.99686 
L 353.89111 -320.428203 
L 357.397247 -320.267832 
L 360.903385 -319.86908 
L 364.409522 -320.550352 
L 367.91566 -321.053229 
L 371.421797 -320.536827 
L 374.927935 -320.242851 
L 378.434072 -320.951602 
L 381.94021 -321.018431 
L 385.446347 -321.241371 
L 388.952485 -321.105567 
L 392.458623 -320.68824 
L 395.96476 -320.971204 
L 399.470898 -321.22265 
L 402.977035 -321.548489 
L 406.483173 -321.787383 
L 409.98931 -322.317334 
L 413.495448 -322.780854 
L 417.001585 -322.318415 
L 422.260791 -321.819829 
L 427.519998 -321.918452 
L 431.026135 -321.868358 
L 434.532273 -322.360025 
L 434.532273 -322.360025 
L 434.532273 -322.360025 
L 431.026135 -322.065213 
L 427.519998 -322.330698 
L 422.260791 -322.072647 
L 417.001585 -322.355841 
L 413.495448 -322.808671 
L 409.98931 -322.937762 
L 406.483173 -323.187568 
L 402.977035 -323.139651 
L 399.470898 -323.02958 
L 395.96476 -323.075604 
L 392.458623 -322.878787 
L 388.952485 -322.83779 
L 385.446347 -323.1712 
L 381.94021 -323.229408 
L 378.434072 -323.061021 
L 374.927935 -322.999848 
L 371.421797 -323.056761 
L 367.91566 -323.092968 
L 364.409522 -323.127314 
L 360.903385 -323.112455 
L 357.397247 -323.105214 
L 353.89111 -323.118341 
L 350.384972 -323.168342 
L 346.878835 -323.142778 
L 343.372697 -323.156717 
L 339.86656 -323.202963 
L 336.360422 -323.151606 
L 332.854285 -322.964835 
L 329.348147 -322.842879 
L 325.84201 -322.65833 
L 320.582803 -322.640131 
L 315.323597 -322.789835 
L 311.81746 -322.418287 
L 308.311322 -322.41152 
L 304.805185 -322.573646 
L 301.299047 -322.38027 
L 297.79291 -322.547539 
L 294.286772 -322.627977 
L 290.780635 -322.541883 
L 287.274497 -322.533768 
L 283.768359 -322.411865 
L 280.262222 -322.47333 
L 276.756084 -322.340308 
L 273.249947 -322.207002 
L 269.743809 -322.14661 
L 266.237672 -321.609809 
L 262.731534 -321.72683 
L 259.225397 -322.002461 
L 255.719259 -322.034623 
L 252.213122 -321.841362 
L 248.706984 -321.501308 
L 245.200847 -321.339695 
L 241.694709 -320.861585 
L 238.188572 -320.755943 
L 234.682434 -320.652714 
L 231.176297 -319.968622 
L 227.670159 -320.391521 
L 224.164022 -319.274415 
L 220.657884 -318.609412 
L 217.151747 -272.92236 
L 211.89254 -225.731474 
L 206.633334 -233.457579 
L 203.127197 -215.172934 
L 199.621059 -209.149105 
L 196.114922 -213.962543 
L 192.608784 -206.903487 
L 189.102647 -210.915984 
L 185.596509 -208.125316 
L 182.090371 -201.973235 
L 178.584234 -199.699053 
L 175.078096 -198.342582 
L 171.571959 -191.101664 
L 168.065821 -181.827494 
L 164.559684 -172.998241 
L 161.053546 -165.478133 
L 157.547409 -155.953409 
L 154.041271 -154.041646 
L 150.535134 -156.697189 
L 147.028996 -146.031761 
L 143.522859 -131.121408 
L 140.016721 -130.997549 
L 136.510584 -131.508139 
L 133.004446 -132.457227 
L 129.498309 -129.72553 
L 125.992171 -122.054683 
L 122.486034 -112.65576 
L 118.979896 -109.469608 
L 115.473759 -112.67232 
L 111.967621 -109.010952 
L 108.461484 -105.585381 
L 104.955346 -102.458071 
L 101.449209 -98.082833 
L 97.943071 -93.423439 
L 94.436934 -86.116765 
L 90.930796 -78.89542 
L 89.177727 -75.462037 
z
" style="stroke: #ff0000; stroke-opacity: 0.2"/>
    </defs>
    <g clip-path="url(#pc525b7c42d)">
     <use xlink:href="#mffb3ce1391" x="0" y="345.6" style="fill: #ff0000; fill-opacity: 0.2; stroke: #ff0000; stroke-opacity: 0.2"/>
    </g>
   </g>
   <g id="PolyCollection_4">
    <defs>
     <path id="m4a0f6c7772" d="M 89.177727 -75.462037 
L 89.177727 -73.206358 
L 90.930796 -72.651162 
L 94.436934 -71.155178 
L 97.943071 -71.257428 
L 101.449209 -72.535643 
L 104.955346 -71.735372 
L 108.461484 -70.427581 
L 111.967621 -70.141405 
L 115.473759 -71.297745 
L 118.979896 -72.384192 
L 122.486034 -71.929198 
L 125.992171 -71.926729 
L 129.498309 -70.342347 
L 133.004446 -69.079091 
L 136.510584 -69.29722 
L 140.016721 -70.01469 
L 143.522859 -69.830315 
L 147.028996 -71.061841 
L 150.535134 -72.227258 
L 154.041271 -70.716996 
L 157.547409 -72.490861 
L 161.053546 -77.520609 
L 164.559684 -84.14205 
L 168.065821 -90.743608 
L 171.571959 -83.104779 
L 175.078096 -81.267201 
L 178.584234 -99.614806 
L 182.090371 -109.579689 
L 185.596509 -115.638056 
L 189.102647 -115.364168 
L 192.608784 -116.028198 
L 196.114922 -119.806611 
L 199.621059 -121.608692 
L 203.127197 -122.981252 
L 206.633334 -156.941255 
L 210.139472 -175.928215 
L 215.398678 -156.497035 
L 224.164022 -230.458343 
L 231.176297 -299.279911 
L 236.435503 -292.271562 
L 241.694709 -280.214563 
L 245.200847 -281.337048 
L 248.706984 -294.315784 
L 252.213122 -290.774739 
L 255.719259 -296.049302 
L 259.225397 -303.754533 
L 262.731534 -302.426434 
L 266.237672 -300.518506 
L 269.743809 -300.119325 
L 273.249947 -302.977098 
L 276.756084 -302.697184 
L 280.262222 -187.4642 
L 283.768359 -177.740686 
L 287.274497 -297.378757 
L 290.780635 -311.758468 
L 294.286772 -311.431235 
L 297.79291 -313.837335 
L 301.299047 -318.007038 
L 304.805185 -321.531018 
L 308.311322 -322.288766 
L 311.81746 -321.152948 
L 315.323597 -321.603533 
L 318.829735 -322.491146 
L 324.088941 -322.168526 
L 332.854285 -322.023159 
L 339.86656 -321.616491 
L 345.125766 -321.432012 
L 350.384972 -321.777015 
L 353.89111 -321.311672 
L 357.397247 -320.200543 
L 360.903385 -320.38503 
L 364.409522 -319.562981 
L 367.91566 -319.328884 
L 371.421797 -319.635619 
L 374.927935 -319.01211 
L 378.434072 -319.564996 
L 381.94021 -319.580161 
L 385.446347 -319.443813 
L 388.952485 -196.90019 
L 392.458623 -196.536067 
L 395.96476 -319.822542 
L 399.470898 -320.694784 
L 402.977035 -321.112104 
L 406.483173 -321.207623 
L 409.98931 -321.48202 
L 413.495448 -322.20045 
L 417.001585 -322.345909 
L 420.507723 -321.598759 
L 424.01386 -321.723604 
L 427.519998 -322.684423 
L 432.779204 -322.035458 
L 432.779204 -322.338714 
L 432.779204 -322.338714 
L 427.519998 -323.406592 
L 424.01386 -323.531377 
L 420.507723 -323.81746 
L 417.001585 -323.175752 
L 413.495448 -323.14192 
L 409.98931 -323.662299 
L 406.483173 -323.744623 
L 402.977035 -323.777175 
L 399.470898 -323.812985 
L 395.96476 -323.860909 
L 392.458623 -323.832165 
L 388.952485 -323.796938 
L 385.446347 -323.789352 
L 381.94021 -323.819161 
L 378.434072 -323.790624 
L 374.927935 -323.79326 
L 371.421797 -323.750324 
L 367.91566 -323.673709 
L 364.409522 -323.695649 
L 360.903385 -323.683602 
L 357.397247 -323.652016 
L 353.89111 -323.575485 
L 350.384972 -323.406715 
L 345.125766 -322.516664 
L 339.86656 -321.616491 
L 332.854285 -322.023159 
L 324.088941 -322.168526 
L 318.829735 -322.491146 
L 315.323597 -323.242558 
L 311.81746 -323.194105 
L 308.311322 -323.139766 
L 304.805185 -322.625019 
L 301.299047 -322.153867 
L 297.79291 -322.492066 
L 294.286772 -322.560535 
L 290.780635 -322.073283 
L 287.274497 -321.736516 
L 283.768359 -321.646698 
L 280.262222 -321.66981 
L 276.756084 -321.742379 
L 273.249947 -321.738264 
L 269.743809 -321.799054 
L 266.237672 -321.137921 
L 262.731534 -320.092004 
L 259.225397 -319.568138 
L 255.719259 -318.42071 
L 252.213122 -318.987888 
L 248.706984 -319.710287 
L 245.200847 -317.849716 
L 241.694709 -313.967744 
L 236.435503 -301.942339 
L 231.176297 -299.279911 
L 224.164022 -230.458343 
L 215.398678 -156.497035 
L 210.139472 -175.928215 
L 206.633334 -198.046548 
L 203.127197 -193.244195 
L 199.621059 -186.437126 
L 196.114922 -187.138088 
L 192.608784 -187.030442 
L 189.102647 -177.958066 
L 185.596509 -165.233185 
L 182.090371 -166.881169 
L 178.584234 -162.949279 
L 175.078096 -156.952796 
L 171.571959 -147.759842 
L 168.065821 -143.699011 
L 164.559684 -139.704703 
L 161.053546 -124.232431 
L 157.547409 -118.982813 
L 154.041271 -119.753096 
L 150.535134 -126.557773 
L 147.028996 -125.768111 
L 143.522859 -119.148468 
L 140.016721 -113.925927 
L 136.510584 -109.246684 
L 133.004446 -104.119024 
L 129.498309 -105.308867 
L 125.992171 -100.939184 
L 122.486034 -101.861877 
L 118.979896 -110.28024 
L 115.473759 -115.310487 
L 111.967621 -118.669279 
L 108.461484 -109.114807 
L 104.955346 -103.081284 
L 101.449209 -99.120754 
L 97.943071 -93.231176 
L 94.436934 -86.234719 
L 90.930796 -78.923998 
L 89.177727 -75.462037 
z
" style="stroke: #008000; stroke-opacity: 0.2"/>
    </defs>
    <g clip-path="url(#pc525b7c42d)">
     <use xlink:href="#m4a0f6c7772" x="0" y="345.6" style="fill: #008000; fill-opacity: 0.2; stroke: #008000; stroke-opacity: 0.2"/>
    </g>
   </g>
   <g id="line2d_14">
    <path d="M 89.177727 271.953755 
L 90.930796 270.705382 
L 94.436934 267.271889 
L 97.943071 265.191338 
L 101.449209 265.562764 
L 104.955346 265.864443 
L 108.461484 264.800834 
L 111.967621 263.893191 
L 115.473759 263.116794 
L 118.979896 260.928955 
L 122.486034 258.16185 
L 125.992171 255.483088 
L 129.498309 250.615911 
L 133.004446 246.602846 
L 136.510584 242.906989 
L 140.016721 241.162325 
L 143.522859 240.762873 
L 147.028996 237.471761 
L 150.535134 230.852658 
L 154.041271 220.213229 
L 157.547409 211.23235 
L 161.053546 206.560657 
L 164.559684 209.530864 
L 168.065821 207.511811 
L 171.571959 196.531638 
L 175.078096 184.893001 
L 178.584234 182.041419 
L 182.090371 176.236239 
L 185.596509 162.118369 
L 189.102647 157.275019 
L 192.608784 152.009471 
L 196.114922 136.434424 
L 199.621059 141.247861 
L 203.127197 130.427066 
L 206.633334 114.396211 
L 211.89254 122.122316 
L 217.151747 74.968994 
L 220.657884 32.067231 
L 224.164022 34.125837 
L 227.670159 34.458634 
L 231.176297 32.928186 
L 234.682434 31.099662 
L 238.188572 33.011827 
L 241.694709 34.389092 
L 245.200847 31.361744 
L 248.706984 28.102935 
L 252.213122 26.521153 
L 255.719259 26.285714 
L 259.225397 26.588901 
L 262.731534 26.180884 
L 266.237672 25.564265 
L 269.743809 25.531268 
L 273.249947 25.248074 
L 276.756084 24.649517 
L 280.262222 24.71102 
L 283.768359 24.700284 
L 287.274497 24.286489 
L 290.780635 23.860824 
L 294.286772 23.811873 
L 297.79291 23.94557 
L 301.299047 23.572435 
L 304.805185 23.026354 
L 308.311322 23.523828 
L 311.81746 23.517062 
L 315.323597 23.429244 
L 320.582803 23.578948 
L 325.84201 24.087987 
L 329.348147 24.78814 
L 332.854285 24.118531 
L 336.360422 23.533491 
L 339.86656 23.505989 
L 343.372697 23.625363 
L 346.878835 23.547308 
L 350.384972 23.664314 
L 353.89111 23.588428 
L 357.397247 23.42342 
L 360.903385 23.357334 
L 364.409522 23.254114 
L 367.91566 23.329786 
L 371.421797 23.325065 
L 374.927935 23.450248 
L 378.434072 23.367787 
L 381.94021 23.218504 
L 385.446347 23.182342 
L 388.952485 23.461812 
L 392.458623 23.400998 
L 395.96476 23.023503 
L 399.470898 23.134241 
L 402.977035 23.119911 
L 406.483173 22.984399 
L 409.98931 22.902297 
L 413.495448 22.795038 
L 417.001585 23.270359 
L 422.260791 23.73581 
L 427.519998 23.549982 
L 431.026135 23.63321 
L 434.532273 23.239975 
" clip-path="url(#pc525b7c42d)" style="fill: none; stroke: #ff0000; stroke-width: 1.5; stroke-linecap: round"/>
   </g>
   <g id="line2d_15">
    <path d="M 89.177727 271.953755 
L 90.930796 270.791762 
L 94.436934 267.416945 
L 97.943071 265.44779 
L 101.449209 265.308722 
L 104.955346 264.782241 
L 108.461484 264.282579 
L 111.967621 263.560955 
L 115.473759 264.027827 
L 118.979896 265.261727 
L 122.486034 266.356642 
L 125.992171 266.30045 
L 129.498309 264.756435 
L 133.004446 261.811536 
L 136.510584 260.159636 
L 140.016721 257.547098 
L 143.522859 254.10897 
L 147.028996 253.194554 
L 150.535134 255.659651 
L 154.041271 254.353926 
L 157.547409 247.832131 
L 161.053546 241.597141 
L 164.559684 234.792877 
L 168.065821 231.937083 
L 171.571959 228.161716 
L 175.078096 221.568667 
L 178.584234 213.997581 
L 182.090371 208.467715 
L 185.596509 204.420019 
L 189.102647 202.44689 
L 192.608784 188.784322 
L 196.114922 172.514262 
L 199.621059 184.603508 
L 203.127197 197.482292 
L 206.633334 174.237336 
L 210.139472 169.671785 
L 215.398678 189.102965 
L 224.164022 115.141657 
L 231.176297 46.320089 
L 236.435503 45.591819 
L 241.694709 38.841859 
L 245.200847 38.317472 
L 248.706984 35.568575 
L 252.213122 35.032095 
L 255.719259 33.354885 
L 259.225397 30.189319 
L 262.731534 29.753892 
L 266.237672 29.700205 
L 269.743809 29.730995 
L 273.249947 29.735325 
L 276.756084 30.137862 
L 280.262222 32.894522 
L 283.768359 31.657582 
L 287.274497 27.709616 
L 290.780635 27.677355 
L 294.286772 26.991784 
L 297.79291 25.614251 
L 301.299047 24.697089 
L 304.805185 23.724706 
L 308.311322 22.998675 
L 311.81746 23.093704 
L 315.323597 22.933777 
L 318.829735 23.108854 
L 324.088941 23.431474 
L 332.854285 23.576841 
L 339.86656 23.983509 
L 345.125766 23.181943 
L 350.384972 22.495047 
L 353.89111 22.681281 
L 357.397247 23.260328 
L 360.903385 23.258474 
L 364.409522 22.895975 
L 367.91566 22.969525 
L 371.421797 23.019832 
L 374.927935 22.945877 
L 378.434072 23.09152 
L 381.94021 23.34151 
L 385.446347 23.207921 
L 388.952485 24.891407 
L 392.458623 24.871016 
L 395.96476 22.811238 
L 399.470898 22.605294 
L 402.977035 22.57465 
L 406.483173 22.690951 
L 409.98931 22.639318 
L 413.495448 22.70017 
L 417.001585 22.645326 
L 420.507723 22.870864 
L 424.01386 23.089558 
L 427.519998 22.422915 
L 432.779204 23.337104 
" clip-path="url(#pc525b7c42d)" style="fill: none; stroke: #008000; stroke-width: 1.5; stroke-linecap: round"/>
   </g>
   <g id="patch_3">
    <path d="M 71.91 289.26 
L 71.91 9 
" style="fill: none; stroke: #ffffff; stroke-width: 1.25; stroke-linejoin: miter; stroke-linecap: square"/>
   </g>
   <g id="patch_4">
    <path d="M 451.8 289.26 
L 451.8 9 
" style="fill: none; stroke: #ffffff; stroke-width: 1.25; stroke-linejoin: miter; stroke-linecap: square"/>
   </g>
   <g id="patch_5">
    <path d="M 71.91 289.26 
L 451.8 289.26 
" style="fill: none; stroke: #ffffff; stroke-width: 1.25; stroke-linejoin: miter; stroke-linecap: square"/>
   </g>
   <g id="patch_6">
    <path d="M 71.91 9 
L 451.8 9 
" style="fill: none; stroke: #ffffff; stroke-width: 1.25; stroke-linejoin: miter; stroke-linecap: square"/>
   </g>
   <g id="legend_1">
    <g id="patch_7">
     <path d="M 83.46 46.418906 
L 165.776953 46.418906 
Q 169.076953 46.418906 169.076953 43.118906 
L 169.076953 20.55 
Q 169.076953 17.25 165.776953 17.25 
L 83.46 17.25 
Q 80.16 17.25 80.16 20.55 
L 80.16 43.118906 
Q 80.16 46.418906 83.46 46.418906 
z
" style="fill: #eaeaf2; opacity: 0.8; stroke: #cccccc; stroke-linejoin: miter"/>
    </g>
    <g id="line2d_16">
     <path d="M 86.76 30.612422 
L 103.26 30.612422 
L 119.76 30.612422 
" style="fill: none; stroke: #008000; stroke-width: 1.5; stroke-linecap: round"/>
    </g>
    <g id="text_16">
     <!-- skrl -->
     <g style="fill: #262626" transform="translate(132.96 36.387422) scale(0.165 -0.165)">
      <defs>
       <path id="DejaVuSans-6b" d="M 581 4863 
L 1159 4863 
L 1159 1991 
L 2875 3500 
L 3609 3500 
L 1753 1863 
L 3688 0 
L 2938 0 
L 1159 1709 
L 1159 0 
L 581 0 
L 581 4863 
z
" transform="scale(0.015625)"/>
      </defs>
      <use xlink:href="#DejaVuSans-73"/>
      <use xlink:href="#DejaVuSans-6b" x="52.099609"/>
      <use xlink:href="#DejaVuSans-72" x="110.009766"/>
      <use xlink:href="#DejaVuSans-6c" x="151.123047"/>
     </g>
    </g>
   </g>
  </g>
 </g>
 <defs>
  <clipPath id="pc525b7c42d">
   <rect x="71.91" y="9" width="379.89" height="280.26"/>
  </clipPath>
 </defs>
</svg>
